<?xml version="1.0" encoding="utf-8" standalone="no"?>
<!DOCTYPE svg PUBLIC "-//W3C//DTD SVG 1.1//EN"
  "http://www.w3.org/Graphics/SVG/1.1/DTD/svg11.dtd">
<svg xmlns:xlink="http://www.w3.org/1999/xlink" width="460.8pt" height="345.6pt" viewBox="0 0 460.8 345.6" xmlns="http://www.w3.org/2000/svg" version="1.1">
 <metadata>
  <rdf:RDF xmlns:dc="http://purl.org/dc/elements/1.1/" xmlns:cc="http://creativecommons.org/ns#" xmlns:rdf="http://www.w3.org/1999/02/22-rdf-syntax-ns#">
   <cc:Work>
    <dc:type rdf:resource="http://purl.org/dc/dcmitype/StillImage"/>
    <dc:date>2022-05-30T16:22:24.073447</dc:date>
    <dc:format>image/svg+xml</dc:format>
    <dc:creator>
     <cc:Agent>
      <dc:title>Matplotlib v3.5.2, https://matplotlib.org/</dc:title>
     </cc:Agent>
    </dc:creator>
   </cc:Work>
  </rdf:RDF>
 </metadata>
 <defs>
  <style type="text/css">*{stroke-linejoin: round; stroke-linecap: butt}</style>
 </defs>
 <g id="figure_1">
  <g id="patch_1">
   <path d="M 0 345.6 
L 460.8 345.6 
L 460.8 0 
L 0 0 
z
" style="fill: #ffffff"/>
  </g>
  <g id="patch_2">
   <path d="M 68.4 334.8 
L 392.4 334.8 
L 392.4 10.8 
L 68.4 10.8 
z
" style="fill: #ffffff"/>
  </g>
  <g id="pane3d_1">
   <g id="patch_3">
    <path d="M 379.266956 237.008164 
L 231.48901 178.904848 
L 231.376179 44.335856 
L 384.601003 94.324485 
" style="fill: #f2f2f2; opacity: 0.5; stroke: #f2f2f2; stroke-linejoin: miter"/>
   </g>
  </g>
  <g id="pane3d_2">
   <g id="patch_4">
    <path d="M 89.755546 240.144945 
L 231.48901 178.904848 
L 231.376179 44.335856 
L 84.381247 97.030378 
" style="fill: #e6e6e6; opacity: 0.5; stroke: #e6e6e6; stroke-linejoin: miter"/>
   </g>
  </g>
  <g id="pane3d_3">
   <g id="patch_5">
    <path d="M 238.605064 307.989343 
L 379.266956 237.008164 
L 231.48901 178.904848 
L 89.755546 240.144945 
" style="fill: #ececec; opacity: 0.5; stroke: #ececec; stroke-linejoin: miter"/>
   </g>
  </g>
  <g id="axis3d_1">
   <g id="line2d_1">
    <path d="M 379.266956 237.008164 
L 238.605064 307.989343 
" style="fill: none; stroke: #000000; stroke-width: 0.8; stroke-linecap: square"/>
   </g>
   <g id="text_1">
    <!-- threads -->
    <g transform="translate(319.444385 313.290582)rotate(-26.776547)scale(0.1 -0.1)">
     <defs>
      <path id="DejaVuSans-74" d="M 1172 4494 
L 1172 3500 
L 2356 3500 
L 2356 3053 
L 1172 3053 
L 1172 1153 
Q 1172 725 1289 603 
Q 1406 481 1766 481 
L 2356 481 
L 2356 0 
L 1766 0 
Q 1100 0 847 248 
Q 594 497 594 1153 
L 594 3053 
L 172 3053 
L 172 3500 
L 594 3500 
L 594 4494 
L 1172 4494 
z
" transform="scale(0.015625)"/>
      <path id="DejaVuSans-68" d="M 3513 2113 
L 3513 0 
L 2938 0 
L 2938 2094 
Q 2938 2591 2744 2837 
Q 2550 3084 2163 3084 
Q 1697 3084 1428 2787 
Q 1159 2491 1159 1978 
L 1159 0 
L 581 0 
L 581 4863 
L 1159 4863 
L 1159 2956 
Q 1366 3272 1645 3428 
Q 1925 3584 2291 3584 
Q 2894 3584 3203 3211 
Q 3513 2838 3513 2113 
z
" transform="scale(0.015625)"/>
      <path id="DejaVuSans-72" d="M 2631 2963 
Q 2534 3019 2420 3045 
Q 2306 3072 2169 3072 
Q 1681 3072 1420 2755 
Q 1159 2438 1159 1844 
L 1159 0 
L 581 0 
L 581 3500 
L 1159 3500 
L 1159 2956 
Q 1341 3275 1631 3429 
Q 1922 3584 2338 3584 
Q 2397 3584 2469 3576 
Q 2541 3569 2628 3553 
L 2631 2963 
z
" transform="scale(0.015625)"/>
      <path id="DejaVuSans-65" d="M 3597 1894 
L 3597 1613 
L 953 1613 
Q 991 1019 1311 708 
Q 1631 397 2203 397 
Q 2534 397 2845 478 
Q 3156 559 3463 722 
L 3463 178 
Q 3153 47 2828 -22 
Q 2503 -91 2169 -91 
Q 1331 -91 842 396 
Q 353 884 353 1716 
Q 353 2575 817 3079 
Q 1281 3584 2069 3584 
Q 2775 3584 3186 3129 
Q 3597 2675 3597 1894 
z
M 3022 2063 
Q 3016 2534 2758 2815 
Q 2500 3097 2075 3097 
Q 1594 3097 1305 2825 
Q 1016 2553 972 2059 
L 3022 2063 
z
" transform="scale(0.015625)"/>
      <path id="DejaVuSans-61" d="M 2194 1759 
Q 1497 1759 1228 1600 
Q 959 1441 959 1056 
Q 959 750 1161 570 
Q 1363 391 1709 391 
Q 2188 391 2477 730 
Q 2766 1069 2766 1631 
L 2766 1759 
L 2194 1759 
z
M 3341 1997 
L 3341 0 
L 2766 0 
L 2766 531 
Q 2569 213 2275 61 
Q 1981 -91 1556 -91 
Q 1019 -91 701 211 
Q 384 513 384 1019 
Q 384 1609 779 1909 
Q 1175 2209 1959 2209 
L 2766 2209 
L 2766 2266 
Q 2766 2663 2505 2880 
Q 2244 3097 1772 3097 
Q 1472 3097 1187 3025 
Q 903 2953 641 2809 
L 641 3341 
Q 956 3463 1253 3523 
Q 1550 3584 1831 3584 
Q 2591 3584 2966 3190 
Q 3341 2797 3341 1997 
z
" transform="scale(0.015625)"/>
      <path id="DejaVuSans-64" d="M 2906 2969 
L 2906 4863 
L 3481 4863 
L 3481 0 
L 2906 0 
L 2906 525 
Q 2725 213 2448 61 
Q 2172 -91 1784 -91 
Q 1150 -91 751 415 
Q 353 922 353 1747 
Q 353 2572 751 3078 
Q 1150 3584 1784 3584 
Q 2172 3584 2448 3432 
Q 2725 3281 2906 2969 
z
M 947 1747 
Q 947 1113 1208 752 
Q 1469 391 1925 391 
Q 2381 391 2643 752 
Q 2906 1113 2906 1747 
Q 2906 2381 2643 2742 
Q 2381 3103 1925 3103 
Q 1469 3103 1208 2742 
Q 947 2381 947 1747 
z
" transform="scale(0.015625)"/>
      <path id="DejaVuSans-73" d="M 2834 3397 
L 2834 2853 
Q 2591 2978 2328 3040 
Q 2066 3103 1784 3103 
Q 1356 3103 1142 2972 
Q 928 2841 928 2578 
Q 928 2378 1081 2264 
Q 1234 2150 1697 2047 
L 1894 2003 
Q 2506 1872 2764 1633 
Q 3022 1394 3022 966 
Q 3022 478 2636 193 
Q 2250 -91 1575 -91 
Q 1294 -91 989 -36 
Q 684 19 347 128 
L 347 722 
Q 666 556 975 473 
Q 1284 391 1588 391 
Q 1994 391 2212 530 
Q 2431 669 2431 922 
Q 2431 1156 2273 1281 
Q 2116 1406 1581 1522 
L 1381 1569 
Q 847 1681 609 1914 
Q 372 2147 372 2553 
Q 372 3047 722 3315 
Q 1072 3584 1716 3584 
Q 2034 3584 2315 3537 
Q 2597 3491 2834 3397 
z
" transform="scale(0.015625)"/>
     </defs>
     <use xlink:href="#DejaVuSans-74"/>
     <use xlink:href="#DejaVuSans-68" x="39.208984"/>
     <use xlink:href="#DejaVuSans-72" x="102.587891"/>
     <use xlink:href="#DejaVuSans-65" x="141.451172"/>
     <use xlink:href="#DejaVuSans-61" x="202.974609"/>
     <use xlink:href="#DejaVuSans-64" x="264.253906"/>
     <use xlink:href="#DejaVuSans-73" x="327.730469"/>
    </g>
   </g>
   <g id="Line3DCollection_1">
    <path d="M 248.253855 303.120344 
L 99.426225 235.966445 
L 94.435827 93.426027 
" style="fill: none; stroke: #b0b0b0; stroke-width: 0.8"/>
    <path d="M 264.558995 294.892401 
L 115.78555 228.897919 
L 111.436254 87.331739 
" style="fill: none; stroke: #b0b0b0; stroke-width: 0.8"/>
    <path d="M 280.573334 286.811203 
L 131.874181 221.946355 
L 128.145185 81.341947 
" style="fill: none; stroke: #b0b0b0; stroke-width: 0.8"/>
    <path d="M 296.304583 278.872858 
L 147.698779 215.108873 
L 144.570051 75.453986 
" style="fill: none; stroke: #b0b0b0; stroke-width: 0.8"/>
    <path d="M 311.760183 271.073612 
L 163.265793 208.382688 
L 160.718037 69.66528 
" style="fill: none; stroke: #b0b0b0; stroke-width: 0.8"/>
    <path d="M 326.947316 263.40984 
L 178.58146 201.765105 
L 176.596085 63.973342 
" style="fill: none; stroke: #b0b0b0; stroke-width: 0.8"/>
    <path d="M 341.872917 255.878044 
L 193.651819 195.253515 
L 192.210906 58.375764 
" style="fill: none; stroke: #b0b0b0; stroke-width: 0.8"/>
    <path d="M 356.543684 248.474842 
L 208.482717 188.845391 
L 207.568994 52.87022 
" style="fill: none; stroke: #b0b0b0; stroke-width: 0.8"/>
    <path d="M 370.966087 241.196971 
L 223.079816 182.538286 
L 222.676629 47.454458 
" style="fill: none; stroke: #b0b0b0; stroke-width: 0.8"/>
   </g>
   <g id="xtick_1">
    <g id="line2d_2">
     <path d="M 246.969684 302.540901 
L 250.82709 304.281437 
" style="fill: none; stroke: #000000; stroke-width: 0.8; stroke-linecap: square"/>
    </g>
    <g id="text_2">
     <!-- 40 -->
     <g transform="translate(252.832768 325.634798)scale(0.1 -0.1)">
      <defs>
       <path id="DejaVuSans-34" d="M 2419 4116 
L 825 1625 
L 2419 1625 
L 2419 4116 
z
M 2253 4666 
L 3047 4666 
L 3047 1625 
L 3713 1625 
L 3713 1100 
L 3047 1100 
L 3047 0 
L 2419 0 
L 2419 1100 
L 313 1100 
L 313 1709 
L 2253 4666 
z
" transform="scale(0.015625)"/>
       <path id="DejaVuSans-30" d="M 2034 4250 
Q 1547 4250 1301 3770 
Q 1056 3291 1056 2328 
Q 1056 1369 1301 889 
Q 1547 409 2034 409 
Q 2525 409 2770 889 
Q 3016 1369 3016 2328 
Q 3016 3291 2770 3770 
Q 2525 4250 2034 4250 
z
M 2034 4750 
Q 2819 4750 3233 4129 
Q 3647 3509 3647 2328 
Q 3647 1150 3233 529 
Q 2819 -91 2034 -91 
Q 1250 -91 836 529 
Q 422 1150 422 2328 
Q 422 3509 836 4129 
Q 1250 4750 2034 4750 
z
" transform="scale(0.015625)"/>
      </defs>
      <use xlink:href="#DejaVuSans-34"/>
      <use xlink:href="#DejaVuSans-30" x="63.623047"/>
     </g>
    </g>
   </g>
   <g id="xtick_2">
    <g id="line2d_3">
     <path d="M 263.276132 294.323335 
L 267.129564 296.032681 
" style="fill: none; stroke: #000000; stroke-width: 0.8; stroke-linecap: square"/>
    </g>
    <g id="text_3">
     <!-- 50 -->
     <g transform="translate(269.084328 317.249495)scale(0.1 -0.1)">
      <defs>
       <path id="DejaVuSans-35" d="M 691 4666 
L 3169 4666 
L 3169 4134 
L 1269 4134 
L 1269 2991 
Q 1406 3038 1543 3061 
Q 1681 3084 1819 3084 
Q 2600 3084 3056 2656 
Q 3513 2228 3513 1497 
Q 3513 744 3044 326 
Q 2575 -91 1722 -91 
Q 1428 -91 1123 -41 
Q 819 9 494 109 
L 494 744 
Q 775 591 1075 516 
Q 1375 441 1709 441 
Q 2250 441 2565 725 
Q 2881 1009 2881 1497 
Q 2881 1984 2565 2268 
Q 2250 2553 1709 2553 
Q 1456 2553 1204 2497 
Q 953 2441 691 2322 
L 691 4666 
z
" transform="scale(0.015625)"/>
      </defs>
      <use xlink:href="#DejaVuSans-35"/>
      <use xlink:href="#DejaVuSans-30" x="63.623047"/>
     </g>
    </g>
   </g>
   <g id="xtick_3">
    <g id="line2d_4">
     <path d="M 279.291937 286.252238 
L 283.140922 287.931224 
" style="fill: none; stroke: #000000; stroke-width: 0.8; stroke-linecap: square"/>
    </g>
    <g id="text_4">
     <!-- 60 -->
     <g transform="translate(285.045248 309.014153)scale(0.1 -0.1)">
      <defs>
       <path id="DejaVuSans-36" d="M 2113 2584 
Q 1688 2584 1439 2293 
Q 1191 2003 1191 1497 
Q 1191 994 1439 701 
Q 1688 409 2113 409 
Q 2538 409 2786 701 
Q 3034 994 3034 1497 
Q 3034 2003 2786 2293 
Q 2538 2584 2113 2584 
z
M 3366 4563 
L 3366 3988 
Q 3128 4100 2886 4159 
Q 2644 4219 2406 4219 
Q 1781 4219 1451 3797 
Q 1122 3375 1075 2522 
Q 1259 2794 1537 2939 
Q 1816 3084 2150 3084 
Q 2853 3084 3261 2657 
Q 3669 2231 3669 1497 
Q 3669 778 3244 343 
Q 2819 -91 2113 -91 
Q 1303 -91 875 529 
Q 447 1150 447 2328 
Q 447 3434 972 4092 
Q 1497 4750 2381 4750 
Q 2619 4750 2861 4703 
Q 3103 4656 3366 4563 
z
" transform="scale(0.015625)"/>
      </defs>
      <use xlink:href="#DejaVuSans-36"/>
      <use xlink:href="#DejaVuSans-30" x="63.623047"/>
     </g>
    </g>
   </g>
   <g id="xtick_4">
    <g id="line2d_5">
     <path d="M 295.024801 278.323727 
L 298.868893 279.973155 
" style="fill: none; stroke: #000000; stroke-width: 0.8; stroke-linecap: square"/>
    </g>
    <g id="text_5">
     <!-- 70 -->
     <g transform="translate(300.723254 300.924786)scale(0.1 -0.1)">
      <defs>
       <path id="DejaVuSans-37" d="M 525 4666 
L 3525 4666 
L 3525 4397 
L 1831 0 
L 1172 0 
L 2766 4134 
L 525 4134 
L 525 4666 
z
" transform="scale(0.015625)"/>
      </defs>
      <use xlink:href="#DejaVuSans-37"/>
      <use xlink:href="#DejaVuSans-30" x="63.623047"/>
     </g>
    </g>
   </g>
   <g id="xtick_5">
    <g id="line2d_6">
     <path d="M 310.482157 270.534058 
L 314.320935 272.154702 
" style="fill: none; stroke: #000000; stroke-width: 0.8; stroke-linecap: square"/>
    </g>
    <g id="text_6">
     <!-- 80 -->
     <g transform="translate(316.125804 292.977545)scale(0.1 -0.1)">
      <defs>
       <path id="DejaVuSans-38" d="M 2034 2216 
Q 1584 2216 1326 1975 
Q 1069 1734 1069 1313 
Q 1069 891 1326 650 
Q 1584 409 2034 409 
Q 2484 409 2743 651 
Q 3003 894 3003 1313 
Q 3003 1734 2745 1975 
Q 2488 2216 2034 2216 
z
M 1403 2484 
Q 997 2584 770 2862 
Q 544 3141 544 3541 
Q 544 4100 942 4425 
Q 1341 4750 2034 4750 
Q 2731 4750 3128 4425 
Q 3525 4100 3525 3541 
Q 3525 3141 3298 2862 
Q 3072 2584 2669 2484 
Q 3125 2378 3379 2068 
Q 3634 1759 3634 1313 
Q 3634 634 3220 271 
Q 2806 -91 2034 -91 
Q 1263 -91 848 271 
Q 434 634 434 1313 
Q 434 1759 690 2068 
Q 947 2378 1403 2484 
z
M 1172 3481 
Q 1172 3119 1398 2916 
Q 1625 2713 2034 2713 
Q 2441 2713 2670 2916 
Q 2900 3119 2900 3481 
Q 2900 3844 2670 4047 
Q 2441 4250 2034 4250 
Q 1625 4250 1398 4047 
Q 1172 3844 1172 3481 
z
" transform="scale(0.015625)"/>
      </defs>
      <use xlink:href="#DejaVuSans-38"/>
      <use xlink:href="#DejaVuSans-30" x="63.623047"/>
     </g>
    </g>
   </g>
   <g id="xtick_6">
    <g id="line2d_7">
     <path d="M 325.671177 262.879615 
L 329.504245 264.472222 
" style="fill: none; stroke: #000000; stroke-width: 0.8; stroke-linecap: square"/>
    </g>
    <g id="text_7">
     <!-- 90 -->
     <g transform="translate(331.260094 285.168719)scale(0.1 -0.1)">
      <defs>
       <path id="DejaVuSans-39" d="M 703 97 
L 703 672 
Q 941 559 1184 500 
Q 1428 441 1663 441 
Q 2288 441 2617 861 
Q 2947 1281 2994 2138 
Q 2813 1869 2534 1725 
Q 2256 1581 1919 1581 
Q 1219 1581 811 2004 
Q 403 2428 403 3163 
Q 403 3881 828 4315 
Q 1253 4750 1959 4750 
Q 2769 4750 3195 4129 
Q 3622 3509 3622 2328 
Q 3622 1225 3098 567 
Q 2575 -91 1691 -91 
Q 1453 -91 1209 -44 
Q 966 3 703 97 
z
M 1959 2075 
Q 2384 2075 2632 2365 
Q 2881 2656 2881 3163 
Q 2881 3666 2632 3958 
Q 2384 4250 1959 4250 
Q 1534 4250 1286 3958 
Q 1038 3666 1038 3163 
Q 1038 2656 1286 2365 
Q 1534 2075 1959 2075 
z
" transform="scale(0.015625)"/>
      </defs>
      <use xlink:href="#DejaVuSans-39"/>
      <use xlink:href="#DejaVuSans-30" x="63.623047"/>
     </g>
    </g>
   </g>
   <g id="xtick_7">
    <g id="line2d_8">
     <path d="M 340.59879 255.356907 
L 344.425775 256.922198 
" style="fill: none; stroke: #000000; stroke-width: 0.8; stroke-linecap: square"/>
    </g>
    <g id="text_8">
     <!-- 100 -->
     <g transform="translate(342.95182 277.494723)scale(0.1 -0.1)">
      <defs>
       <path id="DejaVuSans-31" d="M 794 531 
L 1825 531 
L 1825 4091 
L 703 3866 
L 703 4441 
L 1819 4666 
L 2450 4666 
L 2450 531 
L 3481 531 
L 3481 0 
L 794 0 
L 794 531 
z
" transform="scale(0.015625)"/>
      </defs>
      <use xlink:href="#DejaVuSans-31"/>
      <use xlink:href="#DejaVuSans-30" x="63.623047"/>
      <use xlink:href="#DejaVuSans-30" x="127.246094"/>
     </g>
    </g>
   </g>
   <g id="xtick_8">
    <g id="line2d_9">
     <path d="M 355.271686 247.962563 
L 359.092235 249.501235 
" style="fill: none; stroke: #000000; stroke-width: 0.8; stroke-linecap: square"/>
    </g>
    <g id="text_9">
     <!-- 110 -->
     <g transform="translate(357.570194 269.952093)scale(0.1 -0.1)">
      <use xlink:href="#DejaVuSans-31"/>
      <use xlink:href="#DejaVuSans-31" x="63.623047"/>
      <use xlink:href="#DejaVuSans-30" x="127.246094"/>
     </g>
    </g>
   </g>
   <g id="xtick_9">
    <g id="line2d_10">
     <path d="M 369.696329 240.693325 
L 373.510111 242.206051 
" style="fill: none; stroke: #000000; stroke-width: 0.8; stroke-linecap: square"/>
    </g>
    <g id="text_10">
     <!-- 120 -->
     <g transform="translate(371.940448 262.537486)scale(0.1 -0.1)">
      <defs>
       <path id="DejaVuSans-32" d="M 1228 531 
L 3431 531 
L 3431 0 
L 469 0 
L 469 531 
Q 828 903 1448 1529 
Q 2069 2156 2228 2338 
Q 2531 2678 2651 2914 
Q 2772 3150 2772 3378 
Q 2772 3750 2511 3984 
Q 2250 4219 1831 4219 
Q 1534 4219 1204 4116 
Q 875 4013 500 3803 
L 500 4441 
Q 881 4594 1212 4672 
Q 1544 4750 1819 4750 
Q 2544 4750 2975 4387 
Q 3406 4025 3406 3419 
Q 3406 3131 3298 2873 
Q 3191 2616 2906 2266 
Q 2828 2175 2409 1742 
Q 1991 1309 1228 531 
z
" transform="scale(0.015625)"/>
      </defs>
      <use xlink:href="#DejaVuSans-31"/>
      <use xlink:href="#DejaVuSans-32" x="63.623047"/>
      <use xlink:href="#DejaVuSans-30" x="127.246094"/>
     </g>
    </g>
   </g>
  </g>
  <g id="axis3d_2">
   <g id="line2d_11">
    <path d="M 89.755546 240.144945 
L 238.605064 307.989343 
" style="fill: none; stroke: #000000; stroke-width: 0.8; stroke-linecap: square"/>
   </g>
   <g id="text_11">
    <!-- rows -->
    <g transform="translate(127.254362 307.318701)scale(0.1 -0.1)">
     <defs>
      <path id="DejaVuSans-6f" d="M 1959 3097 
Q 1497 3097 1228 2736 
Q 959 2375 959 1747 
Q 959 1119 1226 758 
Q 1494 397 1959 397 
Q 2419 397 2687 759 
Q 2956 1122 2956 1747 
Q 2956 2369 2687 2733 
Q 2419 3097 1959 3097 
z
M 1959 3584 
Q 2709 3584 3137 3096 
Q 3566 2609 3566 1747 
Q 3566 888 3137 398 
Q 2709 -91 1959 -91 
Q 1206 -91 779 398 
Q 353 888 353 1747 
Q 353 2609 779 3096 
Q 1206 3584 1959 3584 
z
" transform="scale(0.015625)"/>
      <path id="DejaVuSans-77" d="M 269 3500 
L 844 3500 
L 1563 769 
L 2278 3500 
L 2956 3500 
L 3675 769 
L 4391 3500 
L 4966 3500 
L 4050 0 
L 3372 0 
L 2619 2869 
L 1863 0 
L 1184 0 
L 269 3500 
z
" transform="scale(0.015625)"/>
     </defs>
     <use xlink:href="#DejaVuSans-72"/>
     <use xlink:href="#DejaVuSans-6f" x="38.863281"/>
     <use xlink:href="#DejaVuSans-77" x="100.044922"/>
     <use xlink:href="#DejaVuSans-73" x="181.832031"/>
    </g>
   </g>
   <g id="Line3DCollection_2">
    <path d="M 358.436346 85.788431 
L 354.085205 227.107206 
L 213.120246 296.373571 
" style="fill: none; stroke: #b0b0b0; stroke-width: 0.8"/>
    <path d="M 327.672853 75.752036 
L 324.44961 215.455086 
L 183.191603 282.732339 
" style="fill: none; stroke: #b0b0b0; stroke-width: 0.8"/>
    <path d="M 297.78259 66.000527 
L 295.626442 204.122396 
L 154.149193 269.495045 
" style="fill: none; stroke: #b0b0b0; stroke-width: 0.8"/>
    <path d="M 268.728898 56.521944 
L 267.582743 193.096178 
L 125.954227 256.644009 
" style="fill: none; stroke: #b0b0b0; stroke-width: 0.8"/>
    <path d="M 240.477139 47.304987 
L 240.287318 182.364165 
L 98.570147 244.162569 
" style="fill: none; stroke: #b0b0b0; stroke-width: 0.8"/>
   </g>
   <g id="xtick_10">
    <g id="line2d_12">
     <path d="M 214.340325 295.774058 
L 210.675245 297.574979 
" style="fill: none; stroke: #000000; stroke-width: 0.8; stroke-linecap: square"/>
    </g>
    <g id="text_12">
     <!-- 2000 -->
     <g transform="translate(190.019864 319.007516)scale(0.1 -0.1)">
      <use xlink:href="#DejaVuSans-32"/>
      <use xlink:href="#DejaVuSans-30" x="63.623047"/>
      <use xlink:href="#DejaVuSans-30" x="127.246094"/>
      <use xlink:href="#DejaVuSans-30" x="190.869141"/>
     </g>
    </g>
   </g>
   <g id="xtick_11">
    <g id="line2d_13">
     <path d="M 184.412828 282.150704 
L 180.744377 283.897884 
" style="fill: none; stroke: #000000; stroke-width: 0.8; stroke-linecap: square"/>
    </g>
    <g id="text_13">
     <!-- 4000 -->
     <g transform="translate(160.157907 305.098762)scale(0.1 -0.1)">
      <use xlink:href="#DejaVuSans-34"/>
      <use xlink:href="#DejaVuSans-30" x="63.623047"/>
      <use xlink:href="#DejaVuSans-30" x="127.246094"/>
      <use xlink:href="#DejaVuSans-30" x="190.869141"/>
     </g>
    </g>
   </g>
   <g id="xtick_12">
    <g id="line2d_14">
     <path d="M 155.370962 268.9305 
L 151.700947 270.626311 
" style="fill: none; stroke: #000000; stroke-width: 0.8; stroke-linecap: square"/>
    </g>
    <g id="text_14">
     <!-- 6000 -->
     <g transform="translate(131.18282 291.603084)scale(0.1 -0.1)">
      <use xlink:href="#DejaVuSans-36"/>
      <use xlink:href="#DejaVuSans-30" x="63.623047"/>
      <use xlink:href="#DejaVuSans-30" x="127.246094"/>
      <use xlink:href="#DejaVuSans-30" x="190.869141"/>
     </g>
    </g>
   </g>
   <g id="xtick_13">
    <g id="line2d_15">
     <path d="M 127.17599 256.095812 
L 123.506063 257.742485 
" style="fill: none; stroke: #000000; stroke-width: 0.8; stroke-linecap: square"/>
    </g>
    <g id="text_15">
     <!-- 8000 -->
     <g transform="translate(103.055672 278.502349)scale(0.1 -0.1)">
      <use xlink:href="#DejaVuSans-38"/>
      <use xlink:href="#DejaVuSans-30" x="63.623047"/>
      <use xlink:href="#DejaVuSans-30" x="127.246094"/>
      <use xlink:href="#DejaVuSans-30" x="190.869141"/>
     </g>
    </g>
   </g>
   <g id="xtick_14">
    <g id="line2d_16">
     <path d="M 99.791398 243.630019 
L 96.123074 245.22966 
" style="fill: none; stroke: #000000; stroke-width: 0.8; stroke-linecap: square"/>
    </g>
    <g id="text_16">
     <!-- 10000 -->
     <g transform="translate(72.558529 265.779471)scale(0.1 -0.1)">
      <use xlink:href="#DejaVuSans-31"/>
      <use xlink:href="#DejaVuSans-30" x="63.623047"/>
      <use xlink:href="#DejaVuSans-30" x="127.246094"/>
      <use xlink:href="#DejaVuSans-30" x="190.869141"/>
      <use xlink:href="#DejaVuSans-30" x="254.492188"/>
     </g>
    </g>
   </g>
  </g>
  <g id="axis3d_3">
   <g id="line2d_17">
    <path d="M 89.755546 240.144945 
L 84.381247 97.030378 
" style="fill: none; stroke: #000000; stroke-width: 0.8; stroke-linecap: square"/>
   </g>
   <g id="text_17">
    <!-- Runtime (s) -->
    <g transform="translate(39.414161 141.47124)rotate(-272.150585)scale(0.1 -0.1)">
     <defs>
      <path id="DejaVuSans-52" d="M 2841 2188 
Q 3044 2119 3236 1894 
Q 3428 1669 3622 1275 
L 4263 0 
L 3584 0 
L 2988 1197 
Q 2756 1666 2539 1819 
Q 2322 1972 1947 1972 
L 1259 1972 
L 1259 0 
L 628 0 
L 628 4666 
L 2053 4666 
Q 2853 4666 3247 4331 
Q 3641 3997 3641 3322 
Q 3641 2881 3436 2590 
Q 3231 2300 2841 2188 
z
M 1259 4147 
L 1259 2491 
L 2053 2491 
Q 2509 2491 2742 2702 
Q 2975 2913 2975 3322 
Q 2975 3731 2742 3939 
Q 2509 4147 2053 4147 
L 1259 4147 
z
" transform="scale(0.015625)"/>
      <path id="DejaVuSans-75" d="M 544 1381 
L 544 3500 
L 1119 3500 
L 1119 1403 
Q 1119 906 1312 657 
Q 1506 409 1894 409 
Q 2359 409 2629 706 
Q 2900 1003 2900 1516 
L 2900 3500 
L 3475 3500 
L 3475 0 
L 2900 0 
L 2900 538 
Q 2691 219 2414 64 
Q 2138 -91 1772 -91 
Q 1169 -91 856 284 
Q 544 659 544 1381 
z
M 1991 3584 
L 1991 3584 
z
" transform="scale(0.015625)"/>
      <path id="DejaVuSans-6e" d="M 3513 2113 
L 3513 0 
L 2938 0 
L 2938 2094 
Q 2938 2591 2744 2837 
Q 2550 3084 2163 3084 
Q 1697 3084 1428 2787 
Q 1159 2491 1159 1978 
L 1159 0 
L 581 0 
L 581 3500 
L 1159 3500 
L 1159 2956 
Q 1366 3272 1645 3428 
Q 1925 3584 2291 3584 
Q 2894 3584 3203 3211 
Q 3513 2838 3513 2113 
z
" transform="scale(0.015625)"/>
      <path id="DejaVuSans-69" d="M 603 3500 
L 1178 3500 
L 1178 0 
L 603 0 
L 603 3500 
z
M 603 4863 
L 1178 4863 
L 1178 4134 
L 603 4134 
L 603 4863 
z
" transform="scale(0.015625)"/>
      <path id="DejaVuSans-6d" d="M 3328 2828 
Q 3544 3216 3844 3400 
Q 4144 3584 4550 3584 
Q 5097 3584 5394 3201 
Q 5691 2819 5691 2113 
L 5691 0 
L 5113 0 
L 5113 2094 
Q 5113 2597 4934 2840 
Q 4756 3084 4391 3084 
Q 3944 3084 3684 2787 
Q 3425 2491 3425 1978 
L 3425 0 
L 2847 0 
L 2847 2094 
Q 2847 2600 2669 2842 
Q 2491 3084 2119 3084 
Q 1678 3084 1418 2786 
Q 1159 2488 1159 1978 
L 1159 0 
L 581 0 
L 581 3500 
L 1159 3500 
L 1159 2956 
Q 1356 3278 1631 3431 
Q 1906 3584 2284 3584 
Q 2666 3584 2933 3390 
Q 3200 3197 3328 2828 
z
" transform="scale(0.015625)"/>
      <path id="DejaVuSans-20" transform="scale(0.015625)"/>
      <path id="DejaVuSans-28" d="M 1984 4856 
Q 1566 4138 1362 3434 
Q 1159 2731 1159 2009 
Q 1159 1288 1364 580 
Q 1569 -128 1984 -844 
L 1484 -844 
Q 1016 -109 783 600 
Q 550 1309 550 2009 
Q 550 2706 781 3412 
Q 1013 4119 1484 4856 
L 1984 4856 
z
" transform="scale(0.015625)"/>
      <path id="DejaVuSans-29" d="M 513 4856 
L 1013 4856 
Q 1481 4119 1714 3412 
Q 1947 2706 1947 2009 
Q 1947 1309 1714 600 
Q 1481 -109 1013 -844 
L 513 -844 
Q 928 -128 1133 580 
Q 1338 1288 1338 2009 
Q 1338 2731 1133 3434 
Q 928 4138 513 4856 
z
" transform="scale(0.015625)"/>
     </defs>
     <use xlink:href="#DejaVuSans-52"/>
     <use xlink:href="#DejaVuSans-75" x="64.982422"/>
     <use xlink:href="#DejaVuSans-6e" x="128.361328"/>
     <use xlink:href="#DejaVuSans-74" x="191.740234"/>
     <use xlink:href="#DejaVuSans-69" x="230.949219"/>
     <use xlink:href="#DejaVuSans-6d" x="258.732422"/>
     <use xlink:href="#DejaVuSans-65" x="356.144531"/>
     <use xlink:href="#DejaVuSans-20" x="417.667969"/>
     <use xlink:href="#DejaVuSans-28" x="449.455078"/>
     <use xlink:href="#DejaVuSans-73" x="488.46875"/>
     <use xlink:href="#DejaVuSans-29" x="540.568359"/>
    </g>
   </g>
   <g id="Line3DCollection_3">
    <path d="M 89.334976 228.945397 
L 231.480158 168.348175 
L 379.684428 225.840931 
" style="fill: none; stroke: #b0b0b0; stroke-width: 0.8"/>
    <path d="M 88.737954 213.047031 
L 231.4676 153.369963 
L 380.277038 209.988846 
" style="fill: none; stroke: #b0b0b0; stroke-width: 0.8"/>
    <path d="M 88.13601 197.017605 
L 231.454945 138.27725 
L 380.874515 194.006571 
" style="fill: none; stroke: #b0b0b0; stroke-width: 0.8"/>
    <path d="M 87.529083 180.855494 
L 231.442194 123.068719 
L 381.476919 177.892495 
" style="fill: none; stroke: #b0b0b0; stroke-width: 0.8"/>
    <path d="M 86.917112 164.559043 
L 231.429344 107.743031 
L 382.084312 161.644982 
" style="fill: none; stroke: #b0b0b0; stroke-width: 0.8"/>
    <path d="M 86.300033 148.12657 
L 231.416394 92.298826 
L 382.696755 145.262366 
" style="fill: none; stroke: #b0b0b0; stroke-width: 0.8"/>
    <path d="M 85.677781 131.556364 
L 231.403344 76.734726 
L 383.314312 128.742956 
" style="fill: none; stroke: #b0b0b0; stroke-width: 0.8"/>
    <path d="M 85.050292 114.846687 
L 231.390193 61.049327 
L 383.937047 112.085031 
" style="fill: none; stroke: #b0b0b0; stroke-width: 0.8"/>
   </g>
   <g id="xtick_15">
    <g id="line2d_18">
     <path d="M 90.559757 228.423267 
L 86.880839 229.991609 
" style="fill: none; stroke: #000000; stroke-width: 0.8; stroke-linecap: square"/>
    </g>
    <g id="text_18">
     <!-- 0.12 -->
     <g transform="translate(58.336991 236.756237)scale(0.1 -0.1)">
      <defs>
       <path id="DejaVuSans-2e" d="M 684 794 
L 1344 794 
L 1344 0 
L 684 0 
L 684 794 
z
" transform="scale(0.015625)"/>
      </defs>
      <use xlink:href="#DejaVuSans-30"/>
      <use xlink:href="#DejaVuSans-2e" x="63.623047"/>
      <use xlink:href="#DejaVuSans-31" x="95.410156"/>
      <use xlink:href="#DejaVuSans-32" x="159.033203"/>
     </g>
    </g>
   </g>
   <g id="xtick_16">
    <g id="line2d_19">
     <path d="M 89.968132 212.532678 
L 86.272984 214.077666 
" style="fill: none; stroke: #000000; stroke-width: 0.8; stroke-linecap: square"/>
    </g>
    <g id="text_19">
     <!-- 0.14 -->
     <g transform="translate(57.658253 220.854707)scale(0.1 -0.1)">
      <use xlink:href="#DejaVuSans-30"/>
      <use xlink:href="#DejaVuSans-2e" x="63.623047"/>
      <use xlink:href="#DejaVuSans-31" x="95.410156"/>
      <use xlink:href="#DejaVuSans-34" x="159.033203"/>
     </g>
    </g>
   </g>
   <g id="xtick_17">
    <g id="line2d_20">
     <path d="M 89.371632 196.511176 
L 85.660112 198.032371 
" style="fill: none; stroke: #000000; stroke-width: 0.8; stroke-linecap: square"/>
    </g>
    <g id="text_20">
     <!-- 0.16 -->
     <g transform="translate(56.973918 204.822059)scale(0.1 -0.1)">
      <use xlink:href="#DejaVuSans-30"/>
      <use xlink:href="#DejaVuSans-2e" x="63.623047"/>
      <use xlink:href="#DejaVuSans-31" x="95.410156"/>
      <use xlink:href="#DejaVuSans-36" x="159.033203"/>
     </g>
    </g>
   </g>
   <g id="xtick_18">
    <g id="line2d_21">
     <path d="M 88.770198 180.357138 
L 85.04216 181.854092 
" style="fill: none; stroke: #000000; stroke-width: 0.8; stroke-linecap: square"/>
    </g>
    <g id="text_21">
     <!-- 0.18 -->
     <g transform="translate(56.283918 188.656665)scale(0.1 -0.1)">
      <use xlink:href="#DejaVuSans-30"/>
      <use xlink:href="#DejaVuSans-2e" x="63.623047"/>
      <use xlink:href="#DejaVuSans-31" x="95.410156"/>
      <use xlink:href="#DejaVuSans-38" x="159.033203"/>
     </g>
    </g>
   </g>
   <g id="xtick_19">
    <g id="line2d_22">
     <path d="M 88.163768 164.068911 
L 84.419065 165.541168 
" style="fill: none; stroke: #000000; stroke-width: 0.8; stroke-linecap: square"/>
    </g>
    <g id="text_22">
     <!-- 0.20 -->
     <g transform="translate(55.58818 172.356868)scale(0.1 -0.1)">
      <use xlink:href="#DejaVuSans-30"/>
      <use xlink:href="#DejaVuSans-2e" x="63.623047"/>
      <use xlink:href="#DejaVuSans-32" x="95.410156"/>
      <use xlink:href="#DejaVuSans-30" x="159.033203"/>
     </g>
    </g>
   </g>
   <g id="xtick_20">
    <g id="line2d_23">
     <path d="M 87.55228 147.644818 
L 83.790763 149.091911 
" style="fill: none; stroke: #000000; stroke-width: 0.8; stroke-linecap: square"/>
    </g>
    <g id="text_23">
     <!-- 0.22 -->
     <g transform="translate(54.886634 155.920987)scale(0.1 -0.1)">
      <use xlink:href="#DejaVuSans-30"/>
      <use xlink:href="#DejaVuSans-2e" x="63.623047"/>
      <use xlink:href="#DejaVuSans-32" x="95.410156"/>
      <use xlink:href="#DejaVuSans-32" x="159.033203"/>
     </g>
    </g>
   </g>
   <g id="xtick_21">
    <g id="line2d_24">
     <path d="M 86.93567 131.083149 
L 83.157188 132.504606 
" style="fill: none; stroke: #000000; stroke-width: 0.8; stroke-linecap: square"/>
    </g>
    <g id="text_24">
     <!-- 0.24 -->
     <g transform="translate(54.179206 139.347309)scale(0.1 -0.1)">
      <use xlink:href="#DejaVuSans-30"/>
      <use xlink:href="#DejaVuSans-2e" x="63.623047"/>
      <use xlink:href="#DejaVuSans-32" x="95.410156"/>
      <use xlink:href="#DejaVuSans-34" x="159.033203"/>
     </g>
    </g>
   </g>
   <g id="xtick_22">
    <g id="line2d_25">
     <path d="M 86.313872 114.382171 
L 82.518273 115.777506 
" style="fill: none; stroke: #000000; stroke-width: 0.8; stroke-linecap: square"/>
    </g>
    <g id="text_25">
     <!-- 0.26 -->
     <g transform="translate(53.465823 122.634094)scale(0.1 -0.1)">
      <use xlink:href="#DejaVuSans-30"/>
      <use xlink:href="#DejaVuSans-2e" x="63.623047"/>
      <use xlink:href="#DejaVuSans-32" x="95.410156"/>
      <use xlink:href="#DejaVuSans-36" x="159.033203"/>
     </g>
    </g>
   </g>
  </g>
  <g id="axes_1">
   <g id="Poly3DCollection_1">
    <path d="M 238.265167 99.622879 
L 245.753321 78.053155 
L 231.801632 77.683184 
L 224.28488 62.110692 
z
" clip-path="url(#p439533d23e)" style="fill: #cf453c"/>
    <path d="M 230.757222 93.083127 
L 238.265167 99.622879 
L 224.28488 62.110692 
L 216.83352 90.296076 
z
" clip-path="url(#p439533d23e)" style="fill: #da5a49"/>
    <path d="M 252.320172 112.490855 
L 259.784468 101.891273 
L 245.753321 78.053155 
L 238.265167 99.622879 
z
" clip-path="url(#p439533d23e)" style="fill: #ef886b"/>
    <path d="M 223.203306 104.466232 
L 230.757222 93.083127 
L 216.83352 90.296076 
L 209.268237 95.32649 
z
" clip-path="url(#p439533d23e)" style="fill: #ea7b60"/>
    <path d="M 244.845552 114.168402 
L 252.320172 112.490855 
L 238.265167 99.622879 
L 230.757222 93.083127 
z
" clip-path="url(#p439533d23e)" style="fill: #f4987a"/>
    <path d="M 215.568844 105.500059 
L 223.203306 104.466232 
L 209.268237 95.32649 
L 201.61351 96.143627 
z
" clip-path="url(#p439533d23e)" style="fill: #ed8366"/>
    <path d="M 266.622176 112.227024 
L 274.089517 104.34719 
L 259.784468 101.891273 
L 252.320172 112.490855 
z
" clip-path="url(#p439533d23e)" style="fill: #f59c7d"/>
    <path d="M 237.306346 111.920105 
L 244.845552 114.168402 
L 230.757222 93.083127 
L 223.203306 104.466232 
z
" clip-path="url(#p439533d23e)" style="fill: #f29072"/>
    <path d="M 259.143744 114.796792 
L 266.622176 112.227024 
L 252.320172 112.490855 
L 244.845552 114.168402 
z
" clip-path="url(#p439533d23e)" style="fill: #f7a688"/>
    <path d="M 207.917083 114.535815 
L 215.568844 105.500059 
L 201.61351 96.143627 
L 193.854509 93.763543 
z
" clip-path="url(#p439533d23e)" style="fill: #ec7f63"/>
    <path d="M 229.69297 116.63907 
L 237.306346 111.920105 
L 223.203306 104.466232 
L 215.568844 105.500059 
z
" clip-path="url(#p439533d23e)" style="fill: #f39475"/>
    <path d="M 281.002546 125.993304 
L 288.5519 111.525801 
L 274.089517 104.34719 
L 266.622176 112.227024 
z
" clip-path="url(#p439533d23e)" style="fill: #f59f80"/>
    <path d="M 251.582463 121.772038 
L 259.143744 114.796792 
L 244.845552 114.168402 
L 237.306346 111.920105 
z
" clip-path="url(#p439533d23e)" style="fill: #f6a385"/>
    <path d="M 200.166384 116.908521 
L 207.917083 114.535815 
L 193.854509 93.763543 
L 186.183727 105.641356 
z
" clip-path="url(#p439533d23e)" style="fill: #ef886b"/>
    <path d="M 273.467878 136.972908 
L 281.002546 125.993304 
L 266.622176 112.227024 
L 259.143744 114.796792 
z
" clip-path="url(#p439533d23e)" style="fill: #f7b497"/>
    <path d="M 222.026223 122.622728 
L 229.69297 116.63907 
L 215.568844 105.500059 
L 207.917083 114.535815 
z
" clip-path="url(#p439533d23e)" style="fill: #f59d7e"/>
    <path d="M 295.436469 145.633273 
L 302.904946 136.220821 
L 288.5519 111.525801 
L 281.002546 125.993304 
z
" clip-path="url(#p439533d23e)" style="fill: #f5c4ac"/>
    <path d="M 243.956817 135.647109 
L 251.582463 121.772038 
L 237.306346 111.920105 
L 229.69297 116.63907 
z
" clip-path="url(#p439533d23e)" style="fill: #f7ad90"/>
    <path d="M 192.27455 112.408016 
L 200.166384 116.908521 
L 186.183727 105.641356 
L 178.283896 103.449548 
z
" clip-path="url(#p439533d23e)" style="fill: #ed8366"/>
    <path d="M 214.273213 122.219808 
L 222.026223 122.622728 
L 207.917083 114.535815 
L 200.166384 116.908521 
z
" clip-path="url(#p439533d23e)" style="fill: #f6a283"/>
    <path d="M 266.019498 132.822282 
L 273.467878 136.972908 
L 259.143744 114.796792 
L 251.582463 121.772038 
z
" clip-path="url(#p439533d23e)" style="fill: #f7b79b"/>
    <path d="M 288.027006 147.816431 
L 295.436469 145.633273 
L 281.002546 125.993304 
L 273.467878 136.972908 
z
" clip-path="url(#p439533d23e)" style="fill: #edd2c3"/>
    <path d="M 236.312632 139.197171 
L 243.956817 135.647109 
L 229.69297 116.63907 
L 222.026223 122.622728 
z
" clip-path="url(#p439533d23e)" style="fill: #f7ba9f"/>
    <path d="M 310.149021 156.078295 
L 317.637494 145.876482 
L 302.904946 136.220821 
L 295.436469 145.633273 
z
" clip-path="url(#p439533d23e)" style="fill: #e3d9d3"/>
    <path d="M 258.372768 146.67407 
L 266.019498 132.822282 
L 251.582463 121.772038 
L 243.956817 135.647109 
z
" clip-path="url(#p439533d23e)" style="fill: #f5c4ac"/>
    <path d="M 184.421617 118.598975 
L 192.27455 112.408016 
L 178.283896 103.449548 
L 170.443405 110.317017 
z
" clip-path="url(#p439533d23e)" style="fill: #eb7d62"/>
    <path d="M 280.409028 162.29048 
L 288.027006 147.816431 
L 273.467878 136.972908 
L 266.019498 132.822282 
z
" clip-path="url(#p439533d23e)" style="fill: #e8d6cc"/>
    <path d="M 206.525665 133.720595 
L 214.273213 122.219808 
L 200.166384 116.908521 
L 192.27455 112.408016 
z
" clip-path="url(#p439533d23e)" style="fill: #f59f80"/>
    <path d="M 302.549473 170.648169 
L 310.149021 156.078295 
L 295.436469 145.633273 
L 288.027006 147.816431 
z
" clip-path="url(#p439533d23e)" style="fill: #d4dbe6"/>
    <path d="M 228.602852 141.125183 
L 236.312632 139.197171 
L 222.026223 122.622728 
L 214.273213 122.219808 
z
" clip-path="url(#p439533d23e)" style="fill: #f7b99e"/>
    <path d="M 250.737838 151.904939 
L 258.372768 146.67407 
L 243.956817 135.647109 
L 236.312632 139.197171 
z
" clip-path="url(#p439533d23e)" style="fill: #edd2c3"/>
    <path d="M 295.131996 172.067516 
L 302.549473 170.648169 
L 288.027006 147.816431 
L 280.409028 162.29048 
z
" clip-path="url(#p439533d23e)" style="fill: #c6d6f1"/>
    <path d="M 325.01818 167.375799 
L 332.475226 158.607455 
L 317.637494 145.876482 
L 310.149021 156.078295 
z
" clip-path="url(#p439533d23e)" style="fill: #d5dbe5"/>
    <path d="M 176.497197 123.648802 
L 184.421617 118.598975 
L 170.443405 110.317017 
L 162.274737 101.924053 
z
" clip-path="url(#p439533d23e)" style="fill: #e97a5f"/>
    <path d="M 273.001009 152.966544 
L 280.409028 162.29048 
L 266.019498 132.822282 
L 258.372768 146.67407 
z
" clip-path="url(#p439533d23e)" style="fill: #e6d7cf"/>
    <path d="M 198.655109 135.357093 
L 206.525665 133.720595 
L 192.27455 112.408016 
L 184.421617 118.598975 
z
" clip-path="url(#p439533d23e)" style="fill: #f5a081"/>
    <path d="M 220.826019 144.00273 
L 228.602852 141.125183 
L 214.273213 122.219808 
L 206.525665 133.720595 
z
" clip-path="url(#p439533d23e)" style="fill: #f7bca1"/>
    <path d="M 243.046795 156.755552 
L 250.737838 151.904939 
L 236.312632 139.197171 
L 228.602852 141.125183 
z
" clip-path="url(#p439533d23e)" style="fill: #ebd3c6"/>
    <path d="M 317.720065 166.637522 
L 325.01818 167.375799 
L 310.149021 156.078295 
L 302.549473 170.648169 
z
" clip-path="url(#p439533d23e)" style="fill: #c7d7f0"/>
    <path d="M 287.568111 179.151818 
L 295.131996 172.067516 
L 280.409028 162.29048 
L 273.001009 152.966544 
z
" clip-path="url(#p439533d23e)" style="fill: #c6d6f1"/>
    <path d="M 265.357714 159.510541 
L 273.001009 152.966544 
L 258.372768 146.67407 
L 250.737838 151.904939 
z
" clip-path="url(#p439533d23e)" style="fill: #e4d9d2"/>
    <path d="M 168.454629 125.225685 
L 176.497197 123.648802 
L 162.274737 101.924053 
L 154.300705 108.857894 
z
" clip-path="url(#p439533d23e)" style="fill: #e67259"/>
    <path d="M 190.680291 134.206105 
L 198.655109 135.357093 
L 184.421617 118.598975 
L 176.497197 123.648802 
z
" clip-path="url(#p439533d23e)" style="fill: #f5a081"/>
    <path d="M 212.985796 147.662868 
L 220.826019 144.00273 
L 206.525665 133.720595 
L 198.655109 135.357093 
z
" clip-path="url(#p439533d23e)" style="fill: #f5c0a7"/>
    <path d="M 235.296508 161.392456 
L 243.046795 156.755552 
L 228.602852 141.125183 
L 220.826019 144.00273 
z
" clip-path="url(#p439533d23e)" style="fill: #ead4c8"/>
    <path d="M 310.105936 178.30913 
L 317.720065 166.637522 
L 302.549473 170.648169 
L 295.131996 172.067516 
z
" clip-path="url(#p439533d23e)" style="fill: #bcd2f7"/>
    <path d="M 340.139629 175.7591 
L 347.932757 155.374654 
L 332.475226 158.607455 
L 325.01818 167.375799 
z
" clip-path="url(#p439533d23e)" style="fill: #cfdaea"/>
    <path d="M 257.629403 171.684555 
L 265.357714 159.510541 
L 250.737838 151.904939 
L 243.046795 156.755552 
z
" clip-path="url(#p439533d23e)" style="fill: #dadce0"/>
    <path d="M 279.954196 186.281847 
L 287.568111 179.151818 
L 273.001009 152.966544 
L 265.357714 159.510541 
z
" clip-path="url(#p439533d23e)" style="fill: #c7d7f0"/>
    <path d="M 160.263125 122.874313 
L 168.454629 125.225685 
L 154.300705 108.857894 
L 146.137087 109.648003 
z
" clip-path="url(#p439533d23e)" style="fill: #e36c55"/>
    <path d="M 182.689983 138.397988 
L 190.680291 134.206105 
L 176.497197 123.648802 
L 168.454629 125.225685 
z
" clip-path="url(#p439533d23e)" style="fill: #f59d7e"/>
    <path d="M 302.470407 189.374693 
L 310.105936 178.30913 
L 295.131996 172.067516 
L 287.568111 179.151818 
z
" clip-path="url(#p439533d23e)" style="fill: #aec9fc"/>
    <path d="M 332.808158 177.704709 
L 340.139629 175.7591 
L 325.01818 167.375799 
L 317.720065 166.637522 
z
" clip-path="url(#p439533d23e)" style="fill: #c4d5f3"/>
    <path d="M 205.06201 148.9333 
L 212.985796 147.662868 
L 198.655109 135.357093 
L 190.680291 134.206105 
z
" clip-path="url(#p439533d23e)" style="fill: #f7bca1"/>
    <path d="M 227.472731 159.306657 
L 235.296508 161.392456 
L 220.826019 144.00273 
L 212.985796 147.662868 
z
" clip-path="url(#p439533d23e)" style="fill: #edd2c3"/>
    <path d="M 249.89445 177.536641 
L 257.629403 171.684555 
L 243.046795 156.755552 
L 235.296508 161.392456 
z
" clip-path="url(#p439533d23e)" style="fill: #d2dbe8"/>
    <path d="M 272.331273 189.13093 
L 279.954196 186.281847 
L 265.357714 159.510541 
L 257.629403 171.684555 
z
" clip-path="url(#p439533d23e)" style="fill: #bbd1f8"/>
    <path d="M 294.944853 191.035877 
L 302.470407 189.374693 
L 287.568111 179.151818 
L 279.954196 186.281847 
z
" clip-path="url(#p439533d23e)" style="fill: #a3c2fe"/>
    <path d="M 325.203037 188.548786 
L 332.808158 177.704709 
L 317.720065 166.637522 
L 310.105936 178.30913 
z
" clip-path="url(#p439533d23e)" style="fill: #bcd2f7"/>
    <path d="M 152.076841 125.235732 
L 160.263125 122.874313 
L 146.137087 109.648003 
L 138.074284 117.863447 
z
" clip-path="url(#p439533d23e)" style="fill: #e26952"/>
    <path d="M 174.502768 133.914694 
L 182.689983 138.397988 
L 168.454629 125.225685 
L 160.263125 122.874313 
z
" clip-path="url(#p439533d23e)" style="fill: #f18f71"/>
    <path d="M 355.829189 172.250052 
L 363.310016 163.576383 
L 347.932757 155.374654 
L 340.139629 175.7591 
z
" clip-path="url(#p439533d23e)" style="fill: #d8dce2"/>
    <path d="M 197.072753 151.337929 
L 205.06201 148.9333 
L 190.680291 134.206105 
L 182.689983 138.397988 
z
" clip-path="url(#p439533d23e)" style="fill: #f7b79b"/>
    <path d="M 242.102133 183.82856 
L 249.89445 177.536641 
L 235.296508 161.392456 
L 227.472731 159.306657 
z
" clip-path="url(#p439533d23e)" style="fill: #d1dae9"/>
    <path d="M 219.609614 170.075614 
L 227.472731 159.306657 
L 212.985796 147.662868 
L 205.06201 148.9333 
z
" clip-path="url(#p439533d23e)" style="fill: #ecd3c5"/>
    <path d="M 264.627084 193.762534 
L 272.331273 189.13093 
L 257.629403 171.684555 
L 249.89445 177.536641 
z
" clip-path="url(#p439533d23e)" style="fill: #b2ccfb"/>
    <path d="M 317.577422 198.690007 
L 325.203037 188.548786 
L 310.105936 178.30913 
L 302.470407 189.374693 
z
" clip-path="url(#p439533d23e)" style="fill: #a3c2fe"/>
    <path d="M 347.824232 197.548825 
L 355.829189 172.250052 
L 340.139629 175.7591 
L 332.808158 177.704709 
z
" clip-path="url(#p439533d23e)" style="fill: #bad0f8"/>
    <path d="M 287.242647 200.503736 
L 294.944853 191.035877 
L 279.954196 186.281847 
L 272.331273 189.13093 
z
" clip-path="url(#p439533d23e)" style="fill: #9dbdff"/>
    <path d="M 143.73809 124.190817 
L 152.076841 125.235732 
L 138.074284 117.863447 
L 129.513163 109.057092 
z
" clip-path="url(#p439533d23e)" style="fill: #da5a49"/>
    <path d="M 211.66029 172.691046 
L 219.609614 170.075614 
L 205.06201 148.9333 
L 197.072753 151.337929 
z
" clip-path="url(#p439533d23e)" style="fill: #ead4c8"/>
    <path d="M 340.581865 195.381348 
L 347.824232 197.548825 
L 332.808158 177.704709 
L 325.203037 188.548786 
z
" clip-path="url(#p439533d23e)" style="fill: #a7c5fe"/>
    <path d="M 256.875362 195.898707 
L 264.627084 193.762534 
L 249.89445 177.536641 
L 242.102133 183.82856 
z
" clip-path="url(#p439533d23e)" style="fill: #aec9fc"/>
    <path d="M 310.043477 202.078619 
L 317.577422 198.690007 
L 302.470407 189.374693 
L 294.944853 191.035877 
z
" clip-path="url(#p439533d23e)" style="fill: #9abbff"/>
    <path d="M 166.399207 140.190455 
L 174.502768 133.914694 
L 160.263125 122.874313 
L 152.076841 125.235732 
z
" clip-path="url(#p439533d23e)" style="fill: #ee8468"/>
    <path d="M 234.252475 177.586449 
L 242.102133 183.82856 
L 227.472731 159.306657 
L 219.609614 170.075614 
z
" clip-path="url(#p439533d23e)" style="fill: #d4dbe6"/>
    <path d="M 188.975608 150.718535 
L 197.072753 151.337929 
L 182.689983 138.397988 
L 174.502768 133.914694 
z
" clip-path="url(#p439533d23e)" style="fill: #f7ad90"/>
    <path d="M 279.560565 204.543682 
L 287.242647 200.503736 
L 272.331273 189.13093 
L 264.627084 193.762534 
z
" clip-path="url(#p439533d23e)" style="fill: #97b8ff"/>
    <path d="M 332.813583 210.723738 
L 340.581865 195.381348 
L 325.203037 188.548786 
L 317.577422 198.690007 
z
" clip-path="url(#p439533d23e)" style="fill: #97b8ff"/>
    <path d="M 302.357176 210.47631 
L 310.043477 202.078619 
L 294.944853 191.035877 
L 287.242647 200.503736 
z
" clip-path="url(#p439533d23e)" style="fill: #92b4fe"/>
    <path d="M 226.331031 187.787998 
L 234.252475 177.586449 
L 219.609614 170.075614 
L 211.66029 172.691046 
z
" clip-path="url(#p439533d23e)" style="fill: #d1dae9"/>
    <path d="M 203.646047 176.225622 
L 211.66029 172.691046 
L 197.072753 151.337929 
L 188.975608 150.718535 
z
" clip-path="url(#p439533d23e)" style="fill: #edd2c3"/>
    <path d="M 249.051071 198.024044 
L 256.875362 195.898707 
L 242.102133 183.82856 
L 234.252475 177.586449 
z
" clip-path="url(#p439533d23e)" style="fill: #b6cefa"/>
    <path d="M 158.106198 139.705796 
L 166.399207 140.190455 
L 152.076841 125.235732 
L 143.73809 124.190817 
z
" clip-path="url(#p439533d23e)" style="fill: #eb7d62"/>
    <path d="M 135.470278 129.585492 
L 143.73809 124.190817 
L 129.513163 109.057092 
L 121.029367 107.259053 
z
" clip-path="url(#p439533d23e)" style="fill: #cc403a"/>
    <path d="M 325.041307 225.410763 
L 332.813583 210.723738 
L 317.577422 198.690007 
L 310.043477 202.078619 
z
" clip-path="url(#p439533d23e)" style="fill: #7ea1fa"/>
    <path d="M 271.791737 210.934952 
L 279.560565 204.543682 
L 264.627084 193.762534 
L 256.875362 195.898707 
z
" clip-path="url(#p439533d23e)" style="fill: #94b6ff"/>
    <path d="M 180.84138 153.714961 
L 188.975608 150.718535 
L 174.502768 133.914694 
L 166.399207 140.190455 
z
" clip-path="url(#p439533d23e)" style="fill: #f7a688"/>
    <path d="M 294.753359 210.483327 
L 302.357176 210.47631 
L 287.242647 200.503736 
L 279.560565 204.543682 
z
" clip-path="url(#p439533d23e)" style="fill: #8badfd"/>
    <path d="M 218.327625 188.410307 
L 226.331031 187.787998 
L 211.66029 172.691046 
L 203.646047 176.225622 
z
" clip-path="url(#p439533d23e)" style="fill: #cedaeb"/>
    <path d="M 195.510973 174.630306 
L 203.646047 176.225622 
L 188.975608 150.718535 
L 180.84138 153.714961 
z
" clip-path="url(#p439533d23e)" style="fill: #f1cdba"/>
    <path d="M 241.148893 202.650821 
L 249.051071 198.024044 
L 234.252475 177.586449 
L 226.331031 187.787998 
z
" clip-path="url(#p439533d23e)" style="fill: #b7cff9"/>
    <path d="M 263.967239 217.282018 
L 271.791737 210.934952 
L 256.875362 195.898707 
L 249.051071 198.024044 
z
" clip-path="url(#p439533d23e)" style="fill: #92b4fe"/>
    <path d="M 149.721447 139.051912 
L 158.106198 139.705796 
L 143.73809 124.190817 
L 135.470278 129.585492 
z
" clip-path="url(#p439533d23e)" style="fill: #e7745b"/>
    <path d="M 126.984788 129.314888 
L 135.470278 129.585492 
L 121.029367 107.259053 
L 112.574431 109.481807 
z
" clip-path="url(#p439533d23e)" style="fill: #c73635"/>
    <path d="M 172.595224 154.221793 
L 180.84138 153.714961 
L 166.399207 140.190455 
L 158.106198 139.705796 
z
" clip-path="url(#p439533d23e)" style="fill: #f6a283"/>
    <path d="M 318.016303 204.069406 
L 325.041307 225.410763 
L 310.043477 202.078619 
L 302.357176 210.47631 
z
" clip-path="url(#p439533d23e)" style="fill: #86a9fc"/>
    <path d="M 287.031386 213.27686 
L 294.753359 210.483327 
L 279.560565 204.543682 
L 271.791737 210.934952 
z
" clip-path="url(#p439533d23e)" style="fill: #8caffe"/>
    <path d="M 233.180447 203.569912 
L 241.148893 202.650821 
L 226.331031 187.787998 
L 218.327625 188.410307 
z
" clip-path="url(#p439533d23e)" style="fill: #b6cefa"/>
    <path d="M 210.223003 185.96145 
L 218.327625 188.410307 
L 203.646047 176.225622 
L 195.510973 174.630306 
z
" clip-path="url(#p439533d23e)" style="fill: #d8dce2"/>
    <path d="M 256.12195 217.024706 
L 263.967239 217.282018 
L 249.051071 198.024044 
L 241.148893 202.650821 
z
" clip-path="url(#p439533d23e)" style="fill: #93b5fe"/>
    <path d="M 187.336111 177.360804 
L 195.510973 174.630306 
L 180.84138 153.714961 
L 172.595224 154.221793 
z
" clip-path="url(#p439533d23e)" style="fill: #f3c8b2"/>
    <path d="M 141.274709 139.594175 
L 149.721447 139.051912 
L 135.470278 129.585492 
L 126.984788 129.314888 
z
" clip-path="url(#p439533d23e)" style="fill: #e36b54"/>
    <path d="M 164.373982 160.846528 
L 172.595224 154.221793 
L 158.106198 139.705796 
L 149.721447 139.051912 
z
" clip-path="url(#p439533d23e)" style="fill: #f59c7d"/>
    <path d="M 310.00199 225.313875 
L 318.016303 204.069406 
L 302.357176 210.47631 
L 294.753359 210.483327 
z
" clip-path="url(#p439533d23e)" style="fill: #8badfd"/>
    <path d="M 118.085305 117.961942 
L 126.984788 129.314888 
L 112.574431 109.481807 
L 103.939587 108.604307 
z
" clip-path="url(#p439533d23e)" style="fill: #b40426"/>
    <path d="M 279.17979 221.20425 
L 287.031386 213.27686 
L 271.791737 210.934952 
L 263.967239 217.282018 
z
" clip-path="url(#p439533d23e)" style="fill: #84a7fc"/>
    <path d="M 302.202181 234.385547 
L 310.00199 225.313875 
L 294.753359 210.483327 
L 287.031386 213.27686 
z
" clip-path="url(#p439533d23e)" style="fill: #7b9ff9"/>
    <path d="M 248.15989 225.983272 
L 256.12195 217.024706 
L 241.148893 202.650821 
L 233.180447 203.569912 
z
" clip-path="url(#p439533d23e)" style="fill: #93b5fe"/>
    <path d="M 179.111161 181.864507 
L 187.336111 177.360804 
L 172.595224 154.221793 
L 164.373982 160.846528 
z
" clip-path="url(#p439533d23e)" style="fill: #f3c8b2"/>
    <path d="M 202.094599 192.162853 
L 210.223003 185.96145 
L 195.510973 174.630306 
L 187.336111 177.360804 
z
" clip-path="url(#p439533d23e)" style="fill: #dddcdc"/>
    <path d="M 225.118791 199.596204 
L 233.180447 203.569912 
L 218.327625 188.410307 
L 210.223003 185.96145 
z
" clip-path="url(#p439533d23e)" style="fill: #c4d5f3"/>
    <path d="M 271.234887 233.587635 
L 279.17979 221.20425 
L 263.967239 217.282018 
L 256.12195 217.024706 
z
" clip-path="url(#p439533d23e)" style="fill: #7a9df8"/>
    <path d="M 155.884803 157.053112 
L 164.373982 160.846528 
L 149.721447 139.051912 
L 141.274709 139.594175 
z
" clip-path="url(#p439533d23e)" style="fill: #f29274"/>
    <path d="M 132.672656 137.463419 
L 141.274709 139.594175 
L 126.984788 129.314888 
L 118.085305 117.961942 
z
" clip-path="url(#p439533d23e)" style="fill: #d1493f"/>
    <path d="M 294.349654 243.881074 
L 302.202181 234.385547 
L 287.031386 213.27686 
L 279.17979 221.20425 
z
" clip-path="url(#p439533d23e)" style="fill: #6f92f3"/>
    <path d="M 193.830408 191.231711 
L 202.094599 192.162853 
L 187.336111 177.360804 
L 179.111161 181.864507 
z
" clip-path="url(#p439533d23e)" style="fill: #dedcdb"/>
    <path d="M 263.339719 234.636253 
L 271.234887 233.587635 
L 256.12195 217.024706 
L 248.15989 225.983272 
z
" clip-path="url(#p439533d23e)" style="fill: #7597f6"/>
    <path d="M 240.165436 223.495584 
L 248.15989 225.983272 
L 233.180447 203.569912 
L 225.118791 199.596204 
z
" clip-path="url(#p439533d23e)" style="fill: #9dbdff"/>
    <path d="M 170.602361 173.209035 
L 179.111161 181.864507 
L 164.373982 160.846528 
L 155.884803 157.053112 
z
" clip-path="url(#p439533d23e)" style="fill: #f6bea4"/>
    <path d="M 216.992258 203.940217 
L 225.118791 199.596204 
L 210.223003 185.96145 
L 202.094599 192.162853 
z
" clip-path="url(#p439533d23e)" style="fill: #cbd8ee"/>
    <path d="M 286.424503 255.417965 
L 294.349654 243.881074 
L 279.17979 221.20425 
L 271.234887 233.587635 
z
" clip-path="url(#p439533d23e)" style="fill: #5a78e4"/>
    <path d="M 147.262618 152.017582 
L 155.884803 157.053112 
L 141.274709 139.594175 
L 132.672656 137.463419 
z
" clip-path="url(#p439533d23e)" style="fill: #e97a5f"/>
    <path d="M 278.493553 264.15919 
L 286.424503 255.417965 
L 271.234887 233.587635 
L 263.339719 234.636253 
z
" clip-path="url(#p439533d23e)" style="fill: #4c66d6"/>
    <path d="M 232.082247 232.615277 
L 240.165436 223.495584 
L 225.118791 199.596204 
L 216.992258 203.940217 
z
" clip-path="url(#p439533d23e)" style="fill: #a2c1ff"/>
    <path d="M 255.383723 231.849499 
L 263.339719 234.636253 
L 248.15989 225.983272 
L 240.165436 223.495584 
z
" clip-path="url(#p439533d23e)" style="fill: #7da0f9"/>
    <path d="M 208.808181 210.059604 
L 216.992258 203.940217 
L 202.094599 192.162853 
L 193.830408 191.231711 
z
" clip-path="url(#p439533d23e)" style="fill: #cbd8ee"/>
    <path d="M 185.459401 189.167101 
L 193.830408 191.231711 
L 179.111161 181.864507 
L 170.602361 173.209035 
z
" clip-path="url(#p439533d23e)" style="fill: #ead5c9"/>
    <path d="M 162.23822 179.232281 
L 170.602361 173.209035 
L 155.884803 157.053112 
L 147.262618 152.017582 
z
" clip-path="url(#p439533d23e)" style="fill: #f7aa8c"/>
    <path d="M 247.245525 254.872574 
L 255.383723 231.849499 
L 240.165436 223.495584 
L 232.082247 232.615277 
z
" clip-path="url(#p439533d23e)" style="fill: #7396f5"/>
    <path d="M 223.918028 230.479361 
L 232.082247 232.615277 
L 216.992258 203.940217 
L 208.808181 210.059604 
z
" clip-path="url(#p439533d23e)" style="fill: #a1c0ff"/>
    <path d="M 270.621586 261.247303 
L 278.493553 264.15919 
L 263.339719 234.636253 
L 255.383723 231.849499 
z
" clip-path="url(#p439533d23e)" style="fill: #5572df"/>
    <path d="M 200.57565 217.824459 
L 208.808181 210.059604 
L 193.830408 191.231711 
L 185.459401 189.167101 
z
" clip-path="url(#p439533d23e)" style="fill: #cdd9ec"/>
    <path d="M 177.050277 191.221255 
L 185.459401 189.167101 
L 170.602361 173.209035 
L 162.23822 179.232281 
z
" clip-path="url(#p439533d23e)" style="fill: #f1cdba"/>
    <path d="M 239.143841 253.239681 
L 247.245525 254.872574 
L 232.082247 232.615277 
L 223.918028 230.479361 
z
" clip-path="url(#p439533d23e)" style="fill: #688aef"/>
    <path d="M 262.513755 277.19717 
L 270.621586 261.247303 
L 255.383723 231.849499 
L 247.245525 254.872574 
z
" clip-path="url(#p439533d23e)" style="fill: #485fd1"/>
    <path d="M 215.665697 230.396446 
L 223.918028 230.479361 
L 208.808181 210.059604 
L 200.57565 217.824459 
z
" clip-path="url(#p439533d23e)" style="fill: #a3c2fe"/>
    <path d="M 192.093052 207.965063 
L 200.57565 217.824459 
L 185.459401 189.167101 
L 177.050277 191.221255 
z
" clip-path="url(#p439533d23e)" style="fill: #d7dce3"/>
    <path d="M 254.480722 274.465359 
L 262.513755 277.19717 
L 247.245525 254.872574 
L 239.143841 253.239681 
z
" clip-path="url(#p439533d23e)" style="fill: #3b4cc0"/>
    <path d="M 230.949196 254.987068 
L 239.143841 253.239681 
L 223.918028 230.479361 
L 215.665697 230.396446 
z
" clip-path="url(#p439533d23e)" style="fill: #7699f6"/>
    <path d="M 207.339683 232.757984 
L 215.665697 230.396446 
L 200.57565 217.824459 
L 192.093052 207.965063 
z
" clip-path="url(#p439533d23e)" style="fill: #aec9fc"/>
    <path d="M 246.320803 280.236002 
L 254.480722 274.465359 
L 239.143841 253.239681 
L 230.949196 254.987068 
z
" clip-path="url(#p439533d23e)" style="fill: #4358cb"/>
    <path d="M 222.673995 257.628616 
L 230.949196 254.987068 
L 215.665697 230.396446 
L 207.339683 232.757984 
z
" clip-path="url(#p439533d23e)" style="fill: #7da0f9"/>
    <path d="M 238.105004 273.984742 
L 246.320803 280.236002 
L 230.949196 254.987068 
L 222.673995 257.628616 
z
" clip-path="url(#p439533d23e)" style="fill: #4b64d5"/>
   </g>
   <g id="Path3DCollection_1">
    <defs>
     <path id="mf27ccff7bb" d="M 0 2.236068 
C 0.593012 2.236068 1.161816 2.000462 1.581139 1.581139 
C 2.000462 1.161816 2.236068 0.593012 2.236068 0 
C 2.236068 -0.593012 2.000462 -1.161816 1.581139 -1.581139 
C 1.161816 -2.000462 0.593012 -2.236068 0 -2.236068 
C -0.593012 -2.236068 -1.161816 -2.000462 -1.581139 -1.581139 
C -2.000462 -1.161816 -2.236068 -0.593012 -2.236068 0 
C -2.236068 0.593012 -2.000462 1.161816 -1.581139 1.581139 
C -1.161816 2.000462 -0.593012 2.236068 0 2.236068 
z
" style="stroke: #000000"/>
    </defs>
    <g clip-path="url(#p439533d23e)">
     <use xlink:href="#mf27ccff7bb" x="186.173981" y="104.839887" style="stroke: #000000"/>
     <use xlink:href="#mf27ccff7bb" x="207.91169" y="113.735188" style="stroke: #000000"/>
     <use xlink:href="#mf27ccff7bb" x="236.312943" y="138.393015" style="stroke: #000000"/>
     <use xlink:href="#mf27ccff7bb" x="206.519915" y="132.912974" style="stroke: #000000"/>
     <use xlink:href="#mf27ccff7bb" x="219.60647" y="169.260721" style="stroke: #000000"/>
     <use xlink:href="#mf27ccff7bb" x="242.10365" y="183.016458" style="stroke: #000000"/>
     <use xlink:href="#mf27ccff7bb" x="264.633277" y="192.951639" style="stroke: #000000"/>
     <use xlink:href="#mf27ccff7bb" x="248.162728" y="225.161413" style="stroke: #000000"/>
     <use xlink:href="#mf27ccff7bb" x="247.248202" y="254.046611" style="stroke: #000000"/>
     <use xlink:href="#mf27ccff7bb" x="262.519731" y="276.373155" style="stroke: #000000"/>
    </g>
   </g>
   <g id="legend_1">
    <g id="patch_6">
     <path d="M 271.1 33.5 
L 385.4 33.5 
Q 387.4 33.5 387.4 31.5 
L 387.4 17.8 
Q 387.4 15.8 385.4 15.8 
L 271.1 15.8 
Q 269.1 15.8 269.1 17.8 
L 269.1 31.5 
Q 269.1 33.5 271.1 33.5 
z
" style="fill: #ffffff; opacity: 0.8; stroke: #cccccc; stroke-linejoin: miter"/>
    </g>
    <g id="Path3DCollection_2">
     <g>
      <use xlink:href="#mf27ccff7bb" x="283.1" y="24.775" style="stroke: #000000"/>
     </g>
    </g>
    <g id="text_26">
     <!-- optimal for $N_{rows}$ -->
     <g transform="translate(301.1 27.4)scale(0.1 -0.1)">
      <defs>
       <path id="DejaVuSans-70" d="M 1159 525 
L 1159 -1331 
L 581 -1331 
L 581 3500 
L 1159 3500 
L 1159 2969 
Q 1341 3281 1617 3432 
Q 1894 3584 2278 3584 
Q 2916 3584 3314 3078 
Q 3713 2572 3713 1747 
Q 3713 922 3314 415 
Q 2916 -91 2278 -91 
Q 1894 -91 1617 61 
Q 1341 213 1159 525 
z
M 3116 1747 
Q 3116 2381 2855 2742 
Q 2594 3103 2138 3103 
Q 1681 3103 1420 2742 
Q 1159 2381 1159 1747 
Q 1159 1113 1420 752 
Q 1681 391 2138 391 
Q 2594 391 2855 752 
Q 3116 1113 3116 1747 
z
" transform="scale(0.015625)"/>
       <path id="DejaVuSans-6c" d="M 603 4863 
L 1178 4863 
L 1178 0 
L 603 0 
L 603 4863 
z
" transform="scale(0.015625)"/>
       <path id="DejaVuSans-66" d="M 2375 4863 
L 2375 4384 
L 1825 4384 
Q 1516 4384 1395 4259 
Q 1275 4134 1275 3809 
L 1275 3500 
L 2222 3500 
L 2222 3053 
L 1275 3053 
L 1275 0 
L 697 0 
L 697 3053 
L 147 3053 
L 147 3500 
L 697 3500 
L 697 3744 
Q 697 4328 969 4595 
Q 1241 4863 1831 4863 
L 2375 4863 
z
" transform="scale(0.015625)"/>
       <path id="DejaVuSans-Oblique-4e" d="M 1081 4666 
L 1931 4666 
L 3219 666 
L 4000 4666 
L 4616 4666 
L 3706 0 
L 2853 0 
L 1569 4025 
L 788 0 
L 172 0 
L 1081 4666 
z
" transform="scale(0.015625)"/>
       <path id="DejaVuSans-Oblique-72" d="M 2853 2969 
Q 2766 3016 2653 3041 
Q 2541 3066 2413 3066 
Q 1953 3066 1609 2717 
Q 1266 2369 1153 1784 
L 800 0 
L 225 0 
L 909 3500 
L 1484 3500 
L 1375 2956 
Q 1603 3259 1920 3421 
Q 2238 3584 2597 3584 
Q 2691 3584 2781 3573 
Q 2872 3563 2963 3538 
L 2853 2969 
z
" transform="scale(0.015625)"/>
       <path id="DejaVuSans-Oblique-6f" d="M 1625 -91 
Q 1009 -91 651 289 
Q 294 669 294 1325 
Q 294 1706 417 2101 
Q 541 2497 738 2766 
Q 1047 3184 1428 3384 
Q 1809 3584 2291 3584 
Q 2888 3584 3255 3212 
Q 3622 2841 3622 2241 
Q 3622 1825 3500 1412 
Q 3378 1000 3181 728 
Q 2875 309 2494 109 
Q 2113 -91 1625 -91 
z
M 891 1344 
Q 891 869 1089 633 
Q 1288 397 1691 397 
Q 2269 397 2648 901 
Q 3028 1406 3028 2181 
Q 3028 2634 2825 2865 
Q 2622 3097 2228 3097 
Q 1903 3097 1650 2945 
Q 1397 2794 1197 2484 
Q 1050 2253 970 1956 
Q 891 1659 891 1344 
z
" transform="scale(0.015625)"/>
       <path id="DejaVuSans-Oblique-77" d="M 544 3500 
L 1113 3500 
L 1259 684 
L 2566 3500 
L 3231 3500 
L 3425 684 
L 4666 3500 
L 5241 3500 
L 3641 0 
L 2969 0 
L 2797 2900 
L 1459 0 
L 781 0 
L 544 3500 
z
" transform="scale(0.015625)"/>
       <path id="DejaVuSans-Oblique-73" d="M 3200 3397 
L 3091 2853 
Q 2863 2978 2609 3040 
Q 2356 3103 2088 3103 
Q 1634 3103 1373 2948 
Q 1113 2794 1113 2528 
Q 1113 2219 1719 2053 
Q 1766 2041 1788 2034 
L 1972 1978 
Q 2547 1819 2739 1644 
Q 2931 1469 2931 1166 
Q 2931 609 2489 259 
Q 2047 -91 1331 -91 
Q 1053 -91 747 -37 
Q 441 16 72 128 
L 184 722 
Q 500 559 806 475 
Q 1113 391 1394 391 
Q 1816 391 2080 572 
Q 2344 753 2344 1031 
Q 2344 1331 1650 1516 
L 1591 1531 
L 1394 1581 
Q 956 1697 753 1886 
Q 550 2075 550 2369 
Q 550 2928 970 3256 
Q 1391 3584 2113 3584 
Q 2397 3584 2667 3537 
Q 2938 3491 3200 3397 
z
" transform="scale(0.015625)"/>
      </defs>
      <use xlink:href="#DejaVuSans-6f" transform="translate(0 0.015625)"/>
      <use xlink:href="#DejaVuSans-70" transform="translate(61.181641 0.015625)"/>
      <use xlink:href="#DejaVuSans-74" transform="translate(124.658203 0.015625)"/>
      <use xlink:href="#DejaVuSans-69" transform="translate(163.867188 0.015625)"/>
      <use xlink:href="#DejaVuSans-6d" transform="translate(191.650391 0.015625)"/>
      <use xlink:href="#DejaVuSans-61" transform="translate(289.0625 0.015625)"/>
      <use xlink:href="#DejaVuSans-6c" transform="translate(350.341797 0.015625)"/>
      <use xlink:href="#DejaVuSans-20" transform="translate(378.125 0.015625)"/>
      <use xlink:href="#DejaVuSans-66" transform="translate(409.912109 0.015625)"/>
      <use xlink:href="#DejaVuSans-6f" transform="translate(445.117188 0.015625)"/>
      <use xlink:href="#DejaVuSans-72" transform="translate(506.298828 0.015625)"/>
      <use xlink:href="#DejaVuSans-20" transform="translate(547.412109 0.015625)"/>
      <use xlink:href="#DejaVuSans-Oblique-4e" transform="translate(579.199219 0.015625)"/>
      <use xlink:href="#DejaVuSans-Oblique-72" transform="translate(654.003906 -16.390625)scale(0.7)"/>
      <use xlink:href="#DejaVuSans-Oblique-6f" transform="translate(682.783203 -16.390625)scale(0.7)"/>
      <use xlink:href="#DejaVuSans-Oblique-77" transform="translate(725.610352 -16.390625)scale(0.7)"/>
      <use xlink:href="#DejaVuSans-Oblique-73" transform="translate(782.861328 -16.390625)scale(0.7)"/>
     </g>
    </g>
   </g>
  </g>
 </g>
 <defs>
  <clipPath id="p439533d23e">
   <rect x="68.4" y="10.8" width="324" height="324"/>
  </clipPath>
 </defs>
</svg>
