<?xml version="1.0" encoding="utf-8" standalone="no"?>
<!DOCTYPE svg PUBLIC "-//W3C//DTD SVG 1.1//EN"
  "http://www.w3.org/Graphics/SVG/1.1/DTD/svg11.dtd">
<svg xmlns:xlink="http://www.w3.org/1999/xlink" width="460.8pt" height="345.6pt" viewBox="0 0 460.8 345.6" xmlns="http://www.w3.org/2000/svg" version="1.1">
 <metadata>
  <rdf:RDF xmlns:dc="http://purl.org/dc/elements/1.1/" xmlns:cc="http://creativecommons.org/ns#" xmlns:rdf="http://www.w3.org/1999/02/22-rdf-syntax-ns#">
   <cc:Work>
    <dc:type rdf:resource="http://purl.org/dc/dcmitype/StillImage"/>
    <dc:date>2022-05-31T14:58:21.666760</dc:date>
    <dc:format>image/svg+xml</dc:format>
    <dc:creator>
     <cc:Agent>
      <dc:title>Matplotlib v3.5.2, https://matplotlib.org/</dc:title>
     </cc:Agent>
    </dc:creator>
   </cc:Work>
  </rdf:RDF>
 </metadata>
 <defs>
  <style type="text/css">*{stroke-linejoin: round; stroke-linecap: butt}</style>
 </defs>
 <g id="figure_1">
  <g id="patch_1">
   <path d="M 0 345.6 
L 460.8 345.6 
L 460.8 0 
L 0 0 
z
" style="fill: #ffffff"/>
  </g>
  <g id="axes_1">
   <g id="patch_2">
    <path d="M 44.57 303.64 
L 450 303.64 
L 450 10.8 
L 44.57 10.8 
z
" style="fill: #ffffff"/>
   </g>
   <g id="matplotlib.axis_1">
    <g id="xtick_1">
     <g id="line2d_1">
      <defs>
       <path id="m53fcef80d5" d="M 0 0 
L 0 3.5 
" style="stroke: #000000; stroke-width: 0.8"/>
      </defs>
      <g>
       <use xlink:href="#m53fcef80d5" x="61.553253" y="303.64" style="stroke: #000000; stroke-width: 0.8"/>
      </g>
     </g>
     <g id="text_1">
      <!-- 0 -->
      <g transform="translate(58.372003 318.238437)scale(0.1 -0.1)">
       <defs>
        <path id="DejaVuSans-30" d="M 2034 4250 
Q 1547 4250 1301 3770 
Q 1056 3291 1056 2328 
Q 1056 1369 1301 889 
Q 1547 409 2034 409 
Q 2525 409 2770 889 
Q 3016 1369 3016 2328 
Q 3016 3291 2770 3770 
Q 2525 4250 2034 4250 
z
M 2034 4750 
Q 2819 4750 3233 4129 
Q 3647 3509 3647 2328 
Q 3647 1150 3233 529 
Q 2819 -91 2034 -91 
Q 1250 -91 836 529 
Q 422 1150 422 2328 
Q 422 3509 836 4129 
Q 1250 4750 2034 4750 
z
" transform="scale(0.015625)"/>
       </defs>
       <use xlink:href="#DejaVuSans-30"/>
      </g>
     </g>
    </g>
    <g id="xtick_2">
     <g id="line2d_2">
      <g>
       <use xlink:href="#m53fcef80d5" x="133.822415" y="303.64" style="stroke: #000000; stroke-width: 0.8"/>
      </g>
     </g>
     <g id="text_2">
      <!-- 50 -->
      <g transform="translate(127.459915 318.238437)scale(0.1 -0.1)">
       <defs>
        <path id="DejaVuSans-35" d="M 691 4666 
L 3169 4666 
L 3169 4134 
L 1269 4134 
L 1269 2991 
Q 1406 3038 1543 3061 
Q 1681 3084 1819 3084 
Q 2600 3084 3056 2656 
Q 3513 2228 3513 1497 
Q 3513 744 3044 326 
Q 2575 -91 1722 -91 
Q 1428 -91 1123 -41 
Q 819 9 494 109 
L 494 744 
Q 775 591 1075 516 
Q 1375 441 1709 441 
Q 2250 441 2565 725 
Q 2881 1009 2881 1497 
Q 2881 1984 2565 2268 
Q 2250 2553 1709 2553 
Q 1456 2553 1204 2497 
Q 953 2441 691 2322 
L 691 4666 
z
" transform="scale(0.015625)"/>
       </defs>
       <use xlink:href="#DejaVuSans-35"/>
       <use xlink:href="#DejaVuSans-30" x="63.623047"/>
      </g>
     </g>
    </g>
    <g id="xtick_3">
     <g id="line2d_3">
      <g>
       <use xlink:href="#m53fcef80d5" x="206.091578" y="303.64" style="stroke: #000000; stroke-width: 0.8"/>
      </g>
     </g>
     <g id="text_3">
      <!-- 100 -->
      <g transform="translate(196.547828 318.238437)scale(0.1 -0.1)">
       <defs>
        <path id="DejaVuSans-31" d="M 794 531 
L 1825 531 
L 1825 4091 
L 703 3866 
L 703 4441 
L 1819 4666 
L 2450 4666 
L 2450 531 
L 3481 531 
L 3481 0 
L 794 0 
L 794 531 
z
" transform="scale(0.015625)"/>
       </defs>
       <use xlink:href="#DejaVuSans-31"/>
       <use xlink:href="#DejaVuSans-30" x="63.623047"/>
       <use xlink:href="#DejaVuSans-30" x="127.246094"/>
      </g>
     </g>
    </g>
    <g id="xtick_4">
     <g id="line2d_4">
      <g>
       <use xlink:href="#m53fcef80d5" x="278.36074" y="303.64" style="stroke: #000000; stroke-width: 0.8"/>
      </g>
     </g>
     <g id="text_4">
      <!-- 150 -->
      <g transform="translate(268.81699 318.238437)scale(0.1 -0.1)">
       <use xlink:href="#DejaVuSans-31"/>
       <use xlink:href="#DejaVuSans-35" x="63.623047"/>
       <use xlink:href="#DejaVuSans-30" x="127.246094"/>
      </g>
     </g>
    </g>
    <g id="xtick_5">
     <g id="line2d_5">
      <g>
       <use xlink:href="#m53fcef80d5" x="350.629902" y="303.64" style="stroke: #000000; stroke-width: 0.8"/>
      </g>
     </g>
     <g id="text_5">
      <!-- 200 -->
      <g transform="translate(341.086152 318.238437)scale(0.1 -0.1)">
       <defs>
        <path id="DejaVuSans-32" d="M 1228 531 
L 3431 531 
L 3431 0 
L 469 0 
L 469 531 
Q 828 903 1448 1529 
Q 2069 2156 2228 2338 
Q 2531 2678 2651 2914 
Q 2772 3150 2772 3378 
Q 2772 3750 2511 3984 
Q 2250 4219 1831 4219 
Q 1534 4219 1204 4116 
Q 875 4013 500 3803 
L 500 4441 
Q 881 4594 1212 4672 
Q 1544 4750 1819 4750 
Q 2544 4750 2975 4387 
Q 3406 4025 3406 3419 
Q 3406 3131 3298 2873 
Q 3191 2616 2906 2266 
Q 2828 2175 2409 1742 
Q 1991 1309 1228 531 
z
" transform="scale(0.015625)"/>
       </defs>
       <use xlink:href="#DejaVuSans-32"/>
       <use xlink:href="#DejaVuSans-30" x="63.623047"/>
       <use xlink:href="#DejaVuSans-30" x="127.246094"/>
      </g>
     </g>
    </g>
    <g id="xtick_6">
     <g id="line2d_6">
      <g>
       <use xlink:href="#m53fcef80d5" x="422.899064" y="303.64" style="stroke: #000000; stroke-width: 0.8"/>
      </g>
     </g>
     <g id="text_6">
      <!-- 250 -->
      <g transform="translate(413.355314 318.238437)scale(0.1 -0.1)">
       <use xlink:href="#DejaVuSans-32"/>
       <use xlink:href="#DejaVuSans-35" x="63.623047"/>
       <use xlink:href="#DejaVuSans-30" x="127.246094"/>
      </g>
     </g>
    </g>
    <g id="text_7">
     <!-- number of threads -->
     <g transform="translate(200.781875 331.916562)scale(0.1 -0.1)">
      <defs>
       <path id="DejaVuSans-6e" d="M 3513 2113 
L 3513 0 
L 2938 0 
L 2938 2094 
Q 2938 2591 2744 2837 
Q 2550 3084 2163 3084 
Q 1697 3084 1428 2787 
Q 1159 2491 1159 1978 
L 1159 0 
L 581 0 
L 581 3500 
L 1159 3500 
L 1159 2956 
Q 1366 3272 1645 3428 
Q 1925 3584 2291 3584 
Q 2894 3584 3203 3211 
Q 3513 2838 3513 2113 
z
" transform="scale(0.015625)"/>
       <path id="DejaVuSans-75" d="M 544 1381 
L 544 3500 
L 1119 3500 
L 1119 1403 
Q 1119 906 1312 657 
Q 1506 409 1894 409 
Q 2359 409 2629 706 
Q 2900 1003 2900 1516 
L 2900 3500 
L 3475 3500 
L 3475 0 
L 2900 0 
L 2900 538 
Q 2691 219 2414 64 
Q 2138 -91 1772 -91 
Q 1169 -91 856 284 
Q 544 659 544 1381 
z
M 1991 3584 
L 1991 3584 
z
" transform="scale(0.015625)"/>
       <path id="DejaVuSans-6d" d="M 3328 2828 
Q 3544 3216 3844 3400 
Q 4144 3584 4550 3584 
Q 5097 3584 5394 3201 
Q 5691 2819 5691 2113 
L 5691 0 
L 5113 0 
L 5113 2094 
Q 5113 2597 4934 2840 
Q 4756 3084 4391 3084 
Q 3944 3084 3684 2787 
Q 3425 2491 3425 1978 
L 3425 0 
L 2847 0 
L 2847 2094 
Q 2847 2600 2669 2842 
Q 2491 3084 2119 3084 
Q 1678 3084 1418 2786 
Q 1159 2488 1159 1978 
L 1159 0 
L 581 0 
L 581 3500 
L 1159 3500 
L 1159 2956 
Q 1356 3278 1631 3431 
Q 1906 3584 2284 3584 
Q 2666 3584 2933 3390 
Q 3200 3197 3328 2828 
z
" transform="scale(0.015625)"/>
       <path id="DejaVuSans-62" d="M 3116 1747 
Q 3116 2381 2855 2742 
Q 2594 3103 2138 3103 
Q 1681 3103 1420 2742 
Q 1159 2381 1159 1747 
Q 1159 1113 1420 752 
Q 1681 391 2138 391 
Q 2594 391 2855 752 
Q 3116 1113 3116 1747 
z
M 1159 2969 
Q 1341 3281 1617 3432 
Q 1894 3584 2278 3584 
Q 2916 3584 3314 3078 
Q 3713 2572 3713 1747 
Q 3713 922 3314 415 
Q 2916 -91 2278 -91 
Q 1894 -91 1617 61 
Q 1341 213 1159 525 
L 1159 0 
L 581 0 
L 581 4863 
L 1159 4863 
L 1159 2969 
z
" transform="scale(0.015625)"/>
       <path id="DejaVuSans-65" d="M 3597 1894 
L 3597 1613 
L 953 1613 
Q 991 1019 1311 708 
Q 1631 397 2203 397 
Q 2534 397 2845 478 
Q 3156 559 3463 722 
L 3463 178 
Q 3153 47 2828 -22 
Q 2503 -91 2169 -91 
Q 1331 -91 842 396 
Q 353 884 353 1716 
Q 353 2575 817 3079 
Q 1281 3584 2069 3584 
Q 2775 3584 3186 3129 
Q 3597 2675 3597 1894 
z
M 3022 2063 
Q 3016 2534 2758 2815 
Q 2500 3097 2075 3097 
Q 1594 3097 1305 2825 
Q 1016 2553 972 2059 
L 3022 2063 
z
" transform="scale(0.015625)"/>
       <path id="DejaVuSans-72" d="M 2631 2963 
Q 2534 3019 2420 3045 
Q 2306 3072 2169 3072 
Q 1681 3072 1420 2755 
Q 1159 2438 1159 1844 
L 1159 0 
L 581 0 
L 581 3500 
L 1159 3500 
L 1159 2956 
Q 1341 3275 1631 3429 
Q 1922 3584 2338 3584 
Q 2397 3584 2469 3576 
Q 2541 3569 2628 3553 
L 2631 2963 
z
" transform="scale(0.015625)"/>
       <path id="DejaVuSans-20" transform="scale(0.015625)"/>
       <path id="DejaVuSans-6f" d="M 1959 3097 
Q 1497 3097 1228 2736 
Q 959 2375 959 1747 
Q 959 1119 1226 758 
Q 1494 397 1959 397 
Q 2419 397 2687 759 
Q 2956 1122 2956 1747 
Q 2956 2369 2687 2733 
Q 2419 3097 1959 3097 
z
M 1959 3584 
Q 2709 3584 3137 3096 
Q 3566 2609 3566 1747 
Q 3566 888 3137 398 
Q 2709 -91 1959 -91 
Q 1206 -91 779 398 
Q 353 888 353 1747 
Q 353 2609 779 3096 
Q 1206 3584 1959 3584 
z
" transform="scale(0.015625)"/>
       <path id="DejaVuSans-66" d="M 2375 4863 
L 2375 4384 
L 1825 4384 
Q 1516 4384 1395 4259 
Q 1275 4134 1275 3809 
L 1275 3500 
L 2222 3500 
L 2222 3053 
L 1275 3053 
L 1275 0 
L 697 0 
L 697 3053 
L 147 3053 
L 147 3500 
L 697 3500 
L 697 3744 
Q 697 4328 969 4595 
Q 1241 4863 1831 4863 
L 2375 4863 
z
" transform="scale(0.015625)"/>
       <path id="DejaVuSans-74" d="M 1172 4494 
L 1172 3500 
L 2356 3500 
L 2356 3053 
L 1172 3053 
L 1172 1153 
Q 1172 725 1289 603 
Q 1406 481 1766 481 
L 2356 481 
L 2356 0 
L 1766 0 
Q 1100 0 847 248 
Q 594 497 594 1153 
L 594 3053 
L 172 3053 
L 172 3500 
L 594 3500 
L 594 4494 
L 1172 4494 
z
" transform="scale(0.015625)"/>
       <path id="DejaVuSans-68" d="M 3513 2113 
L 3513 0 
L 2938 0 
L 2938 2094 
Q 2938 2591 2744 2837 
Q 2550 3084 2163 3084 
Q 1697 3084 1428 2787 
Q 1159 2491 1159 1978 
L 1159 0 
L 581 0 
L 581 4863 
L 1159 4863 
L 1159 2956 
Q 1366 3272 1645 3428 
Q 1925 3584 2291 3584 
Q 2894 3584 3203 3211 
Q 3513 2838 3513 2113 
z
" transform="scale(0.015625)"/>
       <path id="DejaVuSans-61" d="M 2194 1759 
Q 1497 1759 1228 1600 
Q 959 1441 959 1056 
Q 959 750 1161 570 
Q 1363 391 1709 391 
Q 2188 391 2477 730 
Q 2766 1069 2766 1631 
L 2766 1759 
L 2194 1759 
z
M 3341 1997 
L 3341 0 
L 2766 0 
L 2766 531 
Q 2569 213 2275 61 
Q 1981 -91 1556 -91 
Q 1019 -91 701 211 
Q 384 513 384 1019 
Q 384 1609 779 1909 
Q 1175 2209 1959 2209 
L 2766 2209 
L 2766 2266 
Q 2766 2663 2505 2880 
Q 2244 3097 1772 3097 
Q 1472 3097 1187 3025 
Q 903 2953 641 2809 
L 641 3341 
Q 956 3463 1253 3523 
Q 1550 3584 1831 3584 
Q 2591 3584 2966 3190 
Q 3341 2797 3341 1997 
z
" transform="scale(0.015625)"/>
       <path id="DejaVuSans-64" d="M 2906 2969 
L 2906 4863 
L 3481 4863 
L 3481 0 
L 2906 0 
L 2906 525 
Q 2725 213 2448 61 
Q 2172 -91 1784 -91 
Q 1150 -91 751 415 
Q 353 922 353 1747 
Q 353 2572 751 3078 
Q 1150 3584 1784 3584 
Q 2172 3584 2448 3432 
Q 2725 3281 2906 2969 
z
M 947 1747 
Q 947 1113 1208 752 
Q 1469 391 1925 391 
Q 2381 391 2643 752 
Q 2906 1113 2906 1747 
Q 2906 2381 2643 2742 
Q 2381 3103 1925 3103 
Q 1469 3103 1208 2742 
Q 947 2381 947 1747 
z
" transform="scale(0.015625)"/>
       <path id="DejaVuSans-73" d="M 2834 3397 
L 2834 2853 
Q 2591 2978 2328 3040 
Q 2066 3103 1784 3103 
Q 1356 3103 1142 2972 
Q 928 2841 928 2578 
Q 928 2378 1081 2264 
Q 1234 2150 1697 2047 
L 1894 2003 
Q 2506 1872 2764 1633 
Q 3022 1394 3022 966 
Q 3022 478 2636 193 
Q 2250 -91 1575 -91 
Q 1294 -91 989 -36 
Q 684 19 347 128 
L 347 722 
Q 666 556 975 473 
Q 1284 391 1588 391 
Q 1994 391 2212 530 
Q 2431 669 2431 922 
Q 2431 1156 2273 1281 
Q 2116 1406 1581 1522 
L 1381 1569 
Q 847 1681 609 1914 
Q 372 2147 372 2553 
Q 372 3047 722 3315 
Q 1072 3584 1716 3584 
Q 2034 3584 2315 3537 
Q 2597 3491 2834 3397 
z
" transform="scale(0.015625)"/>
      </defs>
      <use xlink:href="#DejaVuSans-6e"/>
      <use xlink:href="#DejaVuSans-75" x="63.378906"/>
      <use xlink:href="#DejaVuSans-6d" x="126.757812"/>
      <use xlink:href="#DejaVuSans-62" x="224.169922"/>
      <use xlink:href="#DejaVuSans-65" x="287.646484"/>
      <use xlink:href="#DejaVuSans-72" x="349.169922"/>
      <use xlink:href="#DejaVuSans-20" x="390.283203"/>
      <use xlink:href="#DejaVuSans-6f" x="422.070312"/>
      <use xlink:href="#DejaVuSans-66" x="483.251953"/>
      <use xlink:href="#DejaVuSans-20" x="518.457031"/>
      <use xlink:href="#DejaVuSans-74" x="550.244141"/>
      <use xlink:href="#DejaVuSans-68" x="589.453125"/>
      <use xlink:href="#DejaVuSans-72" x="652.832031"/>
      <use xlink:href="#DejaVuSans-65" x="691.695312"/>
      <use xlink:href="#DejaVuSans-61" x="753.21875"/>
      <use xlink:href="#DejaVuSans-64" x="814.498047"/>
      <use xlink:href="#DejaVuSans-73" x="877.974609"/>
     </g>
    </g>
   </g>
   <g id="matplotlib.axis_2">
    <g id="ytick_1">
     <g id="line2d_7">
      <defs>
       <path id="m8dbb73eed4" d="M 0 0 
L -3.5 0 
" style="stroke: #000000; stroke-width: 0.8"/>
      </defs>
      <g>
       <use xlink:href="#m8dbb73eed4" x="44.57" y="259.977869" style="stroke: #000000; stroke-width: 0.8"/>
      </g>
     </g>
     <g id="text_8">
      <!-- 2 -->
      <g transform="translate(31.2075 263.777088)scale(0.1 -0.1)">
       <use xlink:href="#DejaVuSans-32"/>
      </g>
     </g>
    </g>
    <g id="ytick_2">
     <g id="line2d_8">
      <g>
       <use xlink:href="#m8dbb73eed4" x="44.57" y="199.477015" style="stroke: #000000; stroke-width: 0.8"/>
      </g>
     </g>
     <g id="text_9">
      <!-- 4 -->
      <g transform="translate(31.2075 203.276234)scale(0.1 -0.1)">
       <defs>
        <path id="DejaVuSans-34" d="M 2419 4116 
L 825 1625 
L 2419 1625 
L 2419 4116 
z
M 2253 4666 
L 3047 4666 
L 3047 1625 
L 3713 1625 
L 3713 1100 
L 3047 1100 
L 3047 0 
L 2419 0 
L 2419 1100 
L 313 1100 
L 313 1709 
L 2253 4666 
z
" transform="scale(0.015625)"/>
       </defs>
       <use xlink:href="#DejaVuSans-34"/>
      </g>
     </g>
    </g>
    <g id="ytick_3">
     <g id="line2d_9">
      <g>
       <use xlink:href="#m8dbb73eed4" x="44.57" y="138.976162" style="stroke: #000000; stroke-width: 0.8"/>
      </g>
     </g>
     <g id="text_10">
      <!-- 6 -->
      <g transform="translate(31.2075 142.775381)scale(0.1 -0.1)">
       <defs>
        <path id="DejaVuSans-36" d="M 2113 2584 
Q 1688 2584 1439 2293 
Q 1191 2003 1191 1497 
Q 1191 994 1439 701 
Q 1688 409 2113 409 
Q 2538 409 2786 701 
Q 3034 994 3034 1497 
Q 3034 2003 2786 2293 
Q 2538 2584 2113 2584 
z
M 3366 4563 
L 3366 3988 
Q 3128 4100 2886 4159 
Q 2644 4219 2406 4219 
Q 1781 4219 1451 3797 
Q 1122 3375 1075 2522 
Q 1259 2794 1537 2939 
Q 1816 3084 2150 3084 
Q 2853 3084 3261 2657 
Q 3669 2231 3669 1497 
Q 3669 778 3244 343 
Q 2819 -91 2113 -91 
Q 1303 -91 875 529 
Q 447 1150 447 2328 
Q 447 3434 972 4092 
Q 1497 4750 2381 4750 
Q 2619 4750 2861 4703 
Q 3103 4656 3366 4563 
z
" transform="scale(0.015625)"/>
       </defs>
       <use xlink:href="#DejaVuSans-36"/>
      </g>
     </g>
    </g>
    <g id="ytick_4">
     <g id="line2d_10">
      <g>
       <use xlink:href="#m8dbb73eed4" x="44.57" y="78.475308" style="stroke: #000000; stroke-width: 0.8"/>
      </g>
     </g>
     <g id="text_11">
      <!-- 8 -->
      <g transform="translate(31.2075 82.274527)scale(0.1 -0.1)">
       <defs>
        <path id="DejaVuSans-38" d="M 2034 2216 
Q 1584 2216 1326 1975 
Q 1069 1734 1069 1313 
Q 1069 891 1326 650 
Q 1584 409 2034 409 
Q 2484 409 2743 651 
Q 3003 894 3003 1313 
Q 3003 1734 2745 1975 
Q 2488 2216 2034 2216 
z
M 1403 2484 
Q 997 2584 770 2862 
Q 544 3141 544 3541 
Q 544 4100 942 4425 
Q 1341 4750 2034 4750 
Q 2731 4750 3128 4425 
Q 3525 4100 3525 3541 
Q 3525 3141 3298 2862 
Q 3072 2584 2669 2484 
Q 3125 2378 3379 2068 
Q 3634 1759 3634 1313 
Q 3634 634 3220 271 
Q 2806 -91 2034 -91 
Q 1263 -91 848 271 
Q 434 634 434 1313 
Q 434 1759 690 2068 
Q 947 2378 1403 2484 
z
M 1172 3481 
Q 1172 3119 1398 2916 
Q 1625 2713 2034 2713 
Q 2441 2713 2670 2916 
Q 2900 3119 2900 3481 
Q 2900 3844 2670 4047 
Q 2441 4250 2034 4250 
Q 1625 4250 1398 4047 
Q 1172 3844 1172 3481 
z
" transform="scale(0.015625)"/>
       </defs>
       <use xlink:href="#DejaVuSans-38"/>
      </g>
     </g>
    </g>
    <g id="ytick_5">
     <g id="line2d_11">
      <g>
       <use xlink:href="#m8dbb73eed4" x="44.57" y="17.974455" style="stroke: #000000; stroke-width: 0.8"/>
      </g>
     </g>
     <g id="text_12">
      <!-- 10 -->
      <g transform="translate(24.845 21.773674)scale(0.1 -0.1)">
       <use xlink:href="#DejaVuSans-31"/>
       <use xlink:href="#DejaVuSans-30" x="63.623047"/>
      </g>
     </g>
    </g>
    <g id="text_13">
     <!-- speedup (relative to 1 thread) -->
     <g transform="translate(18.765313 232.372344)rotate(-90)scale(0.1 -0.1)">
      <defs>
       <path id="DejaVuSans-70" d="M 1159 525 
L 1159 -1331 
L 581 -1331 
L 581 3500 
L 1159 3500 
L 1159 2969 
Q 1341 3281 1617 3432 
Q 1894 3584 2278 3584 
Q 2916 3584 3314 3078 
Q 3713 2572 3713 1747 
Q 3713 922 3314 415 
Q 2916 -91 2278 -91 
Q 1894 -91 1617 61 
Q 1341 213 1159 525 
z
M 3116 1747 
Q 3116 2381 2855 2742 
Q 2594 3103 2138 3103 
Q 1681 3103 1420 2742 
Q 1159 2381 1159 1747 
Q 1159 1113 1420 752 
Q 1681 391 2138 391 
Q 2594 391 2855 752 
Q 3116 1113 3116 1747 
z
" transform="scale(0.015625)"/>
       <path id="DejaVuSans-28" d="M 1984 4856 
Q 1566 4138 1362 3434 
Q 1159 2731 1159 2009 
Q 1159 1288 1364 580 
Q 1569 -128 1984 -844 
L 1484 -844 
Q 1016 -109 783 600 
Q 550 1309 550 2009 
Q 550 2706 781 3412 
Q 1013 4119 1484 4856 
L 1984 4856 
z
" transform="scale(0.015625)"/>
       <path id="DejaVuSans-6c" d="M 603 4863 
L 1178 4863 
L 1178 0 
L 603 0 
L 603 4863 
z
" transform="scale(0.015625)"/>
       <path id="DejaVuSans-69" d="M 603 3500 
L 1178 3500 
L 1178 0 
L 603 0 
L 603 3500 
z
M 603 4863 
L 1178 4863 
L 1178 4134 
L 603 4134 
L 603 4863 
z
" transform="scale(0.015625)"/>
       <path id="DejaVuSans-76" d="M 191 3500 
L 800 3500 
L 1894 563 
L 2988 3500 
L 3597 3500 
L 2284 0 
L 1503 0 
L 191 3500 
z
" transform="scale(0.015625)"/>
       <path id="DejaVuSans-29" d="M 513 4856 
L 1013 4856 
Q 1481 4119 1714 3412 
Q 1947 2706 1947 2009 
Q 1947 1309 1714 600 
Q 1481 -109 1013 -844 
L 513 -844 
Q 928 -128 1133 580 
Q 1338 1288 1338 2009 
Q 1338 2731 1133 3434 
Q 928 4138 513 4856 
z
" transform="scale(0.015625)"/>
      </defs>
      <use xlink:href="#DejaVuSans-73"/>
      <use xlink:href="#DejaVuSans-70" x="52.099609"/>
      <use xlink:href="#DejaVuSans-65" x="115.576172"/>
      <use xlink:href="#DejaVuSans-65" x="177.099609"/>
      <use xlink:href="#DejaVuSans-64" x="238.623047"/>
      <use xlink:href="#DejaVuSans-75" x="302.099609"/>
      <use xlink:href="#DejaVuSans-70" x="365.478516"/>
      <use xlink:href="#DejaVuSans-20" x="428.955078"/>
      <use xlink:href="#DejaVuSans-28" x="460.742188"/>
      <use xlink:href="#DejaVuSans-72" x="499.755859"/>
      <use xlink:href="#DejaVuSans-65" x="538.619141"/>
      <use xlink:href="#DejaVuSans-6c" x="600.142578"/>
      <use xlink:href="#DejaVuSans-61" x="627.925781"/>
      <use xlink:href="#DejaVuSans-74" x="689.205078"/>
      <use xlink:href="#DejaVuSans-69" x="728.414062"/>
      <use xlink:href="#DejaVuSans-76" x="756.197266"/>
      <use xlink:href="#DejaVuSans-65" x="815.376953"/>
      <use xlink:href="#DejaVuSans-20" x="876.900391"/>
      <use xlink:href="#DejaVuSans-74" x="908.6875"/>
      <use xlink:href="#DejaVuSans-6f" x="947.896484"/>
      <use xlink:href="#DejaVuSans-20" x="1009.078125"/>
      <use xlink:href="#DejaVuSans-31" x="1040.865234"/>
      <use xlink:href="#DejaVuSans-20" x="1104.488281"/>
      <use xlink:href="#DejaVuSans-74" x="1136.275391"/>
      <use xlink:href="#DejaVuSans-68" x="1175.484375"/>
      <use xlink:href="#DejaVuSans-72" x="1238.863281"/>
      <use xlink:href="#DejaVuSans-65" x="1277.726562"/>
      <use xlink:href="#DejaVuSans-61" x="1339.25"/>
      <use xlink:href="#DejaVuSans-64" x="1400.529297"/>
      <use xlink:href="#DejaVuSans-29" x="1464.005859"/>
     </g>
    </g>
   </g>
   <g id="LineCollection_1">
    <path d="M 62.998636 290.258794 
L 62.998636 290.196504 
" clip-path="url(#p1921ea7075)" style="fill: none; stroke: #1f77b4"/>
    <path d="M 64.44402 277.159539 
L 64.44402 276.355115 
" clip-path="url(#p1921ea7075)" style="fill: none; stroke: #1f77b4"/>
    <path d="M 67.334786 248.056293 
L 67.334786 246.35091 
" clip-path="url(#p1921ea7075)" style="fill: none; stroke: #1f77b4"/>
    <path d="M 73.116319 199.142389 
L 73.116319 195.065866 
" clip-path="url(#p1921ea7075)" style="fill: none; stroke: #1f77b4"/>
    <path d="M 84.679385 170.565343 
L 84.679385 150.948139 
" clip-path="url(#p1921ea7075)" style="fill: none; stroke: #1f77b4"/>
    <path d="M 107.805517 87.692371 
L 107.805517 59.425333 
" clip-path="url(#p1921ea7075)" style="fill: none; stroke: #1f77b4"/>
    <path d="M 130.931649 48.342044 
L 130.931649 38.574295 
" clip-path="url(#p1921ea7075)" style="fill: none; stroke: #1f77b4"/>
    <path d="M 154.057781 34.892006 
L 154.057781 24.110909 
" clip-path="url(#p1921ea7075)" style="fill: none; stroke: #1f77b4"/>
    <path d="M 177.183913 48.752252 
L 177.183913 38.023155 
" clip-path="url(#p1921ea7075)" style="fill: none; stroke: #1f77b4"/>
    <path d="M 200.310045 43.080576 
L 200.310045 31.017229 
" clip-path="url(#p1921ea7075)" style="fill: none; stroke: #1f77b4"/>
    <path d="M 223.436176 44.494198 
L 223.436176 36.973679 
" clip-path="url(#p1921ea7075)" style="fill: none; stroke: #1f77b4"/>
    <path d="M 246.562308 75.150494 
L 246.562308 65.968424 
" clip-path="url(#p1921ea7075)" style="fill: none; stroke: #1f77b4"/>
    <path d="M 269.68844 84.180228 
L 269.68844 77.095534 
" clip-path="url(#p1921ea7075)" style="fill: none; stroke: #1f77b4"/>
    <path d="M 292.814572 102.1242 
L 292.814572 94.564153 
" clip-path="url(#p1921ea7075)" style="fill: none; stroke: #1f77b4"/>
    <path d="M 315.940704 112.276439 
L 315.940704 107.004861 
" clip-path="url(#p1921ea7075)" style="fill: none; stroke: #1f77b4"/>
    <path d="M 339.066836 133.077382 
L 339.066836 122.257973 
" clip-path="url(#p1921ea7075)" style="fill: none; stroke: #1f77b4"/>
    <path d="M 362.192968 147.753446 
L 362.192968 140.239654 
" clip-path="url(#p1921ea7075)" style="fill: none; stroke: #1f77b4"/>
    <path d="M 385.3191 178.130431 
L 385.3191 172.625045 
" clip-path="url(#p1921ea7075)" style="fill: none; stroke: #1f77b4"/>
    <path d="M 408.445232 190.876931 
L 408.445232 186.582917 
" clip-path="url(#p1921ea7075)" style="fill: none; stroke: #1f77b4"/>
    <path d="M 431.571364 245.275081 
L 431.571364 236.805996 
" clip-path="url(#p1921ea7075)" style="fill: none; stroke: #1f77b4"/>
   </g>
   <g id="line2d_12">
    <defs>
     <path id="m438158bac5" d="M 2 0 
L -2 -0 
" style="stroke: #1f77b4"/>
    </defs>
    <g clip-path="url(#p1921ea7075)">
     <use xlink:href="#m438158bac5" x="62.998636" y="290.258794" style="fill: #1f77b4; stroke: #1f77b4"/>
     <use xlink:href="#m438158bac5" x="64.44402" y="277.159539" style="fill: #1f77b4; stroke: #1f77b4"/>
     <use xlink:href="#m438158bac5" x="67.334786" y="248.056293" style="fill: #1f77b4; stroke: #1f77b4"/>
     <use xlink:href="#m438158bac5" x="73.116319" y="199.142389" style="fill: #1f77b4; stroke: #1f77b4"/>
     <use xlink:href="#m438158bac5" x="84.679385" y="170.565343" style="fill: #1f77b4; stroke: #1f77b4"/>
     <use xlink:href="#m438158bac5" x="107.805517" y="87.692371" style="fill: #1f77b4; stroke: #1f77b4"/>
     <use xlink:href="#m438158bac5" x="130.931649" y="48.342044" style="fill: #1f77b4; stroke: #1f77b4"/>
     <use xlink:href="#m438158bac5" x="154.057781" y="34.892006" style="fill: #1f77b4; stroke: #1f77b4"/>
     <use xlink:href="#m438158bac5" x="177.183913" y="48.752252" style="fill: #1f77b4; stroke: #1f77b4"/>
     <use xlink:href="#m438158bac5" x="200.310045" y="43.080576" style="fill: #1f77b4; stroke: #1f77b4"/>
     <use xlink:href="#m438158bac5" x="223.436176" y="44.494198" style="fill: #1f77b4; stroke: #1f77b4"/>
     <use xlink:href="#m438158bac5" x="246.562308" y="75.150494" style="fill: #1f77b4; stroke: #1f77b4"/>
     <use xlink:href="#m438158bac5" x="269.68844" y="84.180228" style="fill: #1f77b4; stroke: #1f77b4"/>
     <use xlink:href="#m438158bac5" x="292.814572" y="102.1242" style="fill: #1f77b4; stroke: #1f77b4"/>
     <use xlink:href="#m438158bac5" x="315.940704" y="112.276439" style="fill: #1f77b4; stroke: #1f77b4"/>
     <use xlink:href="#m438158bac5" x="339.066836" y="133.077382" style="fill: #1f77b4; stroke: #1f77b4"/>
     <use xlink:href="#m438158bac5" x="362.192968" y="147.753446" style="fill: #1f77b4; stroke: #1f77b4"/>
     <use xlink:href="#m438158bac5" x="385.3191" y="178.130431" style="fill: #1f77b4; stroke: #1f77b4"/>
     <use xlink:href="#m438158bac5" x="408.445232" y="190.876931" style="fill: #1f77b4; stroke: #1f77b4"/>
     <use xlink:href="#m438158bac5" x="431.571364" y="245.275081" style="fill: #1f77b4; stroke: #1f77b4"/>
    </g>
   </g>
   <g id="line2d_13">
    <g clip-path="url(#p1921ea7075)">
     <use xlink:href="#m438158bac5" x="62.998636" y="290.196504" style="fill: #1f77b4; stroke: #1f77b4"/>
     <use xlink:href="#m438158bac5" x="64.44402" y="276.355115" style="fill: #1f77b4; stroke: #1f77b4"/>
     <use xlink:href="#m438158bac5" x="67.334786" y="246.35091" style="fill: #1f77b4; stroke: #1f77b4"/>
     <use xlink:href="#m438158bac5" x="73.116319" y="195.065866" style="fill: #1f77b4; stroke: #1f77b4"/>
     <use xlink:href="#m438158bac5" x="84.679385" y="150.948139" style="fill: #1f77b4; stroke: #1f77b4"/>
     <use xlink:href="#m438158bac5" x="107.805517" y="59.425333" style="fill: #1f77b4; stroke: #1f77b4"/>
     <use xlink:href="#m438158bac5" x="130.931649" y="38.574295" style="fill: #1f77b4; stroke: #1f77b4"/>
     <use xlink:href="#m438158bac5" x="154.057781" y="24.110909" style="fill: #1f77b4; stroke: #1f77b4"/>
     <use xlink:href="#m438158bac5" x="177.183913" y="38.023155" style="fill: #1f77b4; stroke: #1f77b4"/>
     <use xlink:href="#m438158bac5" x="200.310045" y="31.017229" style="fill: #1f77b4; stroke: #1f77b4"/>
     <use xlink:href="#m438158bac5" x="223.436176" y="36.973679" style="fill: #1f77b4; stroke: #1f77b4"/>
     <use xlink:href="#m438158bac5" x="246.562308" y="65.968424" style="fill: #1f77b4; stroke: #1f77b4"/>
     <use xlink:href="#m438158bac5" x="269.68844" y="77.095534" style="fill: #1f77b4; stroke: #1f77b4"/>
     <use xlink:href="#m438158bac5" x="292.814572" y="94.564153" style="fill: #1f77b4; stroke: #1f77b4"/>
     <use xlink:href="#m438158bac5" x="315.940704" y="107.004861" style="fill: #1f77b4; stroke: #1f77b4"/>
     <use xlink:href="#m438158bac5" x="339.066836" y="122.257973" style="fill: #1f77b4; stroke: #1f77b4"/>
     <use xlink:href="#m438158bac5" x="362.192968" y="140.239654" style="fill: #1f77b4; stroke: #1f77b4"/>
     <use xlink:href="#m438158bac5" x="385.3191" y="172.625045" style="fill: #1f77b4; stroke: #1f77b4"/>
     <use xlink:href="#m438158bac5" x="408.445232" y="186.582917" style="fill: #1f77b4; stroke: #1f77b4"/>
     <use xlink:href="#m438158bac5" x="431.571364" y="236.805996" style="fill: #1f77b4; stroke: #1f77b4"/>
    </g>
   </g>
   <g id="LineCollection_2">
    <path d="M 62.998636 290.329091 
L 62.998636 290.111173 
" clip-path="url(#p1921ea7075)" style="fill: none; stroke: #ff7f0e"/>
    <path d="M 64.44402 285.923208 
L 64.44402 285.376251 
" clip-path="url(#p1921ea7075)" style="fill: none; stroke: #ff7f0e"/>
    <path d="M 67.334786 270.945914 
L 67.334786 269.533169 
" clip-path="url(#p1921ea7075)" style="fill: none; stroke: #ff7f0e"/>
    <path d="M 73.116319 253.360598 
L 73.116319 250.634344 
" clip-path="url(#p1921ea7075)" style="fill: none; stroke: #ff7f0e"/>
    <path d="M 84.679385 223.182668 
L 84.679385 214.632512 
" clip-path="url(#p1921ea7075)" style="fill: none; stroke: #ff7f0e"/>
    <path d="M 107.805517 206.932052 
L 107.805517 194.386471 
" clip-path="url(#p1921ea7075)" style="fill: none; stroke: #ff7f0e"/>
    <path d="M 130.931649 196.110433 
L 130.931649 181.391799 
" clip-path="url(#p1921ea7075)" style="fill: none; stroke: #ff7f0e"/>
    <path d="M 154.057781 170.819723 
L 154.057781 145.501639 
" clip-path="url(#p1921ea7075)" style="fill: none; stroke: #ff7f0e"/>
    <path d="M 177.183913 107.562277 
L 177.183913 90.777854 
" clip-path="url(#p1921ea7075)" style="fill: none; stroke: #ff7f0e"/>
    <path d="M 200.310045 88.808135 
L 200.310045 74.440764 
" clip-path="url(#p1921ea7075)" style="fill: none; stroke: #ff7f0e"/>
    <path d="M 223.436176 91.761124 
L 223.436176 71.799476 
" clip-path="url(#p1921ea7075)" style="fill: none; stroke: #ff7f0e"/>
    <path d="M 246.562308 90.841603 
L 246.562308 80.273296 
" clip-path="url(#p1921ea7075)" style="fill: none; stroke: #ff7f0e"/>
    <path d="M 269.68844 121.912207 
L 269.68844 109.574339 
" clip-path="url(#p1921ea7075)" style="fill: none; stroke: #ff7f0e"/>
    <path d="M 292.814572 119.972102 
L 292.814572 108.618182 
" clip-path="url(#p1921ea7075)" style="fill: none; stroke: #ff7f0e"/>
    <path d="M 315.940704 131.96786 
L 315.940704 122.353588 
" clip-path="url(#p1921ea7075)" style="fill: none; stroke: #ff7f0e"/>
    <path d="M 339.066836 148.112373 
L 339.066836 138.932024 
" clip-path="url(#p1921ea7075)" style="fill: none; stroke: #ff7f0e"/>
    <path d="M 362.192968 153.899298 
L 362.192968 143.245784 
" clip-path="url(#p1921ea7075)" style="fill: none; stroke: #ff7f0e"/>
    <path d="M 385.3191 174.021094 
L 385.3191 165.089287 
" clip-path="url(#p1921ea7075)" style="fill: none; stroke: #ff7f0e"/>
    <path d="M 408.445232 196.672406 
L 408.445232 188.935846 
" clip-path="url(#p1921ea7075)" style="fill: none; stroke: #ff7f0e"/>
    <path d="M 431.571364 283.906697 
L 431.571364 279.696032 
" clip-path="url(#p1921ea7075)" style="fill: none; stroke: #ff7f0e"/>
   </g>
   <g id="line2d_14">
    <defs>
     <path id="me2942371bd" d="M 2 0 
L -2 -0 
" style="stroke: #ff7f0e"/>
    </defs>
    <g clip-path="url(#p1921ea7075)">
     <use xlink:href="#me2942371bd" x="62.998636" y="290.329091" style="fill: #ff7f0e; stroke: #ff7f0e"/>
     <use xlink:href="#me2942371bd" x="64.44402" y="285.923208" style="fill: #ff7f0e; stroke: #ff7f0e"/>
     <use xlink:href="#me2942371bd" x="67.334786" y="270.945914" style="fill: #ff7f0e; stroke: #ff7f0e"/>
     <use xlink:href="#me2942371bd" x="73.116319" y="253.360598" style="fill: #ff7f0e; stroke: #ff7f0e"/>
     <use xlink:href="#me2942371bd" x="84.679385" y="223.182668" style="fill: #ff7f0e; stroke: #ff7f0e"/>
     <use xlink:href="#me2942371bd" x="107.805517" y="206.932052" style="fill: #ff7f0e; stroke: #ff7f0e"/>
     <use xlink:href="#me2942371bd" x="130.931649" y="196.110433" style="fill: #ff7f0e; stroke: #ff7f0e"/>
     <use xlink:href="#me2942371bd" x="154.057781" y="170.819723" style="fill: #ff7f0e; stroke: #ff7f0e"/>
     <use xlink:href="#me2942371bd" x="177.183913" y="107.562277" style="fill: #ff7f0e; stroke: #ff7f0e"/>
     <use xlink:href="#me2942371bd" x="200.310045" y="88.808135" style="fill: #ff7f0e; stroke: #ff7f0e"/>
     <use xlink:href="#me2942371bd" x="223.436176" y="91.761124" style="fill: #ff7f0e; stroke: #ff7f0e"/>
     <use xlink:href="#me2942371bd" x="246.562308" y="90.841603" style="fill: #ff7f0e; stroke: #ff7f0e"/>
     <use xlink:href="#me2942371bd" x="269.68844" y="121.912207" style="fill: #ff7f0e; stroke: #ff7f0e"/>
     <use xlink:href="#me2942371bd" x="292.814572" y="119.972102" style="fill: #ff7f0e; stroke: #ff7f0e"/>
     <use xlink:href="#me2942371bd" x="315.940704" y="131.96786" style="fill: #ff7f0e; stroke: #ff7f0e"/>
     <use xlink:href="#me2942371bd" x="339.066836" y="148.112373" style="fill: #ff7f0e; stroke: #ff7f0e"/>
     <use xlink:href="#me2942371bd" x="362.192968" y="153.899298" style="fill: #ff7f0e; stroke: #ff7f0e"/>
     <use xlink:href="#me2942371bd" x="385.3191" y="174.021094" style="fill: #ff7f0e; stroke: #ff7f0e"/>
     <use xlink:href="#me2942371bd" x="408.445232" y="196.672406" style="fill: #ff7f0e; stroke: #ff7f0e"/>
     <use xlink:href="#me2942371bd" x="431.571364" y="283.906697" style="fill: #ff7f0e; stroke: #ff7f0e"/>
    </g>
   </g>
   <g id="line2d_15">
    <g clip-path="url(#p1921ea7075)">
     <use xlink:href="#me2942371bd" x="62.998636" y="290.111173" style="fill: #ff7f0e; stroke: #ff7f0e"/>
     <use xlink:href="#me2942371bd" x="64.44402" y="285.376251" style="fill: #ff7f0e; stroke: #ff7f0e"/>
     <use xlink:href="#me2942371bd" x="67.334786" y="269.533169" style="fill: #ff7f0e; stroke: #ff7f0e"/>
     <use xlink:href="#me2942371bd" x="73.116319" y="250.634344" style="fill: #ff7f0e; stroke: #ff7f0e"/>
     <use xlink:href="#me2942371bd" x="84.679385" y="214.632512" style="fill: #ff7f0e; stroke: #ff7f0e"/>
     <use xlink:href="#me2942371bd" x="107.805517" y="194.386471" style="fill: #ff7f0e; stroke: #ff7f0e"/>
     <use xlink:href="#me2942371bd" x="130.931649" y="181.391799" style="fill: #ff7f0e; stroke: #ff7f0e"/>
     <use xlink:href="#me2942371bd" x="154.057781" y="145.501639" style="fill: #ff7f0e; stroke: #ff7f0e"/>
     <use xlink:href="#me2942371bd" x="177.183913" y="90.777854" style="fill: #ff7f0e; stroke: #ff7f0e"/>
     <use xlink:href="#me2942371bd" x="200.310045" y="74.440764" style="fill: #ff7f0e; stroke: #ff7f0e"/>
     <use xlink:href="#me2942371bd" x="223.436176" y="71.799476" style="fill: #ff7f0e; stroke: #ff7f0e"/>
     <use xlink:href="#me2942371bd" x="246.562308" y="80.273296" style="fill: #ff7f0e; stroke: #ff7f0e"/>
     <use xlink:href="#me2942371bd" x="269.68844" y="109.574339" style="fill: #ff7f0e; stroke: #ff7f0e"/>
     <use xlink:href="#me2942371bd" x="292.814572" y="108.618182" style="fill: #ff7f0e; stroke: #ff7f0e"/>
     <use xlink:href="#me2942371bd" x="315.940704" y="122.353588" style="fill: #ff7f0e; stroke: #ff7f0e"/>
     <use xlink:href="#me2942371bd" x="339.066836" y="138.932024" style="fill: #ff7f0e; stroke: #ff7f0e"/>
     <use xlink:href="#me2942371bd" x="362.192968" y="143.245784" style="fill: #ff7f0e; stroke: #ff7f0e"/>
     <use xlink:href="#me2942371bd" x="385.3191" y="165.089287" style="fill: #ff7f0e; stroke: #ff7f0e"/>
     <use xlink:href="#me2942371bd" x="408.445232" y="188.935846" style="fill: #ff7f0e; stroke: #ff7f0e"/>
     <use xlink:href="#me2942371bd" x="431.571364" y="279.696032" style="fill: #ff7f0e; stroke: #ff7f0e"/>
    </g>
   </g>
   <g id="LineCollection_3">
    <path d="M 62.998636 290.306479 
L 62.998636 290.140793 
" clip-path="url(#p1921ea7075)" style="fill: none; stroke: #2ca02c"/>
    <path d="M 64.44402 288.664259 
L 64.44402 287.052097 
" clip-path="url(#p1921ea7075)" style="fill: none; stroke: #2ca02c"/>
    <path d="M 67.334786 272.066232 
L 67.334786 270.349554 
" clip-path="url(#p1921ea7075)" style="fill: none; stroke: #2ca02c"/>
    <path d="M 73.116319 255.372035 
L 73.116319 253.861291 
" clip-path="url(#p1921ea7075)" style="fill: none; stroke: #2ca02c"/>
    <path d="M 84.679385 250.87428 
L 84.679385 247.290873 
" clip-path="url(#p1921ea7075)" style="fill: none; stroke: #2ca02c"/>
    <path d="M 107.805517 258.68391 
L 107.805517 248.630233 
" clip-path="url(#p1921ea7075)" style="fill: none; stroke: #2ca02c"/>
    <path d="M 130.931649 227.351219 
L 130.931649 214.931005 
" clip-path="url(#p1921ea7075)" style="fill: none; stroke: #2ca02c"/>
    <path d="M 154.057781 208.425441 
L 154.057781 195.617772 
" clip-path="url(#p1921ea7075)" style="fill: none; stroke: #2ca02c"/>
    <path d="M 177.183913 230.094289 
L 177.183913 213.967058 
" clip-path="url(#p1921ea7075)" style="fill: none; stroke: #2ca02c"/>
    <path d="M 200.310045 185.020265 
L 200.310045 166.397293 
" clip-path="url(#p1921ea7075)" style="fill: none; stroke: #2ca02c"/>
    <path d="M 223.436176 166.029534 
L 223.436176 142.870474 
" clip-path="url(#p1921ea7075)" style="fill: none; stroke: #2ca02c"/>
    <path d="M 246.562308 192.948071 
L 246.562308 174.966328 
" clip-path="url(#p1921ea7075)" style="fill: none; stroke: #2ca02c"/>
    <path d="M 269.68844 156.821628 
L 269.68844 144.617369 
" clip-path="url(#p1921ea7075)" style="fill: none; stroke: #2ca02c"/>
    <path d="M 292.814572 153.973868 
L 292.814572 144.447297 
" clip-path="url(#p1921ea7075)" style="fill: none; stroke: #2ca02c"/>
    <path d="M 315.940704 174.012241 
L 315.940704 164.844976 
" clip-path="url(#p1921ea7075)" style="fill: none; stroke: #2ca02c"/>
    <path d="M 339.066836 185.545434 
L 339.066836 172.454933 
" clip-path="url(#p1921ea7075)" style="fill: none; stroke: #2ca02c"/>
    <path d="M 362.192968 183.235834 
L 362.192968 171.685923 
" clip-path="url(#p1921ea7075)" style="fill: none; stroke: #2ca02c"/>
    <path d="M 385.3191 198.104518 
L 385.3191 189.428555 
" clip-path="url(#p1921ea7075)" style="fill: none; stroke: #2ca02c"/>
    <path d="M 408.445232 207.347841 
L 408.445232 201.98829 
" clip-path="url(#p1921ea7075)" style="fill: none; stroke: #2ca02c"/>
    <path d="M 431.571364 287.87647 
L 431.571364 284.903968 
" clip-path="url(#p1921ea7075)" style="fill: none; stroke: #2ca02c"/>
   </g>
   <g id="line2d_16">
    <defs>
     <path id="m4c68e460b2" d="M 2 0 
L -2 -0 
" style="stroke: #2ca02c"/>
    </defs>
    <g clip-path="url(#p1921ea7075)">
     <use xlink:href="#m4c68e460b2" x="62.998636" y="290.306479" style="fill: #2ca02c; stroke: #2ca02c"/>
     <use xlink:href="#m4c68e460b2" x="64.44402" y="288.664259" style="fill: #2ca02c; stroke: #2ca02c"/>
     <use xlink:href="#m4c68e460b2" x="67.334786" y="272.066232" style="fill: #2ca02c; stroke: #2ca02c"/>
     <use xlink:href="#m4c68e460b2" x="73.116319" y="255.372035" style="fill: #2ca02c; stroke: #2ca02c"/>
     <use xlink:href="#m4c68e460b2" x="84.679385" y="250.87428" style="fill: #2ca02c; stroke: #2ca02c"/>
     <use xlink:href="#m4c68e460b2" x="107.805517" y="258.68391" style="fill: #2ca02c; stroke: #2ca02c"/>
     <use xlink:href="#m4c68e460b2" x="130.931649" y="227.351219" style="fill: #2ca02c; stroke: #2ca02c"/>
     <use xlink:href="#m4c68e460b2" x="154.057781" y="208.425441" style="fill: #2ca02c; stroke: #2ca02c"/>
     <use xlink:href="#m4c68e460b2" x="177.183913" y="230.094289" style="fill: #2ca02c; stroke: #2ca02c"/>
     <use xlink:href="#m4c68e460b2" x="200.310045" y="185.020265" style="fill: #2ca02c; stroke: #2ca02c"/>
     <use xlink:href="#m4c68e460b2" x="223.436176" y="166.029534" style="fill: #2ca02c; stroke: #2ca02c"/>
     <use xlink:href="#m4c68e460b2" x="246.562308" y="192.948071" style="fill: #2ca02c; stroke: #2ca02c"/>
     <use xlink:href="#m4c68e460b2" x="269.68844" y="156.821628" style="fill: #2ca02c; stroke: #2ca02c"/>
     <use xlink:href="#m4c68e460b2" x="292.814572" y="153.973868" style="fill: #2ca02c; stroke: #2ca02c"/>
     <use xlink:href="#m4c68e460b2" x="315.940704" y="174.012241" style="fill: #2ca02c; stroke: #2ca02c"/>
     <use xlink:href="#m4c68e460b2" x="339.066836" y="185.545434" style="fill: #2ca02c; stroke: #2ca02c"/>
     <use xlink:href="#m4c68e460b2" x="362.192968" y="183.235834" style="fill: #2ca02c; stroke: #2ca02c"/>
     <use xlink:href="#m4c68e460b2" x="385.3191" y="198.104518" style="fill: #2ca02c; stroke: #2ca02c"/>
     <use xlink:href="#m4c68e460b2" x="408.445232" y="207.347841" style="fill: #2ca02c; stroke: #2ca02c"/>
     <use xlink:href="#m4c68e460b2" x="431.571364" y="287.87647" style="fill: #2ca02c; stroke: #2ca02c"/>
    </g>
   </g>
   <g id="line2d_17">
    <g clip-path="url(#p1921ea7075)">
     <use xlink:href="#m4c68e460b2" x="62.998636" y="290.140793" style="fill: #2ca02c; stroke: #2ca02c"/>
     <use xlink:href="#m4c68e460b2" x="64.44402" y="287.052097" style="fill: #2ca02c; stroke: #2ca02c"/>
     <use xlink:href="#m4c68e460b2" x="67.334786" y="270.349554" style="fill: #2ca02c; stroke: #2ca02c"/>
     <use xlink:href="#m4c68e460b2" x="73.116319" y="253.861291" style="fill: #2ca02c; stroke: #2ca02c"/>
     <use xlink:href="#m4c68e460b2" x="84.679385" y="247.290873" style="fill: #2ca02c; stroke: #2ca02c"/>
     <use xlink:href="#m4c68e460b2" x="107.805517" y="248.630233" style="fill: #2ca02c; stroke: #2ca02c"/>
     <use xlink:href="#m4c68e460b2" x="130.931649" y="214.931005" style="fill: #2ca02c; stroke: #2ca02c"/>
     <use xlink:href="#m4c68e460b2" x="154.057781" y="195.617772" style="fill: #2ca02c; stroke: #2ca02c"/>
     <use xlink:href="#m4c68e460b2" x="177.183913" y="213.967058" style="fill: #2ca02c; stroke: #2ca02c"/>
     <use xlink:href="#m4c68e460b2" x="200.310045" y="166.397293" style="fill: #2ca02c; stroke: #2ca02c"/>
     <use xlink:href="#m4c68e460b2" x="223.436176" y="142.870474" style="fill: #2ca02c; stroke: #2ca02c"/>
     <use xlink:href="#m4c68e460b2" x="246.562308" y="174.966328" style="fill: #2ca02c; stroke: #2ca02c"/>
     <use xlink:href="#m4c68e460b2" x="269.68844" y="144.617369" style="fill: #2ca02c; stroke: #2ca02c"/>
     <use xlink:href="#m4c68e460b2" x="292.814572" y="144.447297" style="fill: #2ca02c; stroke: #2ca02c"/>
     <use xlink:href="#m4c68e460b2" x="315.940704" y="164.844976" style="fill: #2ca02c; stroke: #2ca02c"/>
     <use xlink:href="#m4c68e460b2" x="339.066836" y="172.454933" style="fill: #2ca02c; stroke: #2ca02c"/>
     <use xlink:href="#m4c68e460b2" x="362.192968" y="171.685923" style="fill: #2ca02c; stroke: #2ca02c"/>
     <use xlink:href="#m4c68e460b2" x="385.3191" y="189.428555" style="fill: #2ca02c; stroke: #2ca02c"/>
     <use xlink:href="#m4c68e460b2" x="408.445232" y="201.98829" style="fill: #2ca02c; stroke: #2ca02c"/>
     <use xlink:href="#m4c68e460b2" x="431.571364" y="284.903968" style="fill: #2ca02c; stroke: #2ca02c"/>
    </g>
   </g>
   <g id="line2d_18">
    <path d="M 62.998636 290.227649 
L 64.44402 276.757327 
L 67.334786 247.203601 
L 73.116319 197.104127 
L 84.679385 160.756741 
L 107.805517 73.558852 
L 130.931649 43.458169 
L 154.057781 29.501458 
L 177.183913 43.387704 
L 200.310045 37.048902 
L 223.436176 40.733939 
L 246.562308 70.559459 
L 269.68844 80.637881 
L 292.814572 98.344177 
L 315.940704 109.64065 
L 339.066836 127.667677 
L 362.192968 143.99655 
L 385.3191 175.377738 
L 408.445232 188.729924 
L 431.571364 241.040539 
" clip-path="url(#p1921ea7075)" style="fill: none; stroke: #1f77b4; stroke-width: 1.5; stroke-linecap: square"/>
   </g>
   <g id="line2d_19">
    <path d="M 62.998636 290.220132 
L 64.44402 285.649729 
L 67.334786 270.239541 
L 73.116319 251.997471 
L 84.679385 218.90759 
L 107.805517 200.659262 
L 130.931649 188.751116 
L 154.057781 158.160681 
L 177.183913 99.170065 
L 200.310045 81.62445 
L 223.436176 81.7803 
L 246.562308 85.557449 
L 269.68844 115.743273 
L 292.814572 114.295142 
L 315.940704 127.160724 
L 339.066836 143.522199 
L 362.192968 148.572541 
L 385.3191 169.55519 
L 408.445232 192.804126 
L 431.571364 281.801364 
" clip-path="url(#p1921ea7075)" style="fill: none; stroke: #ff7f0e; stroke-width: 1.5; stroke-linecap: square"/>
   </g>
   <g id="line2d_20">
    <path d="M 62.998636 290.223636 
L 64.44402 287.858178 
L 67.334786 271.207893 
L 73.116319 254.616663 
L 84.679385 249.082576 
L 107.805517 253.657071 
L 130.931649 221.141112 
L 154.057781 202.021607 
L 177.183913 222.030674 
L 200.310045 175.708779 
L 223.436176 154.450004 
L 246.562308 183.9572 
L 269.68844 150.719498 
L 292.814572 149.210583 
L 315.940704 169.428609 
L 339.066836 179.000184 
L 362.192968 177.460878 
L 385.3191 193.766537 
L 408.445232 204.668065 
L 431.571364 286.390219 
" clip-path="url(#p1921ea7075)" style="fill: none; stroke: #2ca02c; stroke-width: 1.5; stroke-linecap: square"/>
   </g>
   <g id="patch_3">
    <path d="M 44.57 303.64 
L 44.57 10.8 
" style="fill: none; stroke: #000000; stroke-width: 0.8; stroke-linejoin: miter; stroke-linecap: square"/>
   </g>
   <g id="patch_4">
    <path d="M 450 303.64 
L 450 10.8 
" style="fill: none; stroke: #000000; stroke-width: 0.8; stroke-linejoin: miter; stroke-linecap: square"/>
   </g>
   <g id="patch_5">
    <path d="M 44.57 303.64 
L 450 303.64 
" style="fill: none; stroke: #000000; stroke-width: 0.8; stroke-linejoin: miter; stroke-linecap: square"/>
   </g>
   <g id="patch_6">
    <path d="M 44.57 10.8 
L 450 10.8 
" style="fill: none; stroke: #000000; stroke-width: 0.8; stroke-linejoin: miter; stroke-linecap: square"/>
   </g>
   <g id="legend_1">
    <g id="patch_7">
     <path d="M 341.4 77.5125 
L 443 77.5125 
Q 445 77.5125 445 75.5125 
L 445 17.8 
Q 445 15.8 443 15.8 
L 341.4 15.8 
Q 339.4 15.8 339.4 17.8 
L 339.4 75.5125 
Q 339.4 77.5125 341.4 77.5125 
z
" style="fill: #ffffff; opacity: 0.8; stroke: #cccccc; stroke-linejoin: miter"/>
    </g>
    <g id="text_14">
     <!-- Grid size ($r\times c$) -->
     <g transform="translate(353.95 27.398438)scale(0.1 -0.1)">
      <defs>
       <path id="DejaVuSans-47" d="M 3809 666 
L 3809 1919 
L 2778 1919 
L 2778 2438 
L 4434 2438 
L 4434 434 
Q 4069 175 3628 42 
Q 3188 -91 2688 -91 
Q 1594 -91 976 548 
Q 359 1188 359 2328 
Q 359 3472 976 4111 
Q 1594 4750 2688 4750 
Q 3144 4750 3555 4637 
Q 3966 4525 4313 4306 
L 4313 3634 
Q 3963 3931 3569 4081 
Q 3175 4231 2741 4231 
Q 1884 4231 1454 3753 
Q 1025 3275 1025 2328 
Q 1025 1384 1454 906 
Q 1884 428 2741 428 
Q 3075 428 3337 486 
Q 3600 544 3809 666 
z
" transform="scale(0.015625)"/>
       <path id="DejaVuSans-7a" d="M 353 3500 
L 3084 3500 
L 3084 2975 
L 922 459 
L 3084 459 
L 3084 0 
L 275 0 
L 275 525 
L 2438 3041 
L 353 3041 
L 353 3500 
z
" transform="scale(0.015625)"/>
       <path id="DejaVuSans-Oblique-72" d="M 2853 2969 
Q 2766 3016 2653 3041 
Q 2541 3066 2413 3066 
Q 1953 3066 1609 2717 
Q 1266 2369 1153 1784 
L 800 0 
L 225 0 
L 909 3500 
L 1484 3500 
L 1375 2956 
Q 1603 3259 1920 3421 
Q 2238 3584 2597 3584 
Q 2691 3584 2781 3573 
Q 2872 3563 2963 3538 
L 2853 2969 
z
" transform="scale(0.015625)"/>
       <path id="DejaVuSans-d7" d="M 4488 3438 
L 3059 2003 
L 4488 575 
L 4116 197 
L 2681 1631 
L 1247 197 
L 878 575 
L 2303 2003 
L 878 3438 
L 1247 3816 
L 2681 2381 
L 4116 3816 
L 4488 3438 
z
" transform="scale(0.015625)"/>
       <path id="DejaVuSans-Oblique-63" d="M 3431 3366 
L 3316 2797 
Q 3109 2947 2876 3022 
Q 2644 3097 2394 3097 
Q 2119 3097 1870 3000 
Q 1622 2903 1453 2725 
Q 1184 2453 1037 2087 
Q 891 1722 891 1331 
Q 891 859 1127 628 
Q 1363 397 1844 397 
Q 2081 397 2348 469 
Q 2616 541 2906 684 
L 2797 116 
Q 2547 13 2283 -39 
Q 2019 -91 1741 -91 
Q 1044 -91 669 257 
Q 294 606 294 1253 
Q 294 1797 489 2255 
Q 684 2713 1069 3078 
Q 1331 3328 1684 3456 
Q 2038 3584 2456 3584 
Q 2700 3584 2940 3529 
Q 3181 3475 3431 3366 
z
" transform="scale(0.015625)"/>
      </defs>
      <use xlink:href="#DejaVuSans-47" transform="translate(0 0.015625)"/>
      <use xlink:href="#DejaVuSans-72" transform="translate(77.490234 0.015625)"/>
      <use xlink:href="#DejaVuSans-69" transform="translate(118.603516 0.015625)"/>
      <use xlink:href="#DejaVuSans-64" transform="translate(146.386719 0.015625)"/>
      <use xlink:href="#DejaVuSans-20" transform="translate(209.863281 0.015625)"/>
      <use xlink:href="#DejaVuSans-73" transform="translate(241.650391 0.015625)"/>
      <use xlink:href="#DejaVuSans-69" transform="translate(293.75 0.015625)"/>
      <use xlink:href="#DejaVuSans-7a" transform="translate(321.533203 0.015625)"/>
      <use xlink:href="#DejaVuSans-65" transform="translate(374.023438 0.015625)"/>
      <use xlink:href="#DejaVuSans-20" transform="translate(435.546875 0.015625)"/>
      <use xlink:href="#DejaVuSans-28" transform="translate(467.333984 0.015625)"/>
      <use xlink:href="#DejaVuSans-Oblique-72" transform="translate(506.347656 0.015625)"/>
      <use xlink:href="#DejaVuSans-d7" transform="translate(566.943359 0.015625)"/>
      <use xlink:href="#DejaVuSans-Oblique-63" transform="translate(670.214844 0.015625)"/>
      <use xlink:href="#DejaVuSans-29" transform="translate(725.195312 0.015625)"/>
     </g>
    </g>
    <g id="LineCollection_4">
     <path d="M 353.4 43.576563 
L 353.4 33.576563 
" style="fill: none; stroke: #1f77b4"/>
    </g>
    <g id="line2d_21">
     <g>
      <use xlink:href="#m438158bac5" x="353.4" y="43.576563" style="fill: #1f77b4; stroke: #1f77b4"/>
     </g>
    </g>
    <g id="line2d_22">
     <g>
      <use xlink:href="#m438158bac5" x="353.4" y="33.576563" style="fill: #1f77b4; stroke: #1f77b4"/>
     </g>
    </g>
    <g id="line2d_23">
     <path d="M 343.4 38.576563 
L 363.4 38.576563 
" style="fill: none; stroke: #1f77b4; stroke-width: 1.5; stroke-linecap: square"/>
    </g>
    <g id="line2d_24"/>
    <g id="text_15">
     <!-- $1000 \times 1000$ -->
     <g transform="translate(371.4 42.076563)scale(0.1 -0.1)">
      <use xlink:href="#DejaVuSans-31" transform="translate(0 0.78125)"/>
      <use xlink:href="#DejaVuSans-30" transform="translate(63.623047 0.78125)"/>
      <use xlink:href="#DejaVuSans-30" transform="translate(127.246094 0.78125)"/>
      <use xlink:href="#DejaVuSans-30" transform="translate(190.869141 0.78125)"/>
      <use xlink:href="#DejaVuSans-d7" transform="translate(273.974609 0.78125)"/>
      <use xlink:href="#DejaVuSans-31" transform="translate(377.246094 0.78125)"/>
      <use xlink:href="#DejaVuSans-30" transform="translate(440.869141 0.78125)"/>
      <use xlink:href="#DejaVuSans-30" transform="translate(504.492188 0.78125)"/>
      <use xlink:href="#DejaVuSans-30" transform="translate(568.115234 0.78125)"/>
     </g>
    </g>
    <g id="LineCollection_5">
     <path d="M 353.4 58.254688 
L 353.4 48.254688 
" style="fill: none; stroke: #ff7f0e"/>
    </g>
    <g id="line2d_25">
     <g>
      <use xlink:href="#me2942371bd" x="353.4" y="58.254688" style="fill: #ff7f0e; stroke: #ff7f0e"/>
     </g>
    </g>
    <g id="line2d_26">
     <g>
      <use xlink:href="#me2942371bd" x="353.4" y="48.254688" style="fill: #ff7f0e; stroke: #ff7f0e"/>
     </g>
    </g>
    <g id="line2d_27">
     <path d="M 343.4 53.254688 
L 363.4 53.254688 
" style="fill: none; stroke: #ff7f0e; stroke-width: 1.5; stroke-linecap: square"/>
    </g>
    <g id="line2d_28"/>
    <g id="text_16">
     <!-- $5000 \times 1000$ -->
     <g transform="translate(371.4 56.754688)scale(0.1 -0.1)">
      <use xlink:href="#DejaVuSans-35" transform="translate(0 0.78125)"/>
      <use xlink:href="#DejaVuSans-30" transform="translate(63.623047 0.78125)"/>
      <use xlink:href="#DejaVuSans-30" transform="translate(127.246094 0.78125)"/>
      <use xlink:href="#DejaVuSans-30" transform="translate(190.869141 0.78125)"/>
      <use xlink:href="#DejaVuSans-d7" transform="translate(273.974609 0.78125)"/>
      <use xlink:href="#DejaVuSans-31" transform="translate(377.246094 0.78125)"/>
      <use xlink:href="#DejaVuSans-30" transform="translate(440.869141 0.78125)"/>
      <use xlink:href="#DejaVuSans-30" transform="translate(504.492188 0.78125)"/>
      <use xlink:href="#DejaVuSans-30" transform="translate(568.115234 0.78125)"/>
     </g>
    </g>
    <g id="LineCollection_6">
     <path d="M 353.4 72.932813 
L 353.4 62.932813 
" style="fill: none; stroke: #2ca02c"/>
    </g>
    <g id="line2d_29">
     <g>
      <use xlink:href="#m4c68e460b2" x="353.4" y="72.932813" style="fill: #2ca02c; stroke: #2ca02c"/>
     </g>
    </g>
    <g id="line2d_30">
     <g>
      <use xlink:href="#m4c68e460b2" x="353.4" y="62.932813" style="fill: #2ca02c; stroke: #2ca02c"/>
     </g>
    </g>
    <g id="line2d_31">
     <path d="M 343.4 67.932813 
L 363.4 67.932813 
" style="fill: none; stroke: #2ca02c; stroke-width: 1.5; stroke-linecap: square"/>
    </g>
    <g id="line2d_32"/>
    <g id="text_17">
     <!-- $10000 \times 1000$ -->
     <g transform="translate(371.4 71.432813)scale(0.1 -0.1)">
      <use xlink:href="#DejaVuSans-31" transform="translate(0 0.78125)"/>
      <use xlink:href="#DejaVuSans-30" transform="translate(63.623047 0.78125)"/>
      <use xlink:href="#DejaVuSans-30" transform="translate(127.246094 0.78125)"/>
      <use xlink:href="#DejaVuSans-30" transform="translate(190.869141 0.78125)"/>
      <use xlink:href="#DejaVuSans-30" transform="translate(254.492188 0.78125)"/>
      <use xlink:href="#DejaVuSans-d7" transform="translate(337.597656 0.78125)"/>
      <use xlink:href="#DejaVuSans-31" transform="translate(440.869141 0.78125)"/>
      <use xlink:href="#DejaVuSans-30" transform="translate(504.492188 0.78125)"/>
      <use xlink:href="#DejaVuSans-30" transform="translate(568.115234 0.78125)"/>
      <use xlink:href="#DejaVuSans-30" transform="translate(631.738281 0.78125)"/>
     </g>
    </g>
   </g>
  </g>
 </g>
 <defs>
  <clipPath id="p1921ea7075">
   <rect x="44.57" y="10.8" width="405.43" height="292.84"/>
  </clipPath>
 </defs>
</svg>
