<?xml version="1.0" encoding="utf-8" standalone="no"?>
<!DOCTYPE svg PUBLIC "-//W3C//DTD SVG 1.1//EN"
  "http://www.w3.org/Graphics/SVG/1.1/DTD/svg11.dtd">
<svg xmlns:xlink="http://www.w3.org/1999/xlink" width="460.8pt" height="345.6pt" viewBox="0 0 460.8 345.6" xmlns="http://www.w3.org/2000/svg" version="1.1">
 <metadata>
  <rdf:RDF xmlns:dc="http://purl.org/dc/elements/1.1/" xmlns:cc="http://creativecommons.org/ns#" xmlns:rdf="http://www.w3.org/1999/02/22-rdf-syntax-ns#">
   <cc:Work>
    <dc:type rdf:resource="http://purl.org/dc/dcmitype/StillImage"/>
    <dc:date>2022-05-29T17:17:17.563560</dc:date>
    <dc:format>image/svg+xml</dc:format>
    <dc:creator>
     <cc:Agent>
      <dc:title>Matplotlib v3.5.2, https://matplotlib.org/</dc:title>
     </cc:Agent>
    </dc:creator>
   </cc:Work>
  </rdf:RDF>
 </metadata>
 <defs>
  <style type="text/css">*{stroke-linejoin: round; stroke-linecap: butt}</style>
 </defs>
 <g id="figure_1">
  <g id="patch_1">
   <path d="M 0 345.6 
L 460.8 345.6 
L 460.8 0 
L 0 0 
z
" style="fill: #ffffff"/>
  </g>
  <g id="axes_1">
   <g id="patch_2">
    <path d="M 50.6 303.64 
L 450 303.64 
L 450 10.8 
L 50.6 10.8 
z
" style="fill: #ffffff"/>
   </g>
   <g id="matplotlib.axis_1">
    <g id="xtick_1">
     <g id="line2d_1">
      <defs>
       <path id="m3e53bd06ca" d="M 0 0 
L 0 3.5 
" style="stroke: #000000; stroke-width: 0.8"/>
      </defs>
      <g>
       <use xlink:href="#m3e53bd06ca" x="61.492727" y="303.64" style="stroke: #000000; stroke-width: 0.8"/>
      </g>
     </g>
     <g id="text_1">
      <!-- 0 -->
      <g transform="translate(58.311477 318.238437)scale(0.1 -0.1)">
       <defs>
        <path id="DejaVuSans-30" d="M 2034 4250 
Q 1547 4250 1301 3770 
Q 1056 3291 1056 2328 
Q 1056 1369 1301 889 
Q 1547 409 2034 409 
Q 2525 409 2770 889 
Q 3016 1369 3016 2328 
Q 3016 3291 2770 3770 
Q 2525 4250 2034 4250 
z
M 2034 4750 
Q 2819 4750 3233 4129 
Q 3647 3509 3647 2328 
Q 3647 1150 3233 529 
Q 2819 -91 2034 -91 
Q 1250 -91 836 529 
Q 422 1150 422 2328 
Q 422 3509 836 4129 
Q 1250 4750 2034 4750 
z
" transform="scale(0.015625)"/>
       </defs>
       <use xlink:href="#DejaVuSans-30"/>
      </g>
     </g>
    </g>
    <g id="xtick_2">
     <g id="line2d_2">
      <g>
       <use xlink:href="#m3e53bd06ca" x="134.110909" y="303.64" style="stroke: #000000; stroke-width: 0.8"/>
      </g>
     </g>
     <g id="text_2">
      <!-- 1000 -->
      <g transform="translate(121.385909 318.238437)scale(0.1 -0.1)">
       <defs>
        <path id="DejaVuSans-31" d="M 794 531 
L 1825 531 
L 1825 4091 
L 703 3866 
L 703 4441 
L 1819 4666 
L 2450 4666 
L 2450 531 
L 3481 531 
L 3481 0 
L 794 0 
L 794 531 
z
" transform="scale(0.015625)"/>
       </defs>
       <use xlink:href="#DejaVuSans-31"/>
       <use xlink:href="#DejaVuSans-30" x="63.623047"/>
       <use xlink:href="#DejaVuSans-30" x="127.246094"/>
       <use xlink:href="#DejaVuSans-30" x="190.869141"/>
      </g>
     </g>
    </g>
    <g id="xtick_3">
     <g id="line2d_3">
      <g>
       <use xlink:href="#m3e53bd06ca" x="206.729091" y="303.64" style="stroke: #000000; stroke-width: 0.8"/>
      </g>
     </g>
     <g id="text_3">
      <!-- 2000 -->
      <g transform="translate(194.004091 318.238437)scale(0.1 -0.1)">
       <defs>
        <path id="DejaVuSans-32" d="M 1228 531 
L 3431 531 
L 3431 0 
L 469 0 
L 469 531 
Q 828 903 1448 1529 
Q 2069 2156 2228 2338 
Q 2531 2678 2651 2914 
Q 2772 3150 2772 3378 
Q 2772 3750 2511 3984 
Q 2250 4219 1831 4219 
Q 1534 4219 1204 4116 
Q 875 4013 500 3803 
L 500 4441 
Q 881 4594 1212 4672 
Q 1544 4750 1819 4750 
Q 2544 4750 2975 4387 
Q 3406 4025 3406 3419 
Q 3406 3131 3298 2873 
Q 3191 2616 2906 2266 
Q 2828 2175 2409 1742 
Q 1991 1309 1228 531 
z
" transform="scale(0.015625)"/>
       </defs>
       <use xlink:href="#DejaVuSans-32"/>
       <use xlink:href="#DejaVuSans-30" x="63.623047"/>
       <use xlink:href="#DejaVuSans-30" x="127.246094"/>
       <use xlink:href="#DejaVuSans-30" x="190.869141"/>
      </g>
     </g>
    </g>
    <g id="xtick_4">
     <g id="line2d_4">
      <g>
       <use xlink:href="#m3e53bd06ca" x="279.347273" y="303.64" style="stroke: #000000; stroke-width: 0.8"/>
      </g>
     </g>
     <g id="text_4">
      <!-- 3000 -->
      <g transform="translate(266.622273 318.238437)scale(0.1 -0.1)">
       <defs>
        <path id="DejaVuSans-33" d="M 2597 2516 
Q 3050 2419 3304 2112 
Q 3559 1806 3559 1356 
Q 3559 666 3084 287 
Q 2609 -91 1734 -91 
Q 1441 -91 1130 -33 
Q 819 25 488 141 
L 488 750 
Q 750 597 1062 519 
Q 1375 441 1716 441 
Q 2309 441 2620 675 
Q 2931 909 2931 1356 
Q 2931 1769 2642 2001 
Q 2353 2234 1838 2234 
L 1294 2234 
L 1294 2753 
L 1863 2753 
Q 2328 2753 2575 2939 
Q 2822 3125 2822 3475 
Q 2822 3834 2567 4026 
Q 2313 4219 1838 4219 
Q 1578 4219 1281 4162 
Q 984 4106 628 3988 
L 628 4550 
Q 988 4650 1302 4700 
Q 1616 4750 1894 4750 
Q 2613 4750 3031 4423 
Q 3450 4097 3450 3541 
Q 3450 3153 3228 2886 
Q 3006 2619 2597 2516 
z
" transform="scale(0.015625)"/>
       </defs>
       <use xlink:href="#DejaVuSans-33"/>
       <use xlink:href="#DejaVuSans-30" x="63.623047"/>
       <use xlink:href="#DejaVuSans-30" x="127.246094"/>
       <use xlink:href="#DejaVuSans-30" x="190.869141"/>
      </g>
     </g>
    </g>
    <g id="xtick_5">
     <g id="line2d_5">
      <g>
       <use xlink:href="#m3e53bd06ca" x="351.965455" y="303.64" style="stroke: #000000; stroke-width: 0.8"/>
      </g>
     </g>
     <g id="text_5">
      <!-- 4000 -->
      <g transform="translate(339.240455 318.238437)scale(0.1 -0.1)">
       <defs>
        <path id="DejaVuSans-34" d="M 2419 4116 
L 825 1625 
L 2419 1625 
L 2419 4116 
z
M 2253 4666 
L 3047 4666 
L 3047 1625 
L 3713 1625 
L 3713 1100 
L 3047 1100 
L 3047 0 
L 2419 0 
L 2419 1100 
L 313 1100 
L 313 1709 
L 2253 4666 
z
" transform="scale(0.015625)"/>
       </defs>
       <use xlink:href="#DejaVuSans-34"/>
       <use xlink:href="#DejaVuSans-30" x="63.623047"/>
       <use xlink:href="#DejaVuSans-30" x="127.246094"/>
       <use xlink:href="#DejaVuSans-30" x="190.869141"/>
      </g>
     </g>
    </g>
    <g id="xtick_6">
     <g id="line2d_6">
      <g>
       <use xlink:href="#m3e53bd06ca" x="424.583636" y="303.64" style="stroke: #000000; stroke-width: 0.8"/>
      </g>
     </g>
     <g id="text_6">
      <!-- 5000 -->
      <g transform="translate(411.858636 318.238437)scale(0.1 -0.1)">
       <defs>
        <path id="DejaVuSans-35" d="M 691 4666 
L 3169 4666 
L 3169 4134 
L 1269 4134 
L 1269 2991 
Q 1406 3038 1543 3061 
Q 1681 3084 1819 3084 
Q 2600 3084 3056 2656 
Q 3513 2228 3513 1497 
Q 3513 744 3044 326 
Q 2575 -91 1722 -91 
Q 1428 -91 1123 -41 
Q 819 9 494 109 
L 494 744 
Q 775 591 1075 516 
Q 1375 441 1709 441 
Q 2250 441 2565 725 
Q 2881 1009 2881 1497 
Q 2881 1984 2565 2268 
Q 2250 2553 1709 2553 
Q 1456 2553 1204 2497 
Q 953 2441 691 2322 
L 691 4666 
z
" transform="scale(0.015625)"/>
       </defs>
       <use xlink:href="#DejaVuSans-35"/>
       <use xlink:href="#DejaVuSans-30" x="63.623047"/>
       <use xlink:href="#DejaVuSans-30" x="127.246094"/>
       <use xlink:href="#DejaVuSans-30" x="190.869141"/>
      </g>
     </g>
    </g>
    <g id="text_7">
     <!-- number of columns/rows -->
     <g transform="translate(188.397656 331.916562)scale(0.1 -0.1)">
      <defs>
       <path id="DejaVuSans-6e" d="M 3513 2113 
L 3513 0 
L 2938 0 
L 2938 2094 
Q 2938 2591 2744 2837 
Q 2550 3084 2163 3084 
Q 1697 3084 1428 2787 
Q 1159 2491 1159 1978 
L 1159 0 
L 581 0 
L 581 3500 
L 1159 3500 
L 1159 2956 
Q 1366 3272 1645 3428 
Q 1925 3584 2291 3584 
Q 2894 3584 3203 3211 
Q 3513 2838 3513 2113 
z
" transform="scale(0.015625)"/>
       <path id="DejaVuSans-75" d="M 544 1381 
L 544 3500 
L 1119 3500 
L 1119 1403 
Q 1119 906 1312 657 
Q 1506 409 1894 409 
Q 2359 409 2629 706 
Q 2900 1003 2900 1516 
L 2900 3500 
L 3475 3500 
L 3475 0 
L 2900 0 
L 2900 538 
Q 2691 219 2414 64 
Q 2138 -91 1772 -91 
Q 1169 -91 856 284 
Q 544 659 544 1381 
z
M 1991 3584 
L 1991 3584 
z
" transform="scale(0.015625)"/>
       <path id="DejaVuSans-6d" d="M 3328 2828 
Q 3544 3216 3844 3400 
Q 4144 3584 4550 3584 
Q 5097 3584 5394 3201 
Q 5691 2819 5691 2113 
L 5691 0 
L 5113 0 
L 5113 2094 
Q 5113 2597 4934 2840 
Q 4756 3084 4391 3084 
Q 3944 3084 3684 2787 
Q 3425 2491 3425 1978 
L 3425 0 
L 2847 0 
L 2847 2094 
Q 2847 2600 2669 2842 
Q 2491 3084 2119 3084 
Q 1678 3084 1418 2786 
Q 1159 2488 1159 1978 
L 1159 0 
L 581 0 
L 581 3500 
L 1159 3500 
L 1159 2956 
Q 1356 3278 1631 3431 
Q 1906 3584 2284 3584 
Q 2666 3584 2933 3390 
Q 3200 3197 3328 2828 
z
" transform="scale(0.015625)"/>
       <path id="DejaVuSans-62" d="M 3116 1747 
Q 3116 2381 2855 2742 
Q 2594 3103 2138 3103 
Q 1681 3103 1420 2742 
Q 1159 2381 1159 1747 
Q 1159 1113 1420 752 
Q 1681 391 2138 391 
Q 2594 391 2855 752 
Q 3116 1113 3116 1747 
z
M 1159 2969 
Q 1341 3281 1617 3432 
Q 1894 3584 2278 3584 
Q 2916 3584 3314 3078 
Q 3713 2572 3713 1747 
Q 3713 922 3314 415 
Q 2916 -91 2278 -91 
Q 1894 -91 1617 61 
Q 1341 213 1159 525 
L 1159 0 
L 581 0 
L 581 4863 
L 1159 4863 
L 1159 2969 
z
" transform="scale(0.015625)"/>
       <path id="DejaVuSans-65" d="M 3597 1894 
L 3597 1613 
L 953 1613 
Q 991 1019 1311 708 
Q 1631 397 2203 397 
Q 2534 397 2845 478 
Q 3156 559 3463 722 
L 3463 178 
Q 3153 47 2828 -22 
Q 2503 -91 2169 -91 
Q 1331 -91 842 396 
Q 353 884 353 1716 
Q 353 2575 817 3079 
Q 1281 3584 2069 3584 
Q 2775 3584 3186 3129 
Q 3597 2675 3597 1894 
z
M 3022 2063 
Q 3016 2534 2758 2815 
Q 2500 3097 2075 3097 
Q 1594 3097 1305 2825 
Q 1016 2553 972 2059 
L 3022 2063 
z
" transform="scale(0.015625)"/>
       <path id="DejaVuSans-72" d="M 2631 2963 
Q 2534 3019 2420 3045 
Q 2306 3072 2169 3072 
Q 1681 3072 1420 2755 
Q 1159 2438 1159 1844 
L 1159 0 
L 581 0 
L 581 3500 
L 1159 3500 
L 1159 2956 
Q 1341 3275 1631 3429 
Q 1922 3584 2338 3584 
Q 2397 3584 2469 3576 
Q 2541 3569 2628 3553 
L 2631 2963 
z
" transform="scale(0.015625)"/>
       <path id="DejaVuSans-20" transform="scale(0.015625)"/>
       <path id="DejaVuSans-6f" d="M 1959 3097 
Q 1497 3097 1228 2736 
Q 959 2375 959 1747 
Q 959 1119 1226 758 
Q 1494 397 1959 397 
Q 2419 397 2687 759 
Q 2956 1122 2956 1747 
Q 2956 2369 2687 2733 
Q 2419 3097 1959 3097 
z
M 1959 3584 
Q 2709 3584 3137 3096 
Q 3566 2609 3566 1747 
Q 3566 888 3137 398 
Q 2709 -91 1959 -91 
Q 1206 -91 779 398 
Q 353 888 353 1747 
Q 353 2609 779 3096 
Q 1206 3584 1959 3584 
z
" transform="scale(0.015625)"/>
       <path id="DejaVuSans-66" d="M 2375 4863 
L 2375 4384 
L 1825 4384 
Q 1516 4384 1395 4259 
Q 1275 4134 1275 3809 
L 1275 3500 
L 2222 3500 
L 2222 3053 
L 1275 3053 
L 1275 0 
L 697 0 
L 697 3053 
L 147 3053 
L 147 3500 
L 697 3500 
L 697 3744 
Q 697 4328 969 4595 
Q 1241 4863 1831 4863 
L 2375 4863 
z
" transform="scale(0.015625)"/>
       <path id="DejaVuSans-63" d="M 3122 3366 
L 3122 2828 
Q 2878 2963 2633 3030 
Q 2388 3097 2138 3097 
Q 1578 3097 1268 2742 
Q 959 2388 959 1747 
Q 959 1106 1268 751 
Q 1578 397 2138 397 
Q 2388 397 2633 464 
Q 2878 531 3122 666 
L 3122 134 
Q 2881 22 2623 -34 
Q 2366 -91 2075 -91 
Q 1284 -91 818 406 
Q 353 903 353 1747 
Q 353 2603 823 3093 
Q 1294 3584 2113 3584 
Q 2378 3584 2631 3529 
Q 2884 3475 3122 3366 
z
" transform="scale(0.015625)"/>
       <path id="DejaVuSans-6c" d="M 603 4863 
L 1178 4863 
L 1178 0 
L 603 0 
L 603 4863 
z
" transform="scale(0.015625)"/>
       <path id="DejaVuSans-73" d="M 2834 3397 
L 2834 2853 
Q 2591 2978 2328 3040 
Q 2066 3103 1784 3103 
Q 1356 3103 1142 2972 
Q 928 2841 928 2578 
Q 928 2378 1081 2264 
Q 1234 2150 1697 2047 
L 1894 2003 
Q 2506 1872 2764 1633 
Q 3022 1394 3022 966 
Q 3022 478 2636 193 
Q 2250 -91 1575 -91 
Q 1294 -91 989 -36 
Q 684 19 347 128 
L 347 722 
Q 666 556 975 473 
Q 1284 391 1588 391 
Q 1994 391 2212 530 
Q 2431 669 2431 922 
Q 2431 1156 2273 1281 
Q 2116 1406 1581 1522 
L 1381 1569 
Q 847 1681 609 1914 
Q 372 2147 372 2553 
Q 372 3047 722 3315 
Q 1072 3584 1716 3584 
Q 2034 3584 2315 3537 
Q 2597 3491 2834 3397 
z
" transform="scale(0.015625)"/>
       <path id="DejaVuSans-2f" d="M 1625 4666 
L 2156 4666 
L 531 -594 
L 0 -594 
L 1625 4666 
z
" transform="scale(0.015625)"/>
       <path id="DejaVuSans-77" d="M 269 3500 
L 844 3500 
L 1563 769 
L 2278 3500 
L 2956 3500 
L 3675 769 
L 4391 3500 
L 4966 3500 
L 4050 0 
L 3372 0 
L 2619 2869 
L 1863 0 
L 1184 0 
L 269 3500 
z
" transform="scale(0.015625)"/>
      </defs>
      <use xlink:href="#DejaVuSans-6e"/>
      <use xlink:href="#DejaVuSans-75" x="63.378906"/>
      <use xlink:href="#DejaVuSans-6d" x="126.757812"/>
      <use xlink:href="#DejaVuSans-62" x="224.169922"/>
      <use xlink:href="#DejaVuSans-65" x="287.646484"/>
      <use xlink:href="#DejaVuSans-72" x="349.169922"/>
      <use xlink:href="#DejaVuSans-20" x="390.283203"/>
      <use xlink:href="#DejaVuSans-6f" x="422.070312"/>
      <use xlink:href="#DejaVuSans-66" x="483.251953"/>
      <use xlink:href="#DejaVuSans-20" x="518.457031"/>
      <use xlink:href="#DejaVuSans-63" x="550.244141"/>
      <use xlink:href="#DejaVuSans-6f" x="605.224609"/>
      <use xlink:href="#DejaVuSans-6c" x="666.40625"/>
      <use xlink:href="#DejaVuSans-75" x="694.189453"/>
      <use xlink:href="#DejaVuSans-6d" x="757.568359"/>
      <use xlink:href="#DejaVuSans-6e" x="854.980469"/>
      <use xlink:href="#DejaVuSans-73" x="918.359375"/>
      <use xlink:href="#DejaVuSans-2f" x="970.458984"/>
      <use xlink:href="#DejaVuSans-72" x="1004.150391"/>
      <use xlink:href="#DejaVuSans-6f" x="1043.013672"/>
      <use xlink:href="#DejaVuSans-77" x="1104.195312"/>
      <use xlink:href="#DejaVuSans-73" x="1185.982422"/>
     </g>
    </g>
   </g>
   <g id="matplotlib.axis_2">
    <g id="ytick_1">
     <g id="line2d_7">
      <defs>
       <path id="m8f3fc628c9" d="M 0 0 
L -3.5 0 
" style="stroke: #000000; stroke-width: 0.8"/>
      </defs>
      <g>
       <use xlink:href="#m8f3fc628c9" x="50.6" y="298.057153" style="stroke: #000000; stroke-width: 0.8"/>
      </g>
     </g>
     <g id="text_8">
      <!-- 0.0 -->
      <g transform="translate(27.696875 301.856371)scale(0.1 -0.1)">
       <defs>
        <path id="DejaVuSans-2e" d="M 684 794 
L 1344 794 
L 1344 0 
L 684 0 
L 684 794 
z
" transform="scale(0.015625)"/>
       </defs>
       <use xlink:href="#DejaVuSans-30"/>
       <use xlink:href="#DejaVuSans-2e" x="63.623047"/>
       <use xlink:href="#DejaVuSans-30" x="95.410156"/>
      </g>
     </g>
    </g>
    <g id="ytick_2">
     <g id="line2d_8">
      <g>
       <use xlink:href="#m8f3fc628c9" x="50.6" y="247.844205" style="stroke: #000000; stroke-width: 0.8"/>
      </g>
     </g>
     <g id="text_9">
      <!-- 0.5 -->
      <g transform="translate(27.696875 251.643423)scale(0.1 -0.1)">
       <use xlink:href="#DejaVuSans-30"/>
       <use xlink:href="#DejaVuSans-2e" x="63.623047"/>
       <use xlink:href="#DejaVuSans-35" x="95.410156"/>
      </g>
     </g>
    </g>
    <g id="ytick_3">
     <g id="line2d_9">
      <g>
       <use xlink:href="#m8f3fc628c9" x="50.6" y="197.631256" style="stroke: #000000; stroke-width: 0.8"/>
      </g>
     </g>
     <g id="text_10">
      <!-- 1.0 -->
      <g transform="translate(27.696875 201.430475)scale(0.1 -0.1)">
       <use xlink:href="#DejaVuSans-31"/>
       <use xlink:href="#DejaVuSans-2e" x="63.623047"/>
       <use xlink:href="#DejaVuSans-30" x="95.410156"/>
      </g>
     </g>
    </g>
    <g id="ytick_4">
     <g id="line2d_10">
      <g>
       <use xlink:href="#m8f3fc628c9" x="50.6" y="147.418308" style="stroke: #000000; stroke-width: 0.8"/>
      </g>
     </g>
     <g id="text_11">
      <!-- 1.5 -->
      <g transform="translate(27.696875 151.217527)scale(0.1 -0.1)">
       <use xlink:href="#DejaVuSans-31"/>
       <use xlink:href="#DejaVuSans-2e" x="63.623047"/>
       <use xlink:href="#DejaVuSans-35" x="95.410156"/>
      </g>
     </g>
    </g>
    <g id="ytick_5">
     <g id="line2d_11">
      <g>
       <use xlink:href="#m8f3fc628c9" x="50.6" y="97.20536" style="stroke: #000000; stroke-width: 0.8"/>
      </g>
     </g>
     <g id="text_12">
      <!-- 2.0 -->
      <g transform="translate(27.696875 101.004579)scale(0.1 -0.1)">
       <use xlink:href="#DejaVuSans-32"/>
       <use xlink:href="#DejaVuSans-2e" x="63.623047"/>
       <use xlink:href="#DejaVuSans-30" x="95.410156"/>
      </g>
     </g>
    </g>
    <g id="ytick_6">
     <g id="line2d_12">
      <g>
       <use xlink:href="#m8f3fc628c9" x="50.6" y="46.992412" style="stroke: #000000; stroke-width: 0.8"/>
      </g>
     </g>
     <g id="text_13">
      <!-- 2.5 -->
      <g transform="translate(27.696875 50.791631)scale(0.1 -0.1)">
       <use xlink:href="#DejaVuSans-32"/>
       <use xlink:href="#DejaVuSans-2e" x="63.623047"/>
       <use xlink:href="#DejaVuSans-35" x="95.410156"/>
      </g>
     </g>
    </g>
    <g id="text_14">
     <!-- Average runtime over 5 runs ($s$) -->
     <g transform="translate(21.596875 237.52)rotate(-90)scale(0.1 -0.1)">
      <defs>
       <path id="DejaVuSans-41" d="M 2188 4044 
L 1331 1722 
L 3047 1722 
L 2188 4044 
z
M 1831 4666 
L 2547 4666 
L 4325 0 
L 3669 0 
L 3244 1197 
L 1141 1197 
L 716 0 
L 50 0 
L 1831 4666 
z
" transform="scale(0.015625)"/>
       <path id="DejaVuSans-76" d="M 191 3500 
L 800 3500 
L 1894 563 
L 2988 3500 
L 3597 3500 
L 2284 0 
L 1503 0 
L 191 3500 
z
" transform="scale(0.015625)"/>
       <path id="DejaVuSans-61" d="M 2194 1759 
Q 1497 1759 1228 1600 
Q 959 1441 959 1056 
Q 959 750 1161 570 
Q 1363 391 1709 391 
Q 2188 391 2477 730 
Q 2766 1069 2766 1631 
L 2766 1759 
L 2194 1759 
z
M 3341 1997 
L 3341 0 
L 2766 0 
L 2766 531 
Q 2569 213 2275 61 
Q 1981 -91 1556 -91 
Q 1019 -91 701 211 
Q 384 513 384 1019 
Q 384 1609 779 1909 
Q 1175 2209 1959 2209 
L 2766 2209 
L 2766 2266 
Q 2766 2663 2505 2880 
Q 2244 3097 1772 3097 
Q 1472 3097 1187 3025 
Q 903 2953 641 2809 
L 641 3341 
Q 956 3463 1253 3523 
Q 1550 3584 1831 3584 
Q 2591 3584 2966 3190 
Q 3341 2797 3341 1997 
z
" transform="scale(0.015625)"/>
       <path id="DejaVuSans-67" d="M 2906 1791 
Q 2906 2416 2648 2759 
Q 2391 3103 1925 3103 
Q 1463 3103 1205 2759 
Q 947 2416 947 1791 
Q 947 1169 1205 825 
Q 1463 481 1925 481 
Q 2391 481 2648 825 
Q 2906 1169 2906 1791 
z
M 3481 434 
Q 3481 -459 3084 -895 
Q 2688 -1331 1869 -1331 
Q 1566 -1331 1297 -1286 
Q 1028 -1241 775 -1147 
L 775 -588 
Q 1028 -725 1275 -790 
Q 1522 -856 1778 -856 
Q 2344 -856 2625 -561 
Q 2906 -266 2906 331 
L 2906 616 
Q 2728 306 2450 153 
Q 2172 0 1784 0 
Q 1141 0 747 490 
Q 353 981 353 1791 
Q 353 2603 747 3093 
Q 1141 3584 1784 3584 
Q 2172 3584 2450 3431 
Q 2728 3278 2906 2969 
L 2906 3500 
L 3481 3500 
L 3481 434 
z
" transform="scale(0.015625)"/>
       <path id="DejaVuSans-74" d="M 1172 4494 
L 1172 3500 
L 2356 3500 
L 2356 3053 
L 1172 3053 
L 1172 1153 
Q 1172 725 1289 603 
Q 1406 481 1766 481 
L 2356 481 
L 2356 0 
L 1766 0 
Q 1100 0 847 248 
Q 594 497 594 1153 
L 594 3053 
L 172 3053 
L 172 3500 
L 594 3500 
L 594 4494 
L 1172 4494 
z
" transform="scale(0.015625)"/>
       <path id="DejaVuSans-69" d="M 603 3500 
L 1178 3500 
L 1178 0 
L 603 0 
L 603 3500 
z
M 603 4863 
L 1178 4863 
L 1178 4134 
L 603 4134 
L 603 4863 
z
" transform="scale(0.015625)"/>
       <path id="DejaVuSans-28" d="M 1984 4856 
Q 1566 4138 1362 3434 
Q 1159 2731 1159 2009 
Q 1159 1288 1364 580 
Q 1569 -128 1984 -844 
L 1484 -844 
Q 1016 -109 783 600 
Q 550 1309 550 2009 
Q 550 2706 781 3412 
Q 1013 4119 1484 4856 
L 1984 4856 
z
" transform="scale(0.015625)"/>
       <path id="DejaVuSans-Oblique-73" d="M 3200 3397 
L 3091 2853 
Q 2863 2978 2609 3040 
Q 2356 3103 2088 3103 
Q 1634 3103 1373 2948 
Q 1113 2794 1113 2528 
Q 1113 2219 1719 2053 
Q 1766 2041 1788 2034 
L 1972 1978 
Q 2547 1819 2739 1644 
Q 2931 1469 2931 1166 
Q 2931 609 2489 259 
Q 2047 -91 1331 -91 
Q 1053 -91 747 -37 
Q 441 16 72 128 
L 184 722 
Q 500 559 806 475 
Q 1113 391 1394 391 
Q 1816 391 2080 572 
Q 2344 753 2344 1031 
Q 2344 1331 1650 1516 
L 1591 1531 
L 1394 1581 
Q 956 1697 753 1886 
Q 550 2075 550 2369 
Q 550 2928 970 3256 
Q 1391 3584 2113 3584 
Q 2397 3584 2667 3537 
Q 2938 3491 3200 3397 
z
" transform="scale(0.015625)"/>
       <path id="DejaVuSans-29" d="M 513 4856 
L 1013 4856 
Q 1481 4119 1714 3412 
Q 1947 2706 1947 2009 
Q 1947 1309 1714 600 
Q 1481 -109 1013 -844 
L 513 -844 
Q 928 -128 1133 580 
Q 1338 1288 1338 2009 
Q 1338 2731 1133 3434 
Q 928 4138 513 4856 
z
" transform="scale(0.015625)"/>
      </defs>
      <use xlink:href="#DejaVuSans-41" transform="translate(0 0.015625)"/>
      <use xlink:href="#DejaVuSans-76" transform="translate(68.408203 0.015625)"/>
      <use xlink:href="#DejaVuSans-65" transform="translate(127.587891 0.015625)"/>
      <use xlink:href="#DejaVuSans-72" transform="translate(189.111328 0.015625)"/>
      <use xlink:href="#DejaVuSans-61" transform="translate(230.224609 0.015625)"/>
      <use xlink:href="#DejaVuSans-67" transform="translate(291.503906 0.015625)"/>
      <use xlink:href="#DejaVuSans-65" transform="translate(354.980469 0.015625)"/>
      <use xlink:href="#DejaVuSans-20" transform="translate(416.503906 0.015625)"/>
      <use xlink:href="#DejaVuSans-72" transform="translate(448.291016 0.015625)"/>
      <use xlink:href="#DejaVuSans-75" transform="translate(489.404297 0.015625)"/>
      <use xlink:href="#DejaVuSans-6e" transform="translate(552.783203 0.015625)"/>
      <use xlink:href="#DejaVuSans-74" transform="translate(616.162109 0.015625)"/>
      <use xlink:href="#DejaVuSans-69" transform="translate(655.371094 0.015625)"/>
      <use xlink:href="#DejaVuSans-6d" transform="translate(683.154297 0.015625)"/>
      <use xlink:href="#DejaVuSans-65" transform="translate(780.566406 0.015625)"/>
      <use xlink:href="#DejaVuSans-20" transform="translate(842.089844 0.015625)"/>
      <use xlink:href="#DejaVuSans-6f" transform="translate(873.876953 0.015625)"/>
      <use xlink:href="#DejaVuSans-76" transform="translate(935.058594 0.015625)"/>
      <use xlink:href="#DejaVuSans-65" transform="translate(994.238281 0.015625)"/>
      <use xlink:href="#DejaVuSans-72" transform="translate(1055.761719 0.015625)"/>
      <use xlink:href="#DejaVuSans-20" transform="translate(1096.875 0.015625)"/>
      <use xlink:href="#DejaVuSans-35" transform="translate(1128.662109 0.015625)"/>
      <use xlink:href="#DejaVuSans-20" transform="translate(1192.285156 0.015625)"/>
      <use xlink:href="#DejaVuSans-72" transform="translate(1224.072266 0.015625)"/>
      <use xlink:href="#DejaVuSans-75" transform="translate(1265.185547 0.015625)"/>
      <use xlink:href="#DejaVuSans-6e" transform="translate(1328.564453 0.015625)"/>
      <use xlink:href="#DejaVuSans-73" transform="translate(1391.943359 0.015625)"/>
      <use xlink:href="#DejaVuSans-20" transform="translate(1444.042969 0.015625)"/>
      <use xlink:href="#DejaVuSans-28" transform="translate(1475.830078 0.015625)"/>
      <use xlink:href="#DejaVuSans-Oblique-73" transform="translate(1514.84375 0.015625)"/>
      <use xlink:href="#DejaVuSans-29" transform="translate(1566.943359 0.015625)"/>
     </g>
    </g>
   </g>
   <g id="LineCollection_1">
    <path d="M 68.754545 289.445216 
L 68.754545 289.326903 
" clip-path="url(#p666a1b9307)" style="fill: none; stroke: #1f77b4; stroke-width: 1.5"/>
    <path d="M 105.063636 263.654757 
L 105.063636 262.26944 
" clip-path="url(#p666a1b9307)" style="fill: none; stroke: #1f77b4; stroke-width: 1.5"/>
    <path d="M 141.372727 238.956981 
L 141.372727 237.104552 
" clip-path="url(#p666a1b9307)" style="fill: none; stroke: #1f77b4; stroke-width: 1.5"/>
    <path d="M 177.681818 212.11078 
L 177.681818 204.295361 
" clip-path="url(#p666a1b9307)" style="fill: none; stroke: #1f77b4; stroke-width: 1.5"/>
    <path d="M 213.990909 191.238437 
L 213.990909 188.442597 
" clip-path="url(#p666a1b9307)" style="fill: none; stroke: #1f77b4; stroke-width: 1.5"/>
    <path d="M 250.3 163.282531 
L 250.3 157.234674 
" clip-path="url(#p666a1b9307)" style="fill: none; stroke: #1f77b4; stroke-width: 1.5"/>
    <path d="M 286.609091 134.026258 
L 286.609091 118.52708 
" clip-path="url(#p666a1b9307)" style="fill: none; stroke: #1f77b4; stroke-width: 1.5"/>
    <path d="M 322.918182 108.412068 
L 322.918182 93.071126 
" clip-path="url(#p666a1b9307)" style="fill: none; stroke: #1f77b4; stroke-width: 1.5"/>
    <path d="M 359.227273 92.249814 
L 359.227273 71.176224 
" clip-path="url(#p666a1b9307)" style="fill: none; stroke: #1f77b4; stroke-width: 1.5"/>
    <path d="M 395.536364 64.408728 
L 395.536364 48.774676 
" clip-path="url(#p666a1b9307)" style="fill: none; stroke: #1f77b4; stroke-width: 1.5"/>
    <path d="M 431.845455 47.393096 
L 431.845455 24.110909 
" clip-path="url(#p666a1b9307)" style="fill: none; stroke: #1f77b4; stroke-width: 1.5"/>
   </g>
   <g id="line2d_13">
    <defs>
     <path id="mbefaa42a55" d="M 2 0 
L -2 -0 
" style="stroke: #1f77b4"/>
    </defs>
    <g clip-path="url(#p666a1b9307)">
     <use xlink:href="#mbefaa42a55" x="68.754545" y="289.445216" style="fill: #1f77b4; stroke: #1f77b4"/>
     <use xlink:href="#mbefaa42a55" x="105.063636" y="263.654757" style="fill: #1f77b4; stroke: #1f77b4"/>
     <use xlink:href="#mbefaa42a55" x="141.372727" y="238.956981" style="fill: #1f77b4; stroke: #1f77b4"/>
     <use xlink:href="#mbefaa42a55" x="177.681818" y="212.11078" style="fill: #1f77b4; stroke: #1f77b4"/>
     <use xlink:href="#mbefaa42a55" x="213.990909" y="191.238437" style="fill: #1f77b4; stroke: #1f77b4"/>
     <use xlink:href="#mbefaa42a55" x="250.3" y="163.282531" style="fill: #1f77b4; stroke: #1f77b4"/>
     <use xlink:href="#mbefaa42a55" x="286.609091" y="134.026258" style="fill: #1f77b4; stroke: #1f77b4"/>
     <use xlink:href="#mbefaa42a55" x="322.918182" y="108.412068" style="fill: #1f77b4; stroke: #1f77b4"/>
     <use xlink:href="#mbefaa42a55" x="359.227273" y="92.249814" style="fill: #1f77b4; stroke: #1f77b4"/>
     <use xlink:href="#mbefaa42a55" x="395.536364" y="64.408728" style="fill: #1f77b4; stroke: #1f77b4"/>
     <use xlink:href="#mbefaa42a55" x="431.845455" y="47.393096" style="fill: #1f77b4; stroke: #1f77b4"/>
    </g>
   </g>
   <g id="line2d_14">
    <g clip-path="url(#p666a1b9307)">
     <use xlink:href="#mbefaa42a55" x="68.754545" y="289.326903" style="fill: #1f77b4; stroke: #1f77b4"/>
     <use xlink:href="#mbefaa42a55" x="105.063636" y="262.26944" style="fill: #1f77b4; stroke: #1f77b4"/>
     <use xlink:href="#mbefaa42a55" x="141.372727" y="237.104552" style="fill: #1f77b4; stroke: #1f77b4"/>
     <use xlink:href="#mbefaa42a55" x="177.681818" y="204.295361" style="fill: #1f77b4; stroke: #1f77b4"/>
     <use xlink:href="#mbefaa42a55" x="213.990909" y="188.442597" style="fill: #1f77b4; stroke: #1f77b4"/>
     <use xlink:href="#mbefaa42a55" x="250.3" y="157.234674" style="fill: #1f77b4; stroke: #1f77b4"/>
     <use xlink:href="#mbefaa42a55" x="286.609091" y="118.52708" style="fill: #1f77b4; stroke: #1f77b4"/>
     <use xlink:href="#mbefaa42a55" x="322.918182" y="93.071126" style="fill: #1f77b4; stroke: #1f77b4"/>
     <use xlink:href="#mbefaa42a55" x="359.227273" y="71.176224" style="fill: #1f77b4; stroke: #1f77b4"/>
     <use xlink:href="#mbefaa42a55" x="395.536364" y="48.774676" style="fill: #1f77b4; stroke: #1f77b4"/>
     <use xlink:href="#mbefaa42a55" x="431.845455" y="24.110909" style="fill: #1f77b4; stroke: #1f77b4"/>
    </g>
   </g>
   <g id="LineCollection_2">
    <path d="M 68.754545 290.329091 
L 68.754545 290.217272 
" clip-path="url(#p666a1b9307)" style="fill: none; stroke: #ff7f0e; stroke-width: 1.5"/>
    <path d="M 105.063636 261.587411 
L 105.063636 261.09102 
" clip-path="url(#p666a1b9307)" style="fill: none; stroke: #ff7f0e; stroke-width: 1.5"/>
    <path d="M 141.372727 239.221495 
L 141.372727 234.502284 
" clip-path="url(#p666a1b9307)" style="fill: none; stroke: #ff7f0e; stroke-width: 1.5"/>
    <path d="M 177.681818 231.752542 
L 177.681818 227.444551 
" clip-path="url(#p666a1b9307)" style="fill: none; stroke: #ff7f0e; stroke-width: 1.5"/>
    <path d="M 213.990909 224.327395 
L 213.990909 219.945486 
" clip-path="url(#p666a1b9307)" style="fill: none; stroke: #ff7f0e; stroke-width: 1.5"/>
    <path d="M 250.3 221.976646 
L 250.3 215.616145 
" clip-path="url(#p666a1b9307)" style="fill: none; stroke: #ff7f0e; stroke-width: 1.5"/>
    <path d="M 286.609091 220.913847 
L 286.609091 213.685811 
" clip-path="url(#p666a1b9307)" style="fill: none; stroke: #ff7f0e; stroke-width: 1.5"/>
    <path d="M 322.918182 219.720847 
L 322.918182 215.662093 
" clip-path="url(#p666a1b9307)" style="fill: none; stroke: #ff7f0e; stroke-width: 1.5"/>
    <path d="M 359.227273 219.427985 
L 359.227273 215.733415 
" clip-path="url(#p666a1b9307)" style="fill: none; stroke: #ff7f0e; stroke-width: 1.5"/>
    <path d="M 395.536364 214.151975 
L 395.536364 210.49403 
" clip-path="url(#p666a1b9307)" style="fill: none; stroke: #ff7f0e; stroke-width: 1.5"/>
    <path d="M 431.845455 215.455283 
L 431.845455 208.570252 
" clip-path="url(#p666a1b9307)" style="fill: none; stroke: #ff7f0e; stroke-width: 1.5"/>
   </g>
   <g id="line2d_15">
    <defs>
     <path id="md67fc0db67" d="M 2 0 
L -2 -0 
" style="stroke: #ff7f0e"/>
    </defs>
    <g clip-path="url(#p666a1b9307)">
     <use xlink:href="#md67fc0db67" x="68.754545" y="290.329091" style="fill: #ff7f0e; stroke: #ff7f0e"/>
     <use xlink:href="#md67fc0db67" x="105.063636" y="261.587411" style="fill: #ff7f0e; stroke: #ff7f0e"/>
     <use xlink:href="#md67fc0db67" x="141.372727" y="239.221495" style="fill: #ff7f0e; stroke: #ff7f0e"/>
     <use xlink:href="#md67fc0db67" x="177.681818" y="231.752542" style="fill: #ff7f0e; stroke: #ff7f0e"/>
     <use xlink:href="#md67fc0db67" x="213.990909" y="224.327395" style="fill: #ff7f0e; stroke: #ff7f0e"/>
     <use xlink:href="#md67fc0db67" x="250.3" y="221.976646" style="fill: #ff7f0e; stroke: #ff7f0e"/>
     <use xlink:href="#md67fc0db67" x="286.609091" y="220.913847" style="fill: #ff7f0e; stroke: #ff7f0e"/>
     <use xlink:href="#md67fc0db67" x="322.918182" y="219.720847" style="fill: #ff7f0e; stroke: #ff7f0e"/>
     <use xlink:href="#md67fc0db67" x="359.227273" y="219.427985" style="fill: #ff7f0e; stroke: #ff7f0e"/>
     <use xlink:href="#md67fc0db67" x="395.536364" y="214.151975" style="fill: #ff7f0e; stroke: #ff7f0e"/>
     <use xlink:href="#md67fc0db67" x="431.845455" y="215.455283" style="fill: #ff7f0e; stroke: #ff7f0e"/>
    </g>
   </g>
   <g id="line2d_16">
    <g clip-path="url(#p666a1b9307)">
     <use xlink:href="#md67fc0db67" x="68.754545" y="290.217272" style="fill: #ff7f0e; stroke: #ff7f0e"/>
     <use xlink:href="#md67fc0db67" x="105.063636" y="261.09102" style="fill: #ff7f0e; stroke: #ff7f0e"/>
     <use xlink:href="#md67fc0db67" x="141.372727" y="234.502284" style="fill: #ff7f0e; stroke: #ff7f0e"/>
     <use xlink:href="#md67fc0db67" x="177.681818" y="227.444551" style="fill: #ff7f0e; stroke: #ff7f0e"/>
     <use xlink:href="#md67fc0db67" x="213.990909" y="219.945486" style="fill: #ff7f0e; stroke: #ff7f0e"/>
     <use xlink:href="#md67fc0db67" x="250.3" y="215.616145" style="fill: #ff7f0e; stroke: #ff7f0e"/>
     <use xlink:href="#md67fc0db67" x="286.609091" y="213.685811" style="fill: #ff7f0e; stroke: #ff7f0e"/>
     <use xlink:href="#md67fc0db67" x="322.918182" y="215.662093" style="fill: #ff7f0e; stroke: #ff7f0e"/>
     <use xlink:href="#md67fc0db67" x="359.227273" y="215.733415" style="fill: #ff7f0e; stroke: #ff7f0e"/>
     <use xlink:href="#md67fc0db67" x="395.536364" y="210.49403" style="fill: #ff7f0e; stroke: #ff7f0e"/>
     <use xlink:href="#md67fc0db67" x="431.845455" y="208.570252" style="fill: #ff7f0e; stroke: #ff7f0e"/>
    </g>
   </g>
   <g id="line2d_17">
    <path d="M 68.754545 289.386059 
L 105.063636 262.962098 
L 141.372727 238.030767 
L 177.681818 208.203071 
L 213.990909 189.840517 
L 250.3 160.258603 
L 286.609091 126.276669 
L 322.918182 100.741597 
L 359.227273 81.713019 
L 395.536364 56.591702 
L 431.845455 35.752003 
" clip-path="url(#p666a1b9307)" style="fill: none; stroke: #1f77b4; stroke-width: 1.5; stroke-linecap: square"/>
   </g>
   <g id="line2d_18">
    <path d="M 68.754545 290.273182 
L 105.063636 261.339216 
L 141.372727 236.86189 
L 177.681818 229.598547 
L 213.990909 222.136441 
L 250.3 218.796396 
L 286.609091 217.299829 
L 322.918182 217.69147 
L 359.227273 217.5807 
L 395.536364 212.323003 
L 431.845455 212.012767 
" clip-path="url(#p666a1b9307)" style="fill: none; stroke: #ff7f0e; stroke-width: 1.5; stroke-linecap: square"/>
   </g>
   <g id="patch_3">
    <path d="M 50.6 303.64 
L 50.6 10.8 
" style="fill: none; stroke: #000000; stroke-width: 0.8; stroke-linejoin: miter; stroke-linecap: square"/>
   </g>
   <g id="patch_4">
    <path d="M 450 303.64 
L 450 10.8 
" style="fill: none; stroke: #000000; stroke-width: 0.8; stroke-linejoin: miter; stroke-linecap: square"/>
   </g>
   <g id="patch_5">
    <path d="M 50.6 303.64 
L 450 303.64 
" style="fill: none; stroke: #000000; stroke-width: 0.8; stroke-linejoin: miter; stroke-linecap: square"/>
   </g>
   <g id="patch_6">
    <path d="M 50.6 10.8 
L 450 10.8 
" style="fill: none; stroke: #000000; stroke-width: 0.8; stroke-linejoin: miter; stroke-linecap: square"/>
   </g>
   <g id="legend_1">
    <g id="patch_7">
     <path d="M 57.6 62.834375 
L 114.39375 62.834375 
Q 116.39375 62.834375 116.39375 60.834375 
L 116.39375 17.8 
Q 116.39375 15.8 114.39375 15.8 
L 57.6 15.8 
Q 55.6 15.8 55.6 17.8 
L 55.6 60.834375 
Q 55.6 62.834375 57.6 62.834375 
z
" style="fill: #ffffff; opacity: 0.8; stroke: #cccccc; stroke-linejoin: miter"/>
    </g>
    <g id="text_15">
     <!-- parameter -->
     <g transform="translate(59.6 27.398438)scale(0.1 -0.1)">
      <defs>
       <path id="DejaVuSans-70" d="M 1159 525 
L 1159 -1331 
L 581 -1331 
L 581 3500 
L 1159 3500 
L 1159 2969 
Q 1341 3281 1617 3432 
Q 1894 3584 2278 3584 
Q 2916 3584 3314 3078 
Q 3713 2572 3713 1747 
Q 3713 922 3314 415 
Q 2916 -91 2278 -91 
Q 1894 -91 1617 61 
Q 1341 213 1159 525 
z
M 3116 1747 
Q 3116 2381 2855 2742 
Q 2594 3103 2138 3103 
Q 1681 3103 1420 2742 
Q 1159 2381 1159 1747 
Q 1159 1113 1420 752 
Q 1681 391 2138 391 
Q 2594 391 2855 752 
Q 3116 1113 3116 1747 
z
" transform="scale(0.015625)"/>
      </defs>
      <use xlink:href="#DejaVuSans-70"/>
      <use xlink:href="#DejaVuSans-61" x="63.476562"/>
      <use xlink:href="#DejaVuSans-72" x="124.755859"/>
      <use xlink:href="#DejaVuSans-61" x="165.869141"/>
      <use xlink:href="#DejaVuSans-6d" x="227.148438"/>
      <use xlink:href="#DejaVuSans-65" x="324.560547"/>
      <use xlink:href="#DejaVuSans-74" x="386.083984"/>
      <use xlink:href="#DejaVuSans-65" x="425.292969"/>
      <use xlink:href="#DejaVuSans-72" x="486.816406"/>
     </g>
    </g>
    <g id="LineCollection_3">
     <path d="M 70.300781 43.576563 
L 70.300781 33.576563 
" style="fill: none; stroke: #1f77b4; stroke-width: 1.5"/>
    </g>
    <g id="line2d_19">
     <g>
      <use xlink:href="#mbefaa42a55" x="70.300781" y="43.576563" style="fill: #1f77b4; stroke: #1f77b4"/>
     </g>
    </g>
    <g id="line2d_20">
     <g>
      <use xlink:href="#mbefaa42a55" x="70.300781" y="33.576563" style="fill: #1f77b4; stroke: #1f77b4"/>
     </g>
    </g>
    <g id="line2d_21">
     <path d="M 60.300781 38.576563 
L 80.300781 38.576563 
" style="fill: none; stroke: #1f77b4; stroke-width: 1.5; stroke-linecap: square"/>
    </g>
    <g id="line2d_22"/>
    <g id="text_16">
     <!-- cols -->
     <g transform="translate(88.300781 42.076563)scale(0.1 -0.1)">
      <use xlink:href="#DejaVuSans-63"/>
      <use xlink:href="#DejaVuSans-6f" x="54.980469"/>
      <use xlink:href="#DejaVuSans-6c" x="116.162109"/>
      <use xlink:href="#DejaVuSans-73" x="143.945312"/>
     </g>
    </g>
    <g id="LineCollection_4">
     <path d="M 70.300781 58.254688 
L 70.300781 48.254688 
" style="fill: none; stroke: #ff7f0e; stroke-width: 1.5"/>
    </g>
    <g id="line2d_23">
     <g>
      <use xlink:href="#md67fc0db67" x="70.300781" y="58.254688" style="fill: #ff7f0e; stroke: #ff7f0e"/>
     </g>
    </g>
    <g id="line2d_24">
     <g>
      <use xlink:href="#md67fc0db67" x="70.300781" y="48.254688" style="fill: #ff7f0e; stroke: #ff7f0e"/>
     </g>
    </g>
    <g id="line2d_25">
     <path d="M 60.300781 53.254688 
L 80.300781 53.254688 
" style="fill: none; stroke: #ff7f0e; stroke-width: 1.5; stroke-linecap: square"/>
    </g>
    <g id="line2d_26"/>
    <g id="text_17">
     <!-- rows -->
     <g transform="translate(88.300781 56.754688)scale(0.1 -0.1)">
      <use xlink:href="#DejaVuSans-72"/>
      <use xlink:href="#DejaVuSans-6f" x="38.863281"/>
      <use xlink:href="#DejaVuSans-77" x="100.044922"/>
      <use xlink:href="#DejaVuSans-73" x="181.832031"/>
     </g>
    </g>
   </g>
  </g>
 </g>
 <defs>
  <clipPath id="p666a1b9307">
   <rect x="50.6" y="10.8" width="399.4" height="292.84"/>
  </clipPath>
 </defs>
</svg>
